<?xml version="1.0" encoding="UTF-8" standalone="no"?>
<svg width="12px" height="22px" viewBox="0 0 12 22" version="1.1" xmlns="http://www.w3.org/2000/svg" xmlns:xlink="http://www.w3.org/1999/xlink">
    <!-- Generator: Sketch 40.3 (33839) - http://www.bohemiancoding.com/sketch -->
    <title>Group 9</title>
    <desc>Created with Sketch.</desc>
    <defs></defs>
    <g id="01-Main" stroke="none" stroke-width="1" fill="none" fill-rule="evenodd">
        <g id="04-Main-Mobile-Device" transform="translate(-37.000000, -7544.000000)" fill="#4192B1">
            <g id="Group-9" transform="translate(37.000000, 7544.000000)">
                <path d="M11.432,0.315051282 L8.58257143,0.310820513 C5.38171429,0.310820513 3.31257143,2.40617949 3.31257143,5.64864103 L3.31257143,8.11010256 L0.447428571,8.11010256 C0.200857143,8.11010256 0,8.30725641 0,8.55179487 L0,12.1183333 C0,12.3617436 0.200857143,12.5600256 0.447428571,12.5600256 L3.31257143,12.5600256 L3.31257143,21.5583077 C3.31257143,21.8017179 3.51342857,22 3.76114286,22 L7.49771429,22 C7.74542857,22 7.94628571,21.8017179 7.94628571,21.5583077 L7.94628571,12.5600256 L11.2957143,12.5600256 C11.5434286,12.5600256 11.7434286,12.3617436 11.7434286,12.1183333 L11.7454286,8.55179487 C11.7454286,8.43502564 11.6974286,8.32276923 11.6137143,8.239 C11.53,8.15635897 11.4162857,8.11010256 11.2968571,8.11010256 L7.94628571,8.11010256 L7.94628571,6.02348718 C7.94628571,5.02079487 8.18857143,4.51169231 9.51114286,4.51169231 L11.4308571,4.5105641 C11.6785714,4.5105641 11.8782857,4.31228205 11.8782857,4.06887179 L11.8782857,0.758153846 C11.8782857,0.513333333 11.6785714,0.316179487 11.432,0.315051282 L11.432,0.315051282 Z" id="facebook-logo-(1)"></path>
            </g>
        </g>
    </g>
</svg>