<?xml version="1.0" encoding="UTF-8" standalone="no"?>
<svg width="149px" height="32px" viewBox="0 0 149 32" version="1.1" xmlns="http://www.w3.org/2000/svg" xmlns:xlink="http://www.w3.org/1999/xlink">
    <!-- Generator: Sketch 40.3 (33839) - http://www.bohemiancoding.com/sketch -->
    <title>Group 22</title>
    <desc>Created with Sketch.</desc>
    <defs>
        <linearGradient x1="-5.09455494e-05%" y1="49.9995895%" x2="100%" y2="49.9995895%" id="linearGradient-1">
            <stop stop-color="#ACCAD7" offset="7.14%"></stop>
            <stop stop-color="#99BBC8" offset="49.43%"></stop>
            <stop stop-color="#92B6C2" offset="79.12%"></stop>
        </linearGradient>
        <linearGradient x1="0.000203783236%" y1="49.9998241%" x2="100.000255%" y2="49.9998241%" id="linearGradient-2">
            <stop stop-color="#ACCAD7" offset="7.14%"></stop>
            <stop stop-color="#99BBC8" offset="49.43%"></stop>
            <stop stop-color="#92B6C2" offset="79.12%"></stop>
        </linearGradient>
        <linearGradient x1="-1.6666985e-14%" y1="49.9994905%" x2="99.9995895%" y2="49.9994905%" id="linearGradient-3">
            <stop stop-color="#ACCAD7" offset="7.14%"></stop>
            <stop stop-color="#99BBC8" offset="49.43%"></stop>
            <stop stop-color="#92B6C2" offset="79.12%"></stop>
        </linearGradient>
        <linearGradient x1="0%" y1="50.0002547%" x2="99.9996481%" y2="50.0002547%" id="linearGradient-4">
            <stop stop-color="#ACCAD7" offset="7.14%"></stop>
            <stop stop-color="#99BBC8" offset="49.43%"></stop>
            <stop stop-color="#92B6C2" offset="79.12%"></stop>
        </linearGradient>
    </defs>
    <g id="01-Main" stroke="none" stroke-width="1" fill="none" fill-rule="evenodd">
        <g id="01-Main-Desktop-HD-(-≥-1200px-)" transform="translate(-24.000000, -15.000000)">
            <g id="Group-22" transform="translate(24.000000, 15.000000)">
                <g id="LOGO-2014-07">
                    <g id="Layer_1">
                        <g id="Group">
                            <g id="Shape">
                                <path d="M8.01877434,6.70649007 L8.18972189,6.88309051 C8.4181594,7.19196468 8.68680406,7.46940397 8.98813381,7.70878587 L16.0935163,15.0571302 L23.2416133,7.74128035 C23.5622855,7.49280353 23.8470488,7.201766 24.0869485,6.87611479 L24.2527918,6.70649007 L24.2059581,6.70649007 C24.6596989,6.02454746 24.9244035,5.20935982 24.9244035,4.33298013 C24.9244035,1.93969095 22.9569396,0 20.5300933,0 C19.736517,0 18.9926399,0.208388521 18.3499523,0.571214128 L18.3499523,0.570242826 C18.3371469,0.578189845 18.3246102,0.585165563 18.3120734,0.592847682 C18.277866,0.612362031 18.2441063,0.632317881 18.2104362,0.652891832 C16.6857882,1.54066225 15.2003624,1.19761589 14.3912942,0.876556291 C13.654581,0.326622517 12.7367118,0 11.7414729,0 C9.31462662,0 7.3471627,1.93969095 7.3471627,4.33298013 C7.3471627,5.20935982 7.61195679,6.02454746 8.06560806,6.70649007 L8.01877434,6.70649007 L8.01877434,6.70649007 Z" fill="url(#linearGradient-1)"></path>
                                <path d="M24.1650346,25.0284327 L23.9941766,24.8518322 C23.7657391,24.5429581 23.4969153,24.2651656 23.1954065,24.0257837 L16.0902926,16.6778808 L8.94228512,23.9932892 C8.62143386,24.2418543 8.33667052,24.5331567 8.09677084,24.8588079 L7.93092754,25.0284327 L7.97776126,25.0284327 C7.52410998,25.7103753 7.25940545,26.5255629 7.25940545,27.4019426 C7.25940545,29.7952318 9.22686936,31.7349227 11.6536261,31.7349227 C12.447292,31.7349227 13.1910795,31.5267108 13.8338566,31.1636203 L13.8338566,31.1646799 C13.8472888,31.1560265 13.860721,31.1490508 13.8741533,31.140574 C13.9069279,31.1219426 13.9393444,31.1026049 13.9714922,31.0830022 C15.4968565,30.193819 16.9831779,30.5372185 17.7926042,30.8583664 C18.529407,31.4083002 19.4470971,31.7349227 20.442336,31.7349227 C22.8691823,31.7349227 24.8365567,29.7952318 24.8365567,27.4019426 C24.8365567,26.5255629 24.5718521,25.7103753 24.1182009,25.0284327 L24.1650346,25.0284327 L24.1650346,25.0284327 Z" fill="url(#linearGradient-2)"></path>
                                <path d="M31.6051483,18.0940397 C31.5975367,18.0822075 31.5911788,18.0707285 31.5837463,18.0588079 C31.5631502,18.0239294 31.5420168,17.989404 31.5204357,17.9547903 C30.6211029,16.4520088 30.9691769,14.9883444 31.2945056,14.1906402 C31.852391,13.4644592 32.1838985,12.559117 32.1838985,11.5777483 C32.1838985,9.18472406 30.2164345,7.24467991 27.7896778,7.24467991 C26.9007327,7.24467991 26.0740235,7.50569536 25.3826217,7.95311258 L25.3826217,7.90666667 L25.2033462,8.07523179 C24.8902856,8.30030905 24.608746,8.56520971 24.3658912,8.86260486 L16.9135094,15.8688742 L24.3334748,22.9181457 C24.5851948,23.2340839 24.8799875,23.5142605 25.2096145,23.7504636 L25.3825322,23.9148786 L25.3825322,23.8684327 C26.0739339,24.3158499 26.9006431,24.5769536 27.7895883,24.5769536 C30.2164345,24.5769536 32.1838089,22.6369095 32.1838089,20.2438852 C32.1838089,19.4611038 31.9723856,18.7275055 31.6042528,18.0940397 L31.6051483,18.0940397 L31.6051483,18.0940397 Z" fill="url(#linearGradient-3)"></path>
                                <path d="M6.98091049,23.6593377 C7.29379197,23.4342605 7.57515247,23.169713 7.81773859,22.8724062 L15.2702996,15.8656071 L7.85122963,8.81739514 C7.59906184,8.50083885 7.30373182,8.21995585 6.97311979,7.98331126 L6.80127676,7.81995585 L6.80127676,7.86640177 C6.10987497,7.41898455 5.28316581,7.15796909 4.39422064,7.15796909 C1.96746391,7.1580574 0,9.09810155 0,11.4911258 C0,12.2734658 0.211423344,13.007064 0.579556072,13.6409713 L0.578571041,13.6409713 C0.586272188,13.652362 0.592361467,13.6638411 0.599704421,13.6754084 C0.620479608,13.7106402 0.641792084,13.7455188 0.663552301,13.7801325 C1.56234777,15.2829139 1.21472159,16.7462252 0.889482457,17.5439294 C0.331417958,18.2706402 0,19.1756291 0,20.1572627 C0,22.550287 1.96746391,24.4902428 4.39422064,24.4902428 C5.28316581,24.4902428 6.10987497,24.2292274 6.80127676,23.7818985 L6.80127676,23.8282561 L6.98091049,23.6593377 L6.98091049,23.6593377 Z" fill="url(#linearGradient-4)"></path>
                            </g>
                            <g transform="translate(38.953475, 8.476821)" id="Shape" fill="#9A9A9A">
                                <path d="M3.57951095,13.2633996 C3.57951095,13.8036203 3.57951095,14.7702428 4.76172653,14.7702428 C4.99240274,14.7702428 5.19424443,14.7133775 5.39608611,14.6565121 L5.39608611,14.9977042 C5.07890632,15.0830022 4.90580962,15.1114349 4.6175539,15.1114349 C4.32929818,15.1114349 3.06039992,14.9692715 2.80097873,14.9692715 C2.45496442,14.9692715 0.955569042,15.1114349 0.638389251,15.1114349 C0.465292545,15.1114349 0.26345086,15.1114349 0.0616987227,15.0830022 L0.0616987227,14.7702428 C1.1863348,14.7702428 1.99361199,14.7702428 1.99361199,12.7515232 L1.99361199,2.20282561 C1.99361199,1.37827815 1.93594294,0.553642384 0.782561884,0.553642384 C0.465382093,0.553642384 0.436637115,0.553642384 0.177036828,0.582075055 L0.177036828,0.269315673 C0.436547566,0.212450331 0.638389251,0.18401766 1.0132381,0.18401766 C1.47459052,0.18401766 3.52193144,0.297748344 3.95444934,0.297748344 L7.41468206,0.297748344 C7.90495856,0.297748344 8.30855238,0.297748344 8.88524291,0.18401766 C9.00067056,0.582075055 9.60619562,1.89006623 9.72144418,2.17439294 C9.92337541,2.65774834 9.92337541,2.82834437 9.92337541,3.25483444 L9.6926992,3.25483444 C9.66395422,1.26454746 6.54964627,0.781103753 4.617733,0.781103753 C4.30046366,0.781103753 3.57969004,0.809536424 3.57969004,1.3213245 L3.57969004,7.03646799 C6.89566058,7.03646799 7.67428235,7.03646799 7.67428235,5.89907285 C7.67428235,5.70004415 7.61652375,5.50101545 7.55885469,5.30198675 L7.78962045,5.18825607 C7.90495856,5.41571744 7.99137259,5.61474614 7.99137259,5.92759382 C7.99137259,6.06975717 7.93370354,6.72379691 7.93370354,6.83743929 C7.93370354,7.40609272 7.96253806,7.49139073 8.19321427,8.06004415 C8.42389049,8.57183223 8.42389049,8.65713024 8.45272501,9.481766 L8.2220488,9.481766 C8.07787617,7.57668874 7.64535827,7.57668874 3.5796005,7.57668874 L3.5796005,13.2633996 L3.57951095,13.2633996 Z"></path>
                                <path d="M19.409666,15.2820309 C14.075189,15.2820309 11.3934885,11.7848124 11.3934885,7.88944812 C11.3934885,3.85192053 14.8825558,0.0418543046 19.3519969,0.0418543046 C23.9656107,0.0418543046 27.2239122,2.97050773 27.2239122,7.57668874 C27.2240017,10.7611479 24.5423012,15.2820309 19.409666,15.2820309 L19.409666,15.2820309 Z M19.0924862,0.525209713 C15.5745844,0.525209713 12.979477,3.45386313 12.979477,7.43443709 C12.979477,10.5621192 15.0555629,14.7702428 19.6115076,14.7702428 C23.2447475,14.7702428 25.6381028,12.1543488 25.6381028,8.62869757 C25.6381028,5.78543046 24.0232797,0.525209713 19.0924862,0.525209713 L19.0924862,0.525209713 Z"></path>
                                <path d="M30.4244551,2.23125828 C30.4244551,0.69589404 29.5305847,0.553642384 29.357488,0.553642384 C29.213405,0.553642384 28.8673011,0.610507726 28.4924522,0.667373068 L28.4924522,0.297748344 C28.751963,0.240883002 29.0115633,0.212450331 29.357488,0.212450331 C29.6746678,0.212450331 31.0875596,0.354613687 31.3759944,0.354613687 C31.6643397,0.354613687 31.9815195,0.354613687 32.2410302,0.326181015 C32.4140374,0.297748344 33.1349005,0.212450331 33.2790732,0.212450331 C33.567508,0.212450331 33.8269292,0.240883002 34.0576054,0.269315673 L34.0576054,0.639028698 C33.7692601,0.582163355 33.653922,0.553730684 33.2501491,0.553730684 C32.096768,0.553730684 31.9814299,1.7194702 31.9814299,2.74304636 L31.9525954,9.73757174 C31.9525954,10.7328035 31.9525954,14.7134658 36.7680509,14.7134658 C38.3827844,14.7134658 40.3146976,13.6898896 40.9491468,12.0975717 C41.3816647,11.0171302 41.3816647,9.76609272 41.3816647,9.02684327 L41.3816647,2.65783664 C41.3816647,1.89015453 41.1797334,0.95187638 40.3723667,0.610596026 C40.3435322,0.582163355 40.1128559,0.553730684 39.9398488,0.553730684 C39.7667521,0.553730684 39.4496618,0.610596026 39.2766547,0.667461369 L39.2766547,0.297836645 C39.4784964,0.240971302 39.6515035,0.212538631 39.9687729,0.212538631 C40.4589598,0.212538631 41.1509884,0.354701987 41.6411754,0.354701987 C42.0736933,0.354701987 42.8811496,0.212538631 43.1983294,0.212538631 C43.5155092,0.212538631 43.6308473,0.240971302 43.8038544,0.297836645 L43.8038544,0.667461369 C43.6020127,0.610596026 43.4001711,0.553730684 43.2559984,0.553730684 C43.1406603,0.553730684 42.9099841,0.582163355 42.8523151,0.610596026 C42.0737828,1.20768212 41.9872793,1.5205298 41.9872793,3.39708609 L41.9872793,8.34437086 C41.9872793,10.7042826 41.8719412,12.3534658 40.4301253,13.7750993 C39.1325716,15.0546578 37.2294928,15.2536865 36.5085401,15.2536865 C32.7311276,15.2536865 30.4244551,13.4339073 30.4244551,10.0218985 L30.4244551,2.23125828 L30.4244551,2.23125828 Z"></path>
                                <path d="M48.964966,13.5192053 C48.964966,14.2015894 49.3108908,14.6281678 49.9165054,14.7986755 C50.2048506,14.7986755 50.4643614,14.7702428 50.6950376,14.7417219 L50.6950376,15.0545695 C50.4643614,15.0829139 50.2625197,15.1114349 50.0029194,15.1114349 C49.6857396,15.1114349 48.5900276,14.9692715 47.955668,14.9692715 C47.5231501,14.9692715 46.5716108,15.1114349 46.1966724,15.1114349 C45.9659962,15.1114349 45.792989,15.1114349 45.5045542,15.0545695 L45.5045542,14.7133775 C45.7352304,14.7417219 45.9083271,14.7702428 46.1101688,14.7702428 C46.340845,14.7702428 46.5715212,14.7418102 46.802287,14.7133775 C47.3213085,14.1731567 47.4366466,13.8889183 47.4366466,12.9504636 L47.4366466,1.94684327 C47.4366466,1.34975717 47.3787984,0.553642384 46.3696795,0.553642384 C46.1678379,0.553642384 45.9371616,0.582075055 45.7641545,0.582075055 L45.7641545,0.240883002 C46.1101688,0.212450331 46.1101688,0.212450331 46.5426867,0.212450331 C46.8021974,0.212450331 47.9555785,0.297748344 48.1862547,0.297748344 L50.4641823,0.212450331 C50.8390311,0.212450331 51.2714595,0.18401766 51.6175633,0.18401766 C54.4145124,0.18401766 56.1735081,1.69094923 56.1735081,3.8803532 C56.1735081,5.70004415 54.5876091,7.26392936 51.7039774,7.43443709 C52.828703,8.68547461 53.0304551,8.998234 54.7029472,11.7563797 C55.6256521,13.2633113 56.6348605,14.9408389 57.9613383,14.9408389 C58.3361871,14.9408389 58.5091943,14.8554525 58.855119,14.7133775 L58.855119,14.9408389 C58.4513461,15.1114349 58.1054213,15.2251656 57.153882,15.2251656 C55.3661413,15.2251656 54.6451886,14.4859161 52.4825991,10.8180132 C51.9924122,9.99346578 50.5795204,7.74728477 50.118168,7.49130243 C49.9451608,7.40600442 49.10887,7.20697572 48.9647869,7.1216777 L48.9647869,13.5192053 L48.964966,13.5192053 Z M48.964966,6.58145695 C49.4839875,6.86578366 50.003009,7.15011038 51.1275555,7.15011038 C52.5404473,7.15011038 54.443526,6.21183223 54.443526,4.02242826 C54.443526,3.14101545 53.9245046,0.69580574 50.6950376,0.69580574 C48.964966,0.69580574 48.964966,1.09386313 48.964966,1.57721854 L48.964966,6.58145695 L48.964966,6.58145695 Z"></path>
                                <path d="M63.3534843,13.5192053 C63.3534843,14.1731567 63.526581,14.6281678 65.4006461,14.6281678 C67.0732277,14.6281678 68.3131123,14.3722737 69.5529074,13.6045033 C70.3604533,13.1211479 70.8792957,12.6946578 70.9658888,11.756468 L71.1677305,11.756468 C71.1677305,12.2113024 71.1677305,12.5809272 70.7064676,13.2917439 C70.5045364,13.6045033 69.6683351,14.6849448 69.5529074,15.1683002 C68.7167957,15.1398675 67.8517599,15.1114349 67.0155587,15.1114349 L60.960129,15.1114349 C60.7294528,15.1398675 60.5852802,15.1683002 60.4411075,15.1683002 C60.2681004,15.1683002 60.0950932,15.1398675 59.9509206,15.1114349 L59.9509206,14.7986755 C60.1239277,14.8271082 60.2968454,14.8271082 60.4699421,14.8271082 C61.450316,14.8271082 61.7386612,14.3437528 61.7386612,13.46234 L61.7386612,2.94198675 C61.7386612,1.80467991 61.7386612,0.553642384 60.2681004,0.553642384 C60.1239277,0.553642384 59.9509206,0.553642384 59.806748,0.582075055 L59.806748,0.269315673 C60.0374242,0.240883002 60.2681004,0.212450331 60.5276111,0.212450331 C61.3639019,0.212450331 62.1711791,0.383046358 62.4595244,0.383046358 C62.7190351,0.383046358 63.4688224,0.212450331 64.1030924,0.212450331 C64.4780308,0.212450331 64.7952106,0.240883002 65.1412249,0.269315673 L65.1412249,0.582075055 C64.9393832,0.553642384 64.8817142,0.553642384 64.5645344,0.553642384 C64.1031819,0.553642384 63.8724162,0.610507726 63.7283331,0.752671082 C63.5552364,0.923267108 63.3533947,1.20759382 63.3533947,1.7193819 L63.3533947,13.5192053 L63.3534843,13.5192053 Z"></path>
                                <path d="M81.3463183,0.269315673 C81.461746,0.582075055 82.067271,1.89006623 82.1826091,2.17439294 C82.3844508,2.65774834 82.3844508,2.82834437 82.3844508,3.25483444 L82.153685,3.25483444 C82.1250296,1.26454746 79.0107217,0.781103753 77.0788084,0.781103753 C76.761539,0.781103753 76.0407654,0.809536424 76.0407654,1.3213245 L76.0407654,7.03646799 L78.5782038,7.03646799 C79.9623506,7.03646799 80.2506063,6.29713024 80.2506063,5.95593819 C80.2506063,5.72847682 80.1641923,5.47258278 80.1065232,5.21668874 L80.2796199,5.10295806 C80.4815511,5.41562914 80.4815511,5.50092715 80.5390411,6.29704194 C80.6254551,7.46278146 80.6254551,7.60494481 80.8274759,8.17368653 C81.0004831,8.65704194 81.0004831,9.08353201 81.0004831,9.45315673 L80.7986414,9.45315673 C80.6833033,7.5197351 79.8181779,7.5197351 76.040855,7.57660044 L76.040855,13.6612804 C76.040855,14.3153201 76.588711,14.6280795 77.136567,14.6280795 L78.6071278,14.6280795 C78.6648864,14.6280795 80.1065232,14.6280795 81.5483391,13.9456954 C83.134238,13.1779249 83.1630726,12.9504636 83.2495761,12.3249448 L83.538011,12.3249448 C83.4514178,12.8651656 83.3938383,13.1211479 83.0476449,13.6328477 C82.8747273,13.88883 82.0384365,14.9691832 81.9231879,15.2250773 C80.7408828,15.0829139 76.6752146,15.0260486 75.2910677,15.0260486 C74.9450534,15.0260486 74.5989496,15.0544812 74.2529352,15.0544812 C73.8780864,15.0828256 73.5320721,15.1113466 73.1860578,15.1113466 C72.9842161,15.1113466 72.7535399,15.1113466 72.5228637,15.0544812 L72.5228637,14.7132892 C72.6959604,14.7416336 72.8978021,14.7701545 73.0706301,14.7701545 C73.3013959,14.7701545 73.6762447,14.7132892 73.9357555,14.5426932 C74.3106938,14.1730684 74.4547769,13.6328477 74.4547769,12.7514349 L74.4547769,2.20282561 C74.4547769,1.37827815 74.3970183,0.553642384 73.2436373,0.553642384 C72.926547,0.553642384 72.8978021,0.553642384 72.6382018,0.582075055 L72.6382018,0.269315673 C72.8977125,0.212450331 73.0995542,0.18401766 73.474403,0.18401766 C73.9357555,0.18401766 75.9830964,0.297748344 76.4156143,0.297748344 L79.875847,0.297748344 L81.3463183,0.269315673 L81.3463183,0.269315673 Z"></path>
                                <path d="M91.1788023,0.18401766 C91.2076368,0.127152318 91.2365609,0.0702869757 91.2941404,0.0418543046 L91.5248166,0.0418543046 C91.5825752,0.0987196468 91.6401547,0.155584989 91.6689892,0.240883002 L96.9169626,13.5760706 C97.2052183,14.3154084 97.2918114,14.4006181 97.6089912,14.7133775 C97.8685019,14.8271082 98.0126746,14.8271082 98.1856817,14.8271082 C98.3298544,14.8271082 98.4739375,14.8271082 98.6181996,14.7986755 L98.6181996,15.0830022 C98.5316961,15.0830022 98.4163579,15.1114349 98.3010198,15.1114349 C98.2432612,15.1114349 96.5708587,14.9977042 96.2248444,14.9977042 C95.9364096,14.9977042 94.6676904,15.1114349 94.4081797,15.1114349 C94.0622549,15.1114349 94.0333308,15.1114349 93.8026546,15.0830022 L93.8026546,14.7702428 C94.2351725,14.8271082 94.3216761,14.8271082 94.8119526,14.7986755 C95.1579669,14.5996468 95.273305,14.4859161 95.273305,14.1447241 C95.273305,14.059426 95.273305,13.7466667 95.1579669,13.4339073 L93.1972191,8.48653422 L88.5259363,8.48653422 L86.9977064,12.3250331 C86.8823683,12.6093598 86.622768,13.4054746 86.622768,13.8603974 C86.622768,14.3437528 86.8246992,14.5713024 86.9977064,14.7418102 C87.2283826,14.8271082 87.4302243,14.8271082 87.6032314,14.8271082 L88.1222529,14.8271082 L88.1222529,15.0830022 C87.9492458,15.1114349 87.9204112,15.1114349 87.5744865,15.1114349 C87.3438102,15.1114349 86.3056777,14.9977042 86.0173325,14.9977042 C85.527056,14.9977042 84.8062824,15.1114349 84.5179371,15.1114349 C84.2007573,15.1114349 84.1719228,15.1114349 84.0276606,15.0830022 L84.0276606,14.7702428 C84.2871713,14.8271082 84.3447509,14.8271082 84.8638619,14.7986755 C85.1522967,14.5996468 85.7001527,14.1731567 86.1038361,13.1495806 L91.1788023,0.18401766 L91.1788023,0.18401766 Z M93.024212,7.97465784 L90.8616225,2.600883 L88.7278675,7.97465784 L93.024212,7.97465784 L93.024212,7.97465784 Z"></path>
                                <path d="M103.231813,13.2633996 C103.231813,13.8036203 103.231813,14.7702428 104.413939,14.7702428 C104.644705,14.7702428 104.846547,14.7133775 105.048299,14.6565121 L105.048299,14.9977042 C104.731209,15.0830022 104.558112,15.1114349 104.269856,15.1114349 C103.981601,15.1114349 102.712702,14.9692715 102.453281,14.9692715 C102.107267,14.9692715 100.607872,15.1114349 100.290692,15.1114349 C100.117595,15.1114349 99.9157533,15.1114349 99.7140012,15.0830022 L99.7140012,14.7702428 C100.838637,14.7702428 101.645914,14.7702428 101.645914,12.7515232 L101.645914,2.20282561 C101.645914,1.37827815 101.588245,0.553642384 100.434864,0.553642384 C100.117685,0.553642384 100.089029,0.553642384 99.8292497,0.582075055 L99.8292497,0.269315673 C100.08894,0.212450331 100.290692,0.18401766 100.665541,0.18401766 C101.126893,0.18401766 103.174234,0.297748344 103.606752,0.297748344 L107.066985,0.297748344 C107.557261,0.297748344 107.960855,0.297748344 108.537635,0.18401766 C108.652973,0.582075055 109.258498,1.89006623 109.373747,2.17439294 C109.575678,2.65774834 109.575678,2.82834437 109.575678,3.25483444 L109.345002,3.25483444 C109.316257,1.26454746 106.201949,0.781103753 104.270035,0.781103753 C103.952856,0.781103753 103.231993,0.809536424 103.231993,1.3213245 L103.231993,7.03646799 C106.547963,7.03646799 107.326585,7.03646799 107.326585,5.89907285 C107.326585,5.70004415 107.268826,5.50101545 107.211157,5.30198675 L107.441923,5.18825607 C107.557261,5.41571744 107.643765,5.61474614 107.643765,5.92759382 C107.643765,6.06975717 107.586006,6.72379691 107.586006,6.83743929 C107.586006,7.40609272 107.614841,7.49139073 107.845427,8.06004415 C108.076193,8.57183223 108.076193,8.65713024 108.104938,9.481766 L107.874351,9.481766 C107.730179,7.57668874 107.297661,7.57668874 103.231903,7.57668874 L103.231903,13.2633996 L103.231813,13.2633996 Z"></path>
                            </g>
                        </g>
                    </g>
                </g>
            </g>
        </g>
    </g>
</svg>