<?xml version="1.0" encoding="UTF-8" standalone="no"?>
<svg width="25px" height="20px" viewBox="0 0 25 20" version="1.1" xmlns="http://www.w3.org/2000/svg" xmlns:xlink="http://www.w3.org/1999/xlink">
    <!-- Generator: Sketch 40.3 (33839) - http://www.bohemiancoding.com/sketch -->
    <title>Group 8</title>
    <desc>Created with Sketch.</desc>
    <defs>
        <polygon id="path-1" points="12.4896951 0.00768768769 0.00365853659 0.00768768769 0.00365853659 19.9999399 24.9757317 19.9999399 24.9757317 0.00768768769 12.4896951 0.00768768769"></polygon>
    </defs>
    <g id="01-Main" stroke="none" stroke-width="1" fill="none" fill-rule="evenodd">
        <g id="04-Main-Mobile-Device" transform="translate(-160.000000, -7546.000000)">
            <g id="Group-8" transform="translate(160.000000, 7546.000000)">
                <mask id="mask-2" fill="white">
                    <use xlink:href="#path-1"></use>
                </mask>
                <g id="Clip-2"></g>
                <path d="M24.9757317,2.36648649 C24.0567683,2.76792793 23.0692683,3.03933934 22.0326829,3.16138138 C23.0907317,2.53657658 23.9031707,1.54774775 24.2856707,0.369069069 C23.2955488,0.947327327 22.1989024,1.36756757 21.0318293,1.59369369 C20.0971951,0.612792793 18.7654878,0 17.2915854,0 C14.4619512,0 12.1675,2.25975976 12.1675,5.04690691 C12.1675,5.44246246 12.2129878,5.82768769 12.3004268,6.19723724 C8.04189024,5.98654655 4.26615854,3.97735736 1.73902439,0.923663664 C1.29786585,1.66924925 1.04518293,2.53615616 1.04518293,3.4612012 C1.04518293,5.21207207 1.94957317,6.756997 3.32457317,7.6621021 C2.4845122,7.63585586 1.69445122,7.40870871 1.00371951,7.03075075 C1.00323171,7.05189189 1.00323171,7.07303303 1.00323171,7.09435435 C1.00323171,9.5396997 2.76963415,11.5793994 5.11359756,12.0432432 C4.68365854,12.1583784 4.23091463,12.2203604 3.76359756,12.2203604 C3.43347561,12.2203604 3.11237805,12.1886486 2.79939024,12.1295495 C3.45152439,14.1347748 5.34396341,15.5940541 7.58621951,15.6345946 C5.83243902,16.9885285 3.62304878,17.7953754 1.22237805,17.7953754 C0.808658537,17.7953754 0.400853659,17.7714715 0,17.7245045 C2.26756098,19.1568168 4.96091463,19.9922523 7.85463415,19.9922523 C17.2796951,19.9922523 22.4335366,12.3017417 22.4335366,5.63201201 C22.4335366,5.41339339 22.4285366,5.19567568 22.4187805,4.9790991 C23.420122,4.26756757 24.2887805,3.37861862 24.9757317,2.36648649 L24.9757317,2.36648649 Z" id="Fill-1" fill="#4192B1" mask="url(#mask-2)"></path>
            </g>
        </g>
    </g>
</svg>