<?xml version="1.0" encoding="utf-8"?>
<!-- Generator: Adobe Illustrator 16.0.0, SVG Export Plug-In . SVG Version: 6.00 Build 0)  -->
<!DOCTYPE svg PUBLIC "-//W3C//DTD SVG 1.1//EN" "http://www.w3.org/Graphics/SVG/1.1/DTD/svg11.dtd">
<svg version="1.1" id="Layer_1" xmlns="http://www.w3.org/2000/svg" xmlns:xlink="http://www.w3.org/1999/xlink" x="0px" y="0px"
	 width="100px" height="100px" viewBox="-6 -8.5 100 100" enable-background="new -6 -8.5 100 100" xml:space="preserve">
<title>10122016-all-icon-fourleaf (1)-17</title>
<desc>Created with Sketch.</desc>
<g id="_x30_1-Main">
	<g id="Component-_x26_-Comment" transform="translate(-292.000000, -1487.000000)">
		<g id="_x31_0122016-all-icon-fourleaf-_x28_1_x29_-17" transform="translate(286.000000, 1478.000000)">
			<g id="Group">
				<g id="bg0_x25_" opacity="0">
					<rect id="XMLID_2317_" fill="none" width="100" height="100"/>
				</g>
				<g id="icon7-9" transform="translate(7.000000, 9.000000)">
					<g id="icon7fill_1_">
						<polyline id="XMLID_1939_" fill="#4192B1" stroke="#FFFFFF" stroke-width="2" points="53.837,39.615 53.837,4.583 
							0.417,4.583 0.417,57.745 44.719,57.745 						"/>
						<circle id="XMLID_1938_" fill="none" stroke="#FFFFFF" stroke-width="2" cx="23.562" cy="40.37" r="2.717"/>
						<circle id="XMLID_1937_" fill="none" stroke="#FFFFFF" stroke-width="2" cx="15.076" cy="31.884" r="2.717"/>
						<circle id="XMLID_1936_" fill="none" stroke="#FFFFFF" stroke-width="2" cx="44.18" cy="19.954" r="2.717"/>
						<path id="XMLID_1935_" fill="none" stroke="#FFFFFF" stroke-width="2" d="M25.578,38.554l16.688-16.687"/>
						<path id="XMLID_1934_" fill="none" stroke="#FFFFFF" stroke-width="2" d="M16.857,33.932l4.658,4.656"/>
						<path id="XMLID_1933_" fill="none" stroke="#FFFFFF" stroke-width="2" d="M0.385,46.411l12.692-12.692"/>
						<g id="XMLID_1930_" transform="translate(64.000000, 0.000000)">
							<path id="XMLID_1932_" fill="none" stroke="#FFFFFF" stroke-width="2" d="M14.307,6.969c0,0-1.146-4.341-6.873-4.413
								c-1.103-0.014-2.47,0.383-3.475,0.812C2.93,3.809,2.027,4.514,1.423,5.466C0.26,7.297,0.305,9.76,1.779,11.403
								c1.509,1.679,3.345,2.286,5.557,2.314c1.686,0.021,3.766,0.456,5.005,1.666c1.175,1.144,1.812,2.94,1.483,4.559
								c-0.174,0.862-0.641,1.936-1.229,2.599c-1.418,1.593-3.312,2.42-5.447,2.393c-4.222-0.053-6.758-3.339-6.787-4.251"/>
							<path id="XMLID_1931_" fill="none" stroke="#FFFFFF" stroke-width="2" d="M7.508,0.056L7.164,27.314"/>
						</g>
						<polyline id="XMLID_1921_" fill="#4192B1" stroke="#FFFFFF" stroke-width="2" points="46.354,58.167 46.354,81.902 
							84.039,81.902 84.039,58.632 						"/>
						<polyline id="XMLID_1926_" fill="#4192B1" stroke="#FFFFFF" stroke-width="2" points="46.256,46.191 46.256,39.774 
							83.941,39.774 83.941,46.32 						"/>
						<path id="XMLID_1929_" fill="#4192B1" stroke="#FFFFFF" stroke-width="2" d="M52.846,46.285v9.531
							c0,2.268,1.838,4.104,4.104,4.104s4.104-1.837,4.104-4.104v-9.531H52.846L52.846,46.285z"/>
						<path id="XMLID_1928_" fill="#4192B1" stroke="#FFFFFF" stroke-width="2" d="M61.055,46.285v9.531
							c0,2.268,1.836,4.104,4.104,4.104c2.267,0,4.104-1.837,4.104-4.104v-9.531H61.055L61.055,46.285z"/>
						<path id="XMLID_1927_" fill="#4192B1" stroke="#FFFFFF" stroke-width="2" d="M69.262,46.285v9.531
							c0,2.268,1.838,4.104,4.104,4.104s4.104-1.837,4.104-4.104v-9.531H69.262L69.262,46.285z"/>
						<path id="XMLID_1925_" fill="none" stroke="#FFFFFF" stroke-width="2" d="M75.938,81.768v-10.36
							c0-2.464-1.838-4.46-4.104-4.46s-4.104,1.996-4.104,4.46v10.358h8.209V81.768z"/>
						<rect id="XMLID_1924_" x="51.58" y="64.839" fill="none" stroke="#FFFFFF" stroke-width="2" width="10.922" height="6.285"/>
						<path id="XMLID_1923_" fill="#4192B1" stroke="#FFFFFF" stroke-width="2" d="M52.846,46.285v9.531
							c0,2.268-1.837,4.104-4.104,4.104c-2.268,0-4.104-1.837-4.104-4.104v-9.531H52.846L52.846,46.285z"/>
						<path id="XMLID_1922_" fill="#4192B1" stroke="#FFFFFF" stroke-width="2" d="M77.471,46.285v9.531
							c0,2.268,1.836,4.104,4.104,4.104c2.267,0,4.104-1.837,4.104-4.104v-9.531H77.471L77.471,46.285z"/>
					</g>
				</g>
			</g>
		</g>
	</g>
</g>
</svg>
