<?xml version="1.0" encoding="UTF-8" standalone="no"?>
<svg width="79px" height="83px" viewBox="0 0 79 83" version="1.1" xmlns="http://www.w3.org/2000/svg" xmlns:xlink="http://www.w3.org/1999/xlink">
    <!-- Generator: Sketch 40.3 (33839) - http://www.bohemiancoding.com/sketch -->
    <title>Group 2</title>
    <desc>Created with Sketch.</desc>
    <defs>
        <polygon id="path-1" points="0 83.8815789 78.921 83.8815789 78.921 0.952894737 0 0.952894737"></polygon>
    </defs>
    <g id="01-Main" stroke="none" stroke-width="1" fill="none" fill-rule="evenodd">
        <g id="Component-&amp;-Comment" transform="translate(-112.000000, -1337.000000)">
            <g id="Group-2" transform="translate(101.000000, 1328.000000)">
                <rect id="XMLID_2337_" x="0" y="0" width="100" height="100"></rect>
                <g id="Page-1" transform="translate(11.000000, 8.000000)">
                    <polygon id="Fill-1" fill="#FFFFFF" points="74.5383915 57.8192368 74.5383915 72.9895 55.7508563 72.9895 36.9633211 72.9895 36.9633211 57.8192368 36.9633211 46.2402237 74.5383915 46.2402237"></polygon>
                    <polygon id="Stroke-2" stroke="#FFAB3B" stroke-width="2" points="74.5383915 57.8192368 74.5383915 72.9895 55.7508563 72.9895 36.9633211 72.9895 36.9633211 57.8192368 36.9633211 46.2402237 74.5383915 46.2402237"></polygon>
                    <polyline id="Stroke-3" stroke="#FFAB3B" stroke-width="2" points="36.9638775 57.8192368 46.3570887 57.8192368 49.1209761 64.1304868 55.7514127 64.1304868 62.3818493 64.1304868 65.1446239 57.8192368 74.5389479 57.8192368"></polyline>
                    <polygon id="Fill-4" fill="#FFFFFF" points="64.421162 52.8513224 35.4748944 39.8630987 43.7799085 21.1630987 72.7250634 34.1502039"></polygon>
                    <polygon id="Stroke-5" stroke="#FFAB3B" stroke-width="2" points="64.421162 52.8513224 35.4748944 39.8630987 43.7799085 21.1630987 72.7250634 34.1502039"></polygon>
                    <g id="Group-36" transform="translate(0.000000, 0.165414)">
                        <path d="M77.6151634,27.4772566 C78.6087831,32.110875 75.6779944,36.6773882 71.0692901,37.6761382 C66.4594732,38.6760066 61.9164169,35.7289671 60.9227972,31.0964671 C59.9280648,26.4628487 62.8588535,21.8974539 67.4686704,20.8987039 C72.0784873,19.8988355 76.620431,22.8447566 77.6151634,27.4772566 L77.6151634,27.4772566 Z" id="Fill-6" fill="#FFFFFF"></path>
                        <path d="M77.6151634,27.4772566 C78.6087831,32.110875 75.6779944,36.6773882 71.0692901,37.6761382 C66.4594732,38.6760066 61.9164169,35.7289671 60.9227972,31.0964671 C59.9280648,26.4628487 62.8588535,21.8974539 67.4686704,20.8987039 C72.0784873,19.8988355 76.620431,22.8447566 77.6151634,27.4772566 L77.6151634,27.4772566 Z" id="Stroke-8" stroke="#FFAB3B" stroke-width="2"></path>
                        <path d="M71.1221423,26.2124342 C71.1221423,26.2124342 70.3866634,24.7573684 68.3571423,25.1700658 C67.966593,25.2505921 67.5137338,25.4955263 67.1910577,25.7248026 C66.8594803,25.9619079 66.5957761,26.2795395 66.4544662,26.6653947 C66.1829732,27.4046711 66.386593,28.2770395 67.0330577,28.7467763 C67.6939873,29.2276974 68.3894099,29.30375 69.1738465,29.1438158 C69.7713535,29.0230263 70.5391,29.0174342 71.0709592,29.3518421 C71.5716634,29.6683553 71.9332831,30.2577632 71.9421845,30.8583553 C71.9444099,31.1771053 71.8631845,31.5942763 71.7051845,31.875 C71.3279873,32.5505263 70.7193535,32.9900658 69.9627338,33.1432895 C68.4661845,33.4486184 67.3190155,32.4744737 67.2389028,32.1534868" id="Stroke-10" stroke="#FFAB3B" stroke-width="2"></path>
                        <path d="M68.1938014,24.2770066 L70.1498859,33.9882566" id="Stroke-12" stroke="#FFAB3B" stroke-width="2"></path>
                        <path d="M58.3970225,35.4672566 C58.3970225,35.4672566 58.694107,33.6263355 56.5433042,32.6320592 C56.1293887,32.4408092 55.5463465,32.3602829 55.0946,32.3546908 C54.6295014,32.3490987 54.1733042,32.4620592 53.7838676,32.7226513 C53.0383746,33.2214671 52.6411493,34.1654145 52.9226563,35.0377829 C53.2108394,35.9280461 53.8016704,36.4693618 54.6328394,36.8529803 C55.2659521,37.1460066 55.9769521,37.6615987 56.2439944,38.3315329 C56.4954592,38.9623224 56.4331493,39.7519276 56.039262,40.3122566 C55.8267408,40.6086382 55.4717972,40.9385724 55.1379944,41.0906776 C54.3368676,41.4575197 53.480107,41.4508092 52.6789803,41.0806118 C51.0934169,40.3480461 50.6861775,38.6726513 50.8286,38.3203487" id="Stroke-14" stroke="#FFAB3B" stroke-width="2"></path>
                        <path d="M56.9909338,31.6963882 L52.2854268,41.9869803" id="Stroke-16" stroke="#FFAB3B" stroke-width="2"></path>
                        <path d="M62.7488099,13.8524276 C60.8617113,18.0543355 55.9459085,19.9254539 51.7644718,18.0286118 C47.5841479,16.1340066 45.7226408,11.1905855 47.6097394,6.98867763 C49.4957254,2.78676974 54.4126408,0.915651316 58.5929648,2.81249342 C62.7732887,4.70821711 64.6336831,9.65051974 62.7488099,13.8524276" id="Fill-18" fill="#FFFFFF"></path>
                        <path d="M62.7488099,13.8524276 C60.8617113,18.0543355 55.9459085,19.9254539 51.7644718,18.0286118 C47.5841479,16.1340066 45.7226408,11.1905855 47.6097394,6.98867763 C49.4957254,2.78676974 54.4126408,0.915651316 58.5929648,2.81249342 C62.7732887,4.70821711 64.6336831,9.65051974 62.7488099,13.8524276 L62.7488099,13.8524276 Z" id="Stroke-20" stroke="#FFAB3B" stroke-width="2"></path>
                        <path d="M58.3981352,9.09209211 C58.3981352,9.09209211 58.6573887,7.52630263 56.8314873,6.67071053 C56.4809944,6.50518421 55.9847408,6.43584211 55.6019803,6.42801316 C55.2069803,6.42018421 54.816431,6.51525 54.4837408,6.73446053 C53.8472901,7.15498684 53.5068113,7.95689474 53.7393606,8.69952632 C53.9819239,9.46005263 54.4815155,9.92307895 55.1869521,10.2530132 C55.7243746,10.5057763 56.3285577,10.9475526 56.551093,11.5179474 C56.7613887,12.0559079 56.7057549,12.7280789 56.3686141,13.2022895 C56.1872479,13.4539342 55.8823746,13.7335395 55.5964169,13.8610395 C54.9143465,14.1686053 54.1855437,14.1607763 53.5068113,13.8409079 C52.1604732,13.209 51.8222197,11.7830132 51.9435014,11.4843947" id="Stroke-22" stroke="#FFAB3B" stroke-width="2"></path>
                        <path d="M57.2174746,5.87719079 L53.1651085,14.6098224" id="Stroke-24" stroke="#FFAB3B" stroke-width="2"></path>
                        <path d="M5.93445775,24.6751645 C3.27516197,24.6751645 1.11323239,26.8482566 1.11323239,29.5201645 L1.11323239,77.9175987 C1.11323239,80.5895066 3.27516197,82.7637171 5.93445775,82.7637171 L38.5269648,82.7637171 C41.1862606,82.7637171 43.3504155,80.5895066 43.3504155,77.9175987 L43.3504155,29.5201645 C43.3504155,26.8482566 41.1862606,24.6751645 38.5269648,24.6751645 L5.93445775,24.6751645 Z" id="Fill-26" fill="#FFFFFF"></path>
                        <path d="M5.93445775,24.6751645 C3.27516197,24.6751645 1.11323239,26.8482566 1.11323239,29.5201645 L1.11323239,77.9175987 C1.11323239,80.5895066 3.27516197,82.7637171 5.93445775,82.7637171 L38.5269648,82.7637171 C41.1862606,82.7637171 43.3504155,80.5895066 43.3504155,77.9175987 L43.3504155,29.5201645 C43.3504155,26.8482566 41.1862606,24.6751645 38.5269648,24.6751645 L5.93445775,24.6751645 L5.93445775,24.6751645 Z" id="Stroke-28" stroke="#FFAB3B" stroke-width="2"></path>
                        <mask id="mask-2" fill="white">
                            <use xlink:href="#path-1"></use>
                        </mask>
                        <g id="Clip-31"></g>
                        <polygon id="Fill-30" fill="#FFFFFF" mask="url(#mask-2)" points="4.31273239 75.5638816 40.1498028 75.5638816 40.1498028 31.875 4.31273239 31.875"></polygon>
                        <polygon id="Stroke-32" stroke="#FFAB3B" stroke-width="2" mask="url(#mask-2)" points="4.31273239 75.5638816 40.1498028 75.5638816 40.1498028 31.875 4.31273239 31.875"></polygon>
                        <path d="M23.3829986,79.0337829 C23.3829986,79.6724013 22.8678296,80.1913487 22.2313789,80.1913487 C21.5949282,80.1913487 21.0797592,79.6724013 21.0797592,79.0337829 C21.0797592,78.3940461 21.5949282,77.8762171 22.2313789,77.8762171 C22.8678296,77.8762171 23.3829986,78.3940461 23.3829986,79.0337829" id="Fill-33" fill="#FFAB3B" mask="url(#mask-2)"></path>
                        <path d="M27.2671282,47.7005461 C27.2671282,47.7005461 26.3458324,44.4179803 22.0186352,44.4381118 C21.1863535,44.4437039 20.1582408,44.7613355 19.4049592,45.1024539 C18.6305366,45.4525197 17.959593,45.9949539 17.5156352,46.7264013 C16.6611,48.133375 16.7267479,50.0044934 17.8650155,51.2325197 C19.0255366,52.4840329 20.4197197,52.9235724 22.0920718,52.9157434 C23.3660859,52.9112697 24.9394099,53.2132434 25.8963113,54.1158092 C26.7964662,54.9680461 27.3005085,56.3235724 27.0746352,57.5583092 C26.9522408,58.2137039 26.6162127,59.0357434 26.1811563,59.5457434 C25.1341282,60.7760066 23.7099028,61.4280461 22.0965225,61.4369934 C18.907593,61.4537697 16.9459451,58.9910066 16.9103394,58.2964671" id="Stroke-34" stroke="#FFAB3B" stroke-width="2" mask="url(#mask-2)"></path>
                        <path d="M22.0416676,42.5398158 L22.1384704,63.2462632" id="Stroke-35" stroke="#FFAB3B" stroke-width="2" mask="url(#mask-2)"></path>
                    </g>
                </g>
            </g>
        </g>
    </g>
</svg>