<?xml version="1.0" encoding="utf-8"?>
<!-- Generator: Adobe Illustrator 16.0.0, SVG Export Plug-In . SVG Version: 6.00 Build 0)  -->
<!DOCTYPE svg PUBLIC "-//W3C//DTD SVG 1.1//EN" "http://www.w3.org/Graphics/SVG/1.1/DTD/svg11.dtd">
<svg version="1.1" id="Layer_1" xmlns="http://www.w3.org/2000/svg" xmlns:xlink="http://www.w3.org/1999/xlink" x="0px" y="0px"
	 width="100px" height="100px" viewBox="-14.5 -5 100 100" enable-background="new -14.5 -5 100 100" xml:space="preserve">
<title>Group 8</title>
<desc>Created with Sketch.</desc>
<g id="_x30_1-Main">
	<g id="Component-_x26_-Comment" transform="translate(-115.000000, -1182.000000)">
		<g id="Group-8" transform="translate(99.000000, 1177.000000)">
			<g id="_x31_0122016-all-icon-fourleaf-_x28_1_x29_-09">
				<g id="Group">
					<g id="bg0_x25_" transform="translate(1.000000, 0.000000)" opacity="0">
						<rect id="XMLID_2366_" fill="none" width="100" height="100"/>
					</g>
					<g id="icon1-3" transform="translate(17.000000, 6.000000)">
						<g id="icon1fill">
							<path id="XMLID_2237_" fill="#FFFFFF" stroke="#1E7A9C" stroke-width="2" d="M25.797,20.968
								c-4.645-4.742-4.301-12.267,0.172-16.649c4.473-4.382,11.917-4.66,16.649,0.172c4.733,4.832,4.212,12.355-0.173,16.649"/>
							<g id="XMLID_2249_" transform="translate(16.000000, 21.000000)">
								<path id="XMLID_2253_" fill="#FFFFFF" stroke="#1E7A9C" stroke-width="2" d="M5.733,0.079c-3.033,0-5.501,2.467-5.501,5.498
									v54.928c0,3.031,2.468,5.499,5.501,5.499h24.994c3.033,0,5.502-2.467,5.502-5.499V5.577c0-3.031-2.469-5.498-5.502-5.498
									H5.733L5.733,0.079z"/>
								<path id="XMLID_2252_" fill="none" stroke="#1E7A9C" stroke-width="2" d="M16.036,3.405h4.637"/>
								<path id="XMLID_2250_" fill="#FFFFFF" stroke="#1E7A9C" stroke-width="2" d="M3.635,6.298c-1.879,0-3.402,1.236-3.402,2.761
									v47.966c0,1.523,1.522,2.759,3.399,2.759h29.194c1.879,0,3.402-1.236,3.402-2.761V9.057c0-1.523-1.521-2.758-3.399-2.758
									L3.635,6.298L3.635,6.298z"/>
							</g>
							<g id="XMLID_2265_" transform="translate(29.000000, 5.000000)">
								<g id="XMLID_2266_">
									<path id="XMLID_2268_" fill="none" stroke="#1D799C" stroke-width="2" d="M7.512,2.289c0,0-1.892-2.02-5.021-0.382
										C1.889,2.222,1.264,2.838,0.844,3.365c-0.43,0.541-0.712,1.187-0.762,1.881c-0.095,1.333,0.651,2.656,1.932,3.116
										c1.31,0.469,2.484,0.261,3.692-0.371c0.92-0.482,2.176-0.855,3.203-0.562c0.972,0.277,1.843,1.064,2.139,2.039
										c0.158,0.519,0.22,1.237,0.095,1.77c-0.302,1.279-1.088,2.283-2.254,2.893c-2.306,1.207-4.644,0.167-4.927-0.319"/>
									<path id="XMLID_2267_" fill="none" stroke="#1D799C" stroke-width="2" d="M1.8,0.529l7.794,14.888"/>
								</g>
							</g>
							<polyline id="XMLID_2264_" fill="none" stroke="#1E7A9C" stroke-width="2" points="60.82,84.094 60.82,78.723 66.193,78.723 
															"/>
							<polyline id="XMLID_2263_" fill="none" stroke="#1E7A9C" stroke-width="2" points="8.5,10.627 8.5,16 3.127,16 							"/>
							<path id="XMLID_2262_" fill="none" stroke="#1D799C" stroke-width="2" d="M60.473,13.628l-0.066,5.324"/>
							<path id="XMLID_2261_" fill="none" stroke="#1D799C" stroke-width="2" d="M57.896,16.327l5.237,0.066"/>
							<path id="XMLID_2260_" fill="none" stroke="#1D799C" stroke-width="2" d="M7.068,66.584v5.325"/>
							<path id="XMLID_2259_" fill="none" stroke="#1D799C" stroke-width="2" d="M4.526,69.314h5.237"/>
							<path id="XMLID_2258_" fill="none" stroke="#1E7A9C" stroke-width="2" d="M61.622,44.166c0,0,4.305,4.87-0.552,9.727"/>
							<path id="XMLID_2257_" fill="none" stroke="#1E7A9C" stroke-width="2" d="M65.434,40.629c0,0,7.383,8.352-0.945,16.68"/>
							<path id="XMLID_2256_" fill="none" stroke="#1E7A9C" stroke-width="2" d="M6.934,45.288c0,0-4.305,4.871,0.551,9.726"/>
							<path id="XMLID_2255_" fill="none" stroke="#1E7A9C" stroke-width="2" d="M3.123,41.751c0,0-7.383,8.353,0.944,16.679"/>
							<g id="XMLID_2238_" transform="translate(20.000000, 38.000000)">
								<path id="XMLID_2248_" fill="none" stroke="#1E7A9C" stroke-width="2" d="M5.986,5.079v6.462
									c0,1.537,1.246,2.782,2.782,2.782c1.537,0,2.782-1.246,2.782-2.782V5.079H5.986L5.986,5.079z"/>
								<path id="XMLID_2247_" fill="none" stroke="#1E7A9C" stroke-width="2" d="M11.551,5.079v6.462
									c0,1.537,1.246,2.782,2.782,2.782c1.537,0,2.783-1.246,2.783-2.782V5.079H11.551L11.551,5.079z"/>
								<path id="XMLID_2246_" fill="none" stroke="#1E7A9C" stroke-width="2" d="M17.116,5.079v6.462
									c0,1.537,1.245,2.782,2.782,2.782c1.535,0,2.783-1.246,2.783-2.782V5.079H17.116L17.116,5.079z"/>
								<polyline id="XMLID_2245_" fill="none" stroke="#1E7A9C" stroke-width="2" points="1.519,5.016 1.519,0.665 27.066,0.665 
									27.066,5.103 								"/>
								<path id="XMLID_2244_" fill="none" stroke="#1E7A9C" stroke-width="2" d="M21.641,29.134v-7.022
									c0-1.67-1.244-3.024-2.781-3.024s-2.782,1.354-2.782,3.024v7.022H21.641L21.641,29.134z"/>
								<rect id="XMLID_2243_" x="5.127" y="17.658" fill="none" stroke="#1E7A9C" stroke-width="2" width="7.405" height="4.261"/>
								<path id="XMLID_2239_" fill="none" stroke="#1E7A9C" stroke-width="2" d="M5.986,5.079v6.462
									c0,1.537-1.246,2.782-2.782,2.782c-1.537,0-2.782-1.246-2.782-2.782V5.079H5.986L5.986,5.079z M22.682,5.079v6.462
									c0,1.537,1.244,2.782,2.781,2.782c1.536,0,2.782-1.246,2.782-2.782V5.079H22.682L22.682,5.079z M1.585,13.643v15.584h25.549
									V13.948L1.585,13.643z"/>
							</g>
						</g>
					</g>
				</g>
			</g>
		</g>
	</g>
</g>
</svg>
