<?xml version="1.0" encoding="UTF-8" standalone="no"?>
<svg width="82px" height="76px" viewBox="0 0 82 76" version="1.1" xmlns="http://www.w3.org/2000/svg" xmlns:xlink="http://www.w3.org/1999/xlink">
    <!-- Generator: Sketch 40.3 (33839) - http://www.bohemiancoding.com/sketch -->
    <title>Group 5</title>
    <desc>Created with Sketch.</desc>
    <defs>
        <polygon id="path-1" points="0 75.9305556 81.5037403 75.9305556 81.5037403 0.590333333 0 0.590333333"></polygon>
    </defs>
    <g id="01-Main" stroke="none" stroke-width="1" fill="none" fill-rule="evenodd">
        <g id="Component-&amp;-Comment" transform="translate(-296.000000, -1190.000000)">
            <g id="Group-5" transform="translate(284.000000, 1178.000000)">
                <rect id="Rectangle-13-Copy" x="0" y="0" width="100" height="100"></rect>
                <g id="Page-1" transform="translate(12.000000, 11.000000)">
                    <polygon id="Fill-1" fill="#FFFFFF" points="21.4232987 61.8526028 69.389039 61.8526028 69.389039 14.3457417 21.4232987 14.3457417"></polygon>
                    <polygon id="Stroke-2" stroke="#1E7A9C" stroke-width="2" stroke-linecap="round" stroke-linejoin="round" points="21.4232987 61.8526028 69.389039 61.8526028 69.389039 14.3457417 21.4232987 14.3457417"></polygon>
                    <polygon id="Stroke-3" stroke="#1E7A9C" stroke-width="2" stroke-linecap="round" stroke-linejoin="round" points="50.4310649 56.7727417 64.3263377 56.7727417 64.3263377 42.8186306 50.4310649 42.8186306"></polygon>
                    <polygon id="Stroke-4" stroke="#1E7A9C" stroke-width="2" stroke-linecap="round" stroke-linejoin="round" points="50.4310649 33.2995056 64.3263377 33.2995056 64.3263377 19.3453944 50.4310649 19.3453944"></polygon>
                    <polygon id="Stroke-5" stroke="#1E7A9C" stroke-width="2" stroke-linecap="round" stroke-linejoin="round" points="26.5722597 33.2995056 40.4664675 33.2995056 40.4664675 19.3453944 26.5722597 19.3453944"></polygon>
                    <polygon id="Fill-6" fill="#1E7A9C" points="55.2264675 28.4827278 59.5309351 28.4827278 59.5309351 24.1611028 55.2264675 24.1611028"></polygon>
                    <polygon id="Stroke-7" stroke="#1E7A9C" stroke-width="2" stroke-linecap="round" stroke-linejoin="round" points="55.2264675 28.4827278 59.5309351 28.4827278 59.5309351 24.1611028 55.2264675 24.1611028"></polygon>
                    <polygon id="Fill-8" fill="#1E7A9C" points="55.2264675 51.9581028 59.5309351 51.9581028 59.5309351 47.6354083 55.2264675 47.6354083"></polygon>
                    <polygon id="Stroke-9" stroke="#1E7A9C" stroke-width="2" stroke-linecap="round" stroke-linejoin="round" points="55.2264675 51.9581028 59.5309351 51.9581028 59.5309351 47.6354083 55.2264675 47.6354083"></polygon>
                    <polygon id="Stroke-10" stroke="#1E7A9C" stroke-width="2" stroke-linecap="round" stroke-linejoin="round" points="26.5722597 56.7727417 40.4664675 56.7727417 40.4664675 42.8186306 26.5722597 42.8186306"></polygon>
                    <polygon id="Fill-11" fill="#1E7A9C" points="31.3665974 51.9581028 35.6710649 51.9581028 35.6710649 47.6354083 31.3665974 47.6354083"></polygon>
                    <polygon id="Stroke-12" stroke="#1E7A9C" stroke-width="2" stroke-linecap="round" stroke-linejoin="round" points="31.3665974 51.9581028 35.6710649 51.9581028 35.6710649 47.6354083 31.3665974 47.6354083"></polygon>
                    <polygon id="Fill-13" fill="#1E7A9C" points="31.3665974 28.4827278 35.6710649 28.4827278 35.6710649 24.1611028 31.3665974 24.1611028"></polygon>
                    <polygon id="Stroke-14" stroke="#1E7A9C" stroke-width="2" stroke-linecap="round" stroke-linejoin="round" points="31.3665974 28.4827278 35.6710649 28.4827278 35.6710649 24.1611028 31.3665974 24.1611028"></polygon>
                    <path d="M64.3261247,40.1275875 L64.3261247,36.0722542" id="Stroke-15" stroke="#1E7A9C" stroke-width="2" stroke-linecap="round" stroke-linejoin="round"></path>
                    <polyline id="Stroke-16" stroke="#1E7A9C" stroke-width="2" stroke-linecap="round" stroke-linejoin="round" points="58.5095558 38.0999208 58.5095558 36.0722542 53.2349325 36.0722542"></polyline>
                    <polyline id="Stroke-17" stroke="#1E7A9C" stroke-width="2" stroke-linecap="round" stroke-linejoin="round" points="56.4909714 40.1275875 46.8064519 40.1275875 46.8064519 38.0999208"></polyline>
                    <path d="M46.8066649,34.7887069 L46.8066649,29.0821514" id="Stroke-18" stroke="#1E7A9C" stroke-width="2" stroke-linecap="round" stroke-linejoin="round"></path>
                    <path d="M61.2498468,38.7411597 L61.2498468,37.4578264" id="Stroke-19" stroke="#1E7A9C" stroke-width="2" stroke-linecap="round" stroke-linejoin="round"></path>
                    <polyline id="Stroke-20" stroke="#1E7A9C" stroke-width="2" stroke-linecap="round" stroke-linejoin="round" points="46.8066649 25.8362806 46.8066649 22.208725 44.4307948 22.208725"></polyline>
                    <path d="M43.426774,30.2258153 L43.426774,25.8368153" id="Stroke-21" stroke="#1E7A9C" stroke-width="2" stroke-linecap="round" stroke-linejoin="round"></path>
                    <path d="M47.3432857,19.3449667 L43.467987,19.3449667" id="Stroke-22" stroke="#1E7A9C" stroke-width="2" stroke-linecap="round" stroke-linejoin="round"></path>
                    <path d="M26.486639,36.0707569 L26.486639,40.1260903" id="Stroke-23" stroke="#1E7A9C" stroke-width="2" stroke-linecap="round" stroke-linejoin="round"></path>
                    <polyline id="Stroke-24" stroke="#1E7A9C" stroke-width="2" stroke-linecap="round" stroke-linejoin="round" points="32.3026753 38.0978889 32.3026753 40.1255556 37.5783636 40.1255556"></polyline>
                    <polyline id="Stroke-25" stroke="#1E7A9C" stroke-width="2" stroke-linecap="round" stroke-linejoin="round" points="34.3217922 36.0707569 44.0063117 36.0707569 44.0063117 38.0984236"></polyline>
                    <path d="M44.0060987,41.4080333 L44.0060987,47.1156583" id="Stroke-26" stroke="#1E7A9C" stroke-width="2" stroke-linecap="round" stroke-linejoin="round"></path>
                    <path d="M41.1211896,38.8425431 L41.1211896,40.1258764" id="Stroke-27" stroke="#1E7A9C" stroke-width="2" stroke-linecap="round" stroke-linejoin="round"></path>
                    <path d="M29.5629169,37.4561153 L29.5629169,38.7394486" id="Stroke-28" stroke="#1E7A9C" stroke-width="2" stroke-linecap="round" stroke-linejoin="round"></path>
                    <polyline id="Stroke-29" stroke="#1E7A9C" stroke-width="2" stroke-linecap="round" stroke-linejoin="round" points="44.0060987 50.3604597 44.0060987 53.9880153 46.3819688 53.9880153"></polyline>
                    <path d="M47.3849247,45.970925 L47.3849247,50.359925" id="Stroke-30" stroke="#1E7A9C" stroke-width="2" stroke-linecap="round" stroke-linejoin="round"></path>
                    <path d="M43.4693714,56.8528431 L47.3446701,56.8528431" id="Stroke-31" stroke="#1E7A9C" stroke-width="2" stroke-linecap="round" stroke-linejoin="round"></path>
                    <g id="Group-53" transform="translate(0.000000, 0.479325)">
                        <path d="M7.14827013,1.65956389 C3.79372468,1.65956389 1.06536104,4.39841111 1.06536104,7.76502222 L1.06536104,68.7554389 C1.06536104,72.1209806 3.79372468,74.8608972 7.14827013,74.8608972 L34.7833351,74.8608972 C38.1378805,74.8608972 40.8673091,72.1209806 40.8673091,68.7554389 L40.8673091,7.76502222 C40.8673091,4.39841111 38.1378805,1.65956389 34.7833351,1.65956389 L7.14827013,1.65956389 L7.14827013,1.65956389 Z" id="Fill-32" fill="#FFFFFF"></path>
                        <path d="M7.14827013,1.65956389 C3.79372468,1.65956389 1.06536104,4.39841111 1.06536104,7.76502222 L1.06536104,68.7554389 C1.06536104,72.1209806 3.79372468,74.8608972 7.14827013,74.8608972 L34.7833351,74.8608972 C38.1378805,74.8608972 40.8673091,72.1209806 40.8673091,68.7554389 L40.8673091,7.76502222 C40.8673091,4.39841111 38.1378805,1.65956389 34.7833351,1.65956389 L7.14827013,1.65956389 L7.14827013,1.65956389 Z" id="Stroke-34" stroke="#1E7A9C" stroke-width="2"></path>
                        <path d="M18.2624649,5.3524625 L23.3901273,5.3524625" id="Stroke-36" stroke="#1E7A9C" stroke-width="2" stroke-linecap="round"></path>
                        <path d="M4.82756364,8.56603611 C2.74987532,8.56603611 1.06514805,9.93920278 1.06514805,11.6310639 L1.06514805,64.8915361 C1.06514805,66.5844667 2.74668052,67.9554944 4.82543377,67.9554944 L37.1046805,67.9554944 C39.1823688,67.9554944 40.8670961,66.5823278 40.8670961,64.8893972 L40.8670961,11.6278556 C40.8670961,9.93706389 39.1834338,8.56603611 37.1078753,8.56603611 L4.82756364,8.56603611 L4.82756364,8.56603611 Z" id="Stroke-38" stroke="#1E7A9C" stroke-width="2"></path>
                        <polyline id="Stroke-40" stroke="#1D799C" stroke-width="2" points="5.00285195 26.9476472 5.00285195 22.3682861 9.83978701 22.3682861"></polyline>
                        <polyline id="Stroke-42" stroke="#1D799C" stroke-width="2" points="36.9289662 26.9476472 36.9289662 22.3682861 32.0920312 22.3682861"></polyline>
                        <polyline id="Stroke-44" stroke="#1D799C" stroke-width="2" points="36.9289662 49.5724931 36.9289662 54.1518542 32.0920312 54.1518542"></polyline>
                        <polyline id="Stroke-46" stroke="#1D799C" stroke-width="2" points="5.00285195 49.5724931 5.00285195 54.1518542 9.83978701 54.1518542"></polyline>
                        <mask id="mask-2" fill="white">
                            <use xlink:href="#path-1"></use>
                        </mask>
                        <g id="Clip-49"></g>
                        <polygon id="Stroke-48" stroke="#1E7A9C" stroke-width="2" mask="url(#mask-2)" points="10.1786494 49.1719861 31.782987 49.1719861 31.782987 27.4761667 10.1786494 27.4761667"></polygon>
                        <path d="M80.4390182,13.8667375 C80.4390182,7.62332083 75.3997455,2.56057083 69.1815896,2.56057083 C62.9634338,2.56057083 57.9230961,7.62332083 57.9230961,13.8667375 C57.9230961,20.1101542 62.9634338,25.1729042 69.1815896,25.1729042 C75.3997455,25.1729042 80.4390182,20.1101542 80.4390182,13.8667375" id="Fill-50" fill="#FFFFFF" mask="url(#mask-2)"></path>
                        <path d="M80.4390182,13.8667375 C80.4390182,7.62332083 75.3997455,2.56057083 69.1815896,2.56057083 C62.9634338,2.56057083 57.9230961,7.62332083 57.9230961,13.8667375 C57.9230961,20.1101542 62.9634338,25.1729042 69.1815896,25.1729042 C75.3997455,25.1729042 80.4390182,20.1101542 80.4390182,13.8667375 L80.4390182,13.8667375 Z" id="Stroke-51" stroke="#1E7A9C" stroke-width="2" stroke-linecap="round" stroke-linejoin="round" mask="url(#mask-2)"></path>
                        <polyline id="Stroke-52" stroke="#1E7A9C" stroke-width="2" stroke-linecap="round" stroke-linejoin="round" mask="url(#mask-2)" points="75.4694987 9.30277639 66.2066935 18.6037347 63.3313688 15.7151653"></polyline>
                    </g>
                </g>
            </g>
        </g>
    </g>
</svg>