<?xml version="1.0" encoding="utf-8"?>
<!-- Generator: Adobe Illustrator 16.0.0, SVG Export Plug-In . SVG Version: 6.00 Build 0)  -->
<!DOCTYPE svg PUBLIC "-//W3C//DTD SVG 1.1//EN" "http://www.w3.org/Graphics/SVG/1.1/DTD/svg11.dtd">
<svg version="1.1" id="Layer_1" xmlns="http://www.w3.org/2000/svg" xmlns:xlink="http://www.w3.org/1999/xlink" x="0px" y="0px"
	 width="100px" height="100px" viewBox="-17 -11.5 100 100" enable-background="new -17 -11.5 100 100" xml:space="preserve">
<title>10122016-all-icon-fourleaf (1)-11</title>
<desc>Created with Sketch.</desc>
<g id="_x30_1-Main">
	<g id="Component-_x26_-Comment" transform="translate(-487.000000, -1190.000000)">
		<g id="_x31_0122016-all-icon-fourleaf-_x28_1_x29_-11" transform="translate(469.000000, 1177.000000)">
			<g id="Group">
				<g id="icon1-3">
					<rect id="XMLID_2399_" x="0.021" fill="none" width="100" height="100"/>
					<g id="icon3fill" transform="translate(19.000000, 14.000000)">
						<path id="XMLID_1428_" fill="#FFFFFF" stroke="#1E7A9C" stroke-width="2" d="M56.298,7.951c-6.278,0-24.37-7.547-24.37-7.547
							S15.524,7.951,9.757,7.951c-2.423,0-4.76-0.369-6.958-1.051c-1.25,3.381-2.004,6.998-2.004,10.8v25.157
							c0,17.295,14.151,31.447,31.446,31.447h0.001c17.295,0,31.445-14.152,31.445-31.447V17.699c0-3.664-0.696-7.155-1.862-10.432
							C60.05,7.698,58.206,7.951,56.298,7.951L56.298,7.951z"/>
						<g id="XMLID_1429_" transform="translate(14.000000, 12.000000)">
							<path id="XMLID_1445_" fill="none" stroke="#1E7A9C" stroke-width="2" d="M11.041,16.951
								c-0.12,0.069-0.266-0.013-0.265-0.152l0.022-3.693c0-3.939,3.27-7.222,7.304-7.222l0,0c4.035,0,7.304,3.532,7.304,7.222
								l-0.073,3.478C22.453,15.274,14.632,14.879,11.041,16.951L11.041,16.951z"/>
							<path id="XMLID_1446_" fill="none" stroke="#1E7A9C" stroke-width="2" d="M5.237,20.805l-0.133-7.279
								c0-7.319,5.934-13.253,13.253-13.253l0,0c7.319,0,13.252,5.934,13.252,13.253l-0.012,7.279
								C25.395,13.717,11.993,13.828,5.237,20.805L5.237,20.805z"/>
							<circle id="XMLID_1447_" fill="none" stroke="#1E7A9C" stroke-width="2" cx="18.521" cy="33.714" r="18.355"/>
							<polyline id="XMLID_1448_" fill="none" stroke="#1E7A9C" stroke-width="2" points="28.773,26.305 13.672,41.405 
								8.982,36.715 							"/>
						</g>
					</g>
				</g>
			</g>
		</g>
	</g>
</g>
</svg>
