<?xml version="1.0" encoding="utf-8"?>
<!-- Generator: Adobe Illustrator 16.0.0, SVG Export Plug-In . SVG Version: 6.00 Build 0)  -->
<!DOCTYPE svg PUBLIC "-//W3C//DTD SVG 1.1//EN" "http://www.w3.org/Graphics/SVG/1.1/DTD/svg11.dtd">
<svg version="1.1" id="Layer_1" xmlns="http://www.w3.org/2000/svg" xmlns:xlink="http://www.w3.org/1999/xlink" x="0px" y="0px"
	 width="100px" height="100px" viewBox="-10 -11 100 100" enable-background="new -10 -11 100 100" xml:space="preserve">
<title>10122016-all-icon-fourleaf (1)-16</title>
<desc>Created with Sketch.</desc>
<g id="_x30_1-Main">
	<g id="Component-_x26_-Comment" transform="translate(-111.000000, -1490.000000)">
		<g id="_x31_0122016-all-icon-fourleaf-_x28_1_x29_-16" transform="translate(101.000000, 1479.000000)">
			<g id="Group_1_">
				<g id="bg0_x25_" opacity="0">
					<rect id="XMLID_2316_" fill="none" width="100" height="100"/>
				</g>
				<g id="Layer_2" transform="translate(11.000000, 12.000000)">
					<g id="Group">
						<path id="Shape" fill="#4192B1" d="M57.598,0.013H22.275v6.854h-6.041V38.58l0.027,6.167c-0.016,0-0.031-0.002-0.046-0.002
							c-8.628,0-15.622,6.994-15.622,15.622s6.993,15.622,15.622,15.622c0.063,0,0.125-0.009,0.188-0.009v0.009h53.929V70.01H77.5
							V19.602L57.598,0.013L57.598,0.013z"/>
						<g>
							<g id="XMLID_1535_" transform="translate(34.000000, 17.000000)">
								<path id="XMLID_1536_" fill="none" stroke="#FFFFFF" stroke-width="2" d="M0.889,0.368h10.616"/>
							</g>
							<circle id="XMLID_1533_" fill="#FFFFFF" cx="27.085" cy="17.368" r="1.847"/>
							<g id="XMLID_1531_" transform="translate(34.000000, 26.000000)">
								<path id="XMLID_1532_" fill="none" stroke="#FFFFFF" stroke-width="2" d="M0.889,0.195h10.616"/>
							</g>
							<circle id="XMLID_1530_" fill="#FFFFFF" cx="27.085" cy="26.195" r="1.847"/>
							<g id="XMLID_1528_" transform="translate(34.000000, 35.000000)">
								<path id="XMLID_1529_" fill="none" stroke="#FFFFFF" stroke-width="2" d="M0.889,0.023H27.66"/>
							</g>
							<g id="XMLID_1525_" transform="translate(41.000000, 43.000000)">
								<path id="XMLID_1527_" fill="none" stroke="#FFFFFF" stroke-width="2" d="M0.223,0.375H20.66"/>
							</g>
							<circle id="XMLID_1524_" fill="#FFFFFF" cx="27.085" cy="35.023" r="1.847"/>
							<g id="XMLID_1520_" transform="translate(16.000000, 6.000000)">
								<polyline id="XMLID_1522_" fill="none" stroke="#FFFFFF" stroke-width="2" points="0.141,32.58 0.141,0.866 37.807,0.866 
									54.238,16.985 54.238,69.986 0.31,69.986 								"/>
								<polyline id="Shape_1_" fill="none" stroke="#FFFFFF" stroke-width="2" points="37.807,0.866 37.752,16.917 54.238,16.985 
																	"/>
							</g>
							<g id="XMLID_1516_" transform="translate(22.000000, 0.000000)">
								<polyline id="XMLID_1519_" fill="none" stroke="#FFFFFF" stroke-width="2" points="0.182,6.866 0.182,0.013 35.503,0.013 
									55.406,19.602 55.406,70.01 48.238,70.01 								"/>
							</g>
							<g transform="translate(0.000000, 37.000000)">
								<path id="Shape_2_" fill="none" stroke="#FFFFFF" stroke-width="2" d="M24.008,15.665l-7.887,7.701"/>
								<path id="Shape_3_" fill="none" stroke="#FFFFFF" stroke-width="2" d="M16.122,7.744v-7.48"/>
								<path id="Shape_4_" fill="none" stroke="#FFFFFF" stroke-width="2" d="M11.535,0.264h9.16"/>
								<path id="Shape_5_" fill="none" stroke="#FFFFFF" stroke-width="2" d="M28.935,6.167l4.38,4.38"/>
								<circle id="Oval" fill="none" stroke="#FFFFFF" stroke-width="2" cx="16.121" cy="23.366" r="15.621"/>
							</g>
						</g>
					</g>
				</g>
			</g>
		</g>
	</g>
</g>
</svg>
