<?xml version="1.0" encoding="utf-8"?>
<!-- Generator: Adobe Illustrator 16.0.0, SVG Export Plug-In . SVG Version: 6.00 Build 0)  -->
<!DOCTYPE svg PUBLIC "-//W3C//DTD SVG 1.1//EN" "http://www.w3.org/Graphics/SVG/1.1/DTD/svg11.dtd">
<svg version="1.1" id="Layer_1" xmlns="http://www.w3.org/2000/svg" xmlns:xlink="http://www.w3.org/1999/xlink" x="0px" y="0px"
	 width="100px" height="100px" viewBox="-7 -7.5 100 100" enable-background="new -7 -7.5 100 100" xml:space="preserve">
<title>10122016-all-icon-fourleaf (1)-14</title>
<desc>Created with Sketch.</desc>
<g id="_x30_1-Main">
	<g id="Component-_x26_-Comment" transform="translate(-478.000000, -1335.000000)">
		<g id="_x31_0122016-all-icon-fourleaf-_x28_1_x29_-14" transform="translate(469.000000, 1328.000000)">
			<g id="Group">
				<g id="bg0_x25_" opacity="0">
					<rect id="XMLID_2387_" x="0.854" fill="none" width="100" height="100"/>
				</g>
				<g id="icon4-6" transform="translate(10.000000, 9.000000)">
					<g id="icon6fill">
						<polyline id="XMLID_1481_" fill="#FFFFFF" stroke="#FFAB3B" stroke-width="2" points="27.474,4.24 20.839,4.24 20.839,47.966 
							27.5,47.966 						"/>
						<polyline id="XMLID_1494_" fill="#FFFFFF" stroke="#FFAB3B" stroke-width="2" points="68.486,52.514 68.486,13.038 
							55.93,0.72 27.146,0.72 27.146,46.499 						"/>
						<path id="XMLID_1717_" fill="#FFFFFF" stroke="#FFAB3B" stroke-width="2" d="M9.893,62.24c0.184,0,0.362,0.018,0.543,0.027
							c1.021-8.713,8.398-15.479,17.375-15.522c4.039-6.173,11.01-10.255,18.938-10.255c10.541,0,19.397,7.21,21.908,16.968
							c0.099-0.002,0.194-0.015,0.293-0.015c7.866,0,14.241,6.375,14.241,14.242c0,7.866-6.375,14.242-14.241,14.242H9.893
							c-5.437,0-9.844-4.406-9.844-9.844S4.456,62.24,9.893,62.24L9.893,62.24z"/>
						<g id="XMLID_1651_" transform="translate(34.000000, 42.000000)">
							<path id="XMLID_1716_" fill="none" stroke="#FFAB3B" stroke-width="2" d="M7.479,12.053l0.015-2.604
								c0-2.641,2.166-4.782,4.837-4.782l0,0c2.671,0,4.836,2.142,4.836,4.782v2.165C16.061,11.025,9.826,10.586,7.479,12.053
								L7.479,12.053z"/>
							<path id="XMLID_1715_" fill="none" stroke="#FFAB3B" stroke-width="2" d="M3.812,14.546L3.724,9.727
								c0-4.847,3.929-8.775,8.775-8.775l0,0c4.847,0,8.774,3.929,8.774,8.775l-0.008,4.819C17.16,9.854,8.286,9.926,3.812,14.546
								L3.812,14.546z"/>
							<circle id="XMLID_1714_" fill="none" stroke="#FFAB3B" stroke-width="2" cx="12.607" cy="23.094" r="12.154"/>
							<polyline id="XMLID_1713_" fill="none" stroke="#FFAB3B" stroke-width="2" points="19.396,18.188 9.398,28.186 6.292,25.081 
															"/>
						</g>
						<polygon id="XMLID_1496_" fill="none" stroke="#FFAB3B" stroke-width="2" points="68.432,13.262 55.943,13.262 55.943,0.775 
													"/>
					</g>
				</g>
			</g>
		</g>
	</g>
</g>
</svg>
