<?xml version="1.0" encoding="utf-8"?>
<!-- Generator: Adobe Illustrator 16.0.0, SVG Export Plug-In . SVG Version: 6.00 Build 0)  -->
<!DOCTYPE svg PUBLIC "-//W3C//DTD SVG 1.1//EN" "http://www.w3.org/Graphics/SVG/1.1/DTD/svg11.dtd">
<svg version="1.1" id="Layer_1" xmlns="http://www.w3.org/2000/svg" xmlns:xlink="http://www.w3.org/1999/xlink" x="0px" y="0px"
	 width="100px" height="100px" viewBox="-12.5 -16 100 100" enable-background="new -12.5 -16 100 100" xml:space="preserve">
<title>Group 4</title>
<desc>Created with Sketch.</desc>
<g id="_x30_1-Main">
	<g id="Component-_x26_-Comment" transform="translate(-299.000000, -1345.000000)">
		<g id="Group-4" transform="translate(286.000000, 1328.000000)">
			<rect id="Rectangle-13-Copy-4" fill="none" width="100" height="100"/>
			<g id="Group-3" transform="translate(14.000000, 17.000000)">
				<g id="Page-1">
					<polygon id="Fill-1" fill="#FFFFFF" points="0,66.067 57.045,66.067 57.045,1.116 0,1.116 					"/>
					<g id="Group-32" transform="translate(0.000000, 0.183803)">
						<polygon id="Stroke-2" fill="none" stroke="#FFAB3B" stroke-width="2" points="0,65.884 57.045,65.884 57.045,0.932 0,0.932 
													"/>
						<path id="Stroke-4" fill="none" stroke="#FFAB3B" stroke-width="2" d="M24.319,46.073c0,0-0.644-2.428-3.866-2.468
							c-0.62-0.01-1.389,0.213-1.953,0.453c-0.578,0.246-1.086,0.641-1.426,1.174c-0.655,1.022-0.629,2.4,0.201,3.318
							c0.848,0.939,1.88,1.277,3.125,1.295c0.947,0.011,2.117,0.254,2.814,0.931c0.66,0.639,1.018,1.644,0.834,2.55
							c-0.099,0.48-0.361,1.082-0.692,1.453c-0.796,0.891-1.863,1.353-3.062,1.338c-2.375-0.029-3.8-1.867-3.817-2.377"/>
						<path id="Stroke-5" fill="none" stroke="#FFAB3B" stroke-width="2" d="M20.496,42.207l-0.193,15.242"/>
						<polygon id="Fill-6" fill="#FFFFFF" points="39.844,59.869 72.387,59.869 72.387,6.348 39.844,6.348 						"/>
						<polygon id="Stroke-7" fill="none" stroke="#FFAB3B" stroke-width="2" points="39.844,59.869 72.387,59.869 72.387,6.348 
							39.844,6.348 						"/>
						<g id="Group-10" transform="translate(51.661538, 36.850000)">
							<path id="Fill-8" fill="#FFFFFF" d="M8.438,3.214c0,0-0.643-2.428-3.864-2.467C3.953,0.74,3.184,0.961,2.62,1.201
								C2.04,1.447,1.535,1.841,1.194,2.374c-0.654,1.023-0.629,2.4,0.201,3.318C2.241,6.632,3.274,6.971,4.52,6.987
								c0.947,0.011,2.117,0.255,2.814,0.932c0.659,0.64,1.016,1.644,0.833,2.55c-0.098,0.48-0.36,1.082-0.69,1.452
								c-0.797,0.892-1.863,1.354-3.062,1.339c-2.375-0.031-3.801-1.868-3.817-2.377"/>
							<path id="Stroke-9" fill="none" stroke="#FFAB3B" stroke-width="2" d="M8.438,3.214c0,0-0.643-2.428-3.864-2.467
								C3.953,0.74,3.184,0.961,2.62,1.201C2.04,1.447,1.535,1.841,1.194,2.374c-0.654,1.023-0.629,2.4,0.201,3.318
								C2.241,6.632,3.274,6.971,4.52,6.987c0.947,0.011,2.117,0.255,2.814,0.932c0.659,0.64,1.016,1.644,0.833,2.55
								c-0.098,0.48-0.36,1.082-0.69,1.452c-0.797,0.892-1.863,1.354-3.062,1.339c-2.375-0.031-3.801-1.868-3.817-2.377"/>
						</g>
						<g id="Group-13" transform="translate(56.044658, 35.733333)">
							<path id="Fill-11" fill="#FFFFFF" d="M0.233,0.466L0.039,15.708"/>
							<path id="Stroke-12" fill="none" stroke="#FFAB3B" stroke-width="2" d="M0.233,0.466L0.039,15.708"/>
						</g>
						<path id="Fill-14" fill="#1E7A9C" d="M13.581,9.865h18.451"/>
						<path id="Fill-15" fill="#1E7A9C" d="M9.181,9.866c0-0.863-0.706-1.564-1.574-1.564c-0.87,0-1.575,0.701-1.575,1.564
							c0,0.865,0.705,1.564,1.575,1.564C8.476,11.43,9.181,10.73,9.181,9.866"/>
						<path id="Fill-16" fill="#1E7A9C" d="M13.581,17.346h18.451"/>
						<path id="Fill-17" fill="#1E7A9C" d="M9.181,17.346c0-0.864-0.706-1.564-1.574-1.564c-0.87,0-1.575,0.7-1.575,1.564
							s0.705,1.564,1.575,1.564C8.476,18.911,9.181,18.211,9.181,17.346"/>
						<path id="Fill-18" fill="#1E7A9C" d="M13.581,24.827h18.451"/>
						<path id="Fill-19" fill="#1E7A9C" d="M9.181,24.827c0-0.864-0.706-1.564-1.574-1.564c-0.87,0-1.575,0.7-1.575,1.564
							s0.705,1.564,1.575,1.564C8.476,26.392,9.181,25.692,9.181,24.827"/>
						<path id="Stroke-20" fill="none" stroke="#FFAB3B" stroke-width="2" d="M13.581,9.865h18.451"/>
						<path id="Fill-21" fill="#FFAB3B" d="M9.181,9.866c0-0.863-0.706-1.564-1.574-1.564c-0.87,0-1.575,0.701-1.575,1.564
							c0,0.865,0.705,1.564,1.575,1.564C8.476,11.43,9.181,10.73,9.181,9.866"/>
						<path id="Stroke-22" fill="none" stroke="#FFAB3B" stroke-width="2" d="M13.581,17.346h18.451"/>
						<path id="Fill-23" fill="#FFAB3B" d="M9.181,17.346c0-0.864-0.706-1.564-1.574-1.564c-0.87,0-1.575,0.7-1.575,1.564
							s0.705,1.564,1.575,1.564C8.476,18.911,9.181,18.211,9.181,17.346"/>
						<path id="Stroke-24" fill="none" stroke="#FFAB3B" stroke-width="2" d="M13.581,24.827h18.451"/>
						<path id="Fill-25" fill="#FFAB3B" d="M9.181,24.827c0-0.864-0.706-1.564-1.574-1.564c-0.87,0-1.575,0.7-1.575,1.564
							s0.705,1.564,1.575,1.564C8.476,26.392,9.181,25.692,9.181,24.827"/>
						<path id="Stroke-26" fill="none" stroke="#FFAB3B" stroke-width="2" d="M50.166,12.212h18.451"/>
						<path id="Fill-27" fill="#FFAB3B" d="M45.767,12.212c0-0.863-0.704-1.564-1.573-1.564s-1.574,0.702-1.574,1.564
							c0,0.865,0.705,1.564,1.574,1.564S45.767,13.077,45.767,12.212"/>
						<path id="Stroke-28" fill="none" stroke="#FFAB3B" stroke-width="2" d="M50.166,19.693h18.451"/>
						<path id="Fill-29" fill="#FFAB3B" d="M45.767,19.693c0-0.863-0.704-1.564-1.573-1.564s-1.574,0.701-1.574,1.564
							c0,0.864,0.705,1.564,1.574,1.564S45.767,20.557,45.767,19.693"/>
						<path id="Stroke-30" fill="none" stroke="#FFAB3B" stroke-width="2" d="M50.166,27.174h18.451"/>
						<path id="Fill-31" fill="#FFAB3B" d="M45.767,27.174c0-0.863-0.704-1.564-1.573-1.564s-1.574,0.701-1.574,1.564
							c0,0.864,0.705,1.565,1.574,1.565S45.767,28.038,45.767,27.174"/>
					</g>
				</g>
			</g>
		</g>
	</g>
</g>
</svg>
