<?xml version="1.0" encoding="utf-8"?>
<!-- Generator: Adobe Illustrator 16.0.0, SVG Export Plug-In . SVG Version: 6.00 Build 0)  -->
<!DOCTYPE svg PUBLIC "-//W3C//DTD SVG 1.1//EN" "http://www.w3.org/Graphics/SVG/1.1/DTD/svg11.dtd">
<svg version="1.1" id="Layer_1" xmlns="http://www.w3.org/2000/svg" xmlns:xlink="http://www.w3.org/1999/xlink" x="0px" y="0px"
	 width="100px" height="100px" viewBox="-11 -14 100 100" enable-background="new -11 -14 100 100" xml:space="preserve">
<title>10122016-all-icon-fourleaf (1)-18</title>
<desc>Created with Sketch.</desc>
<g id="_x30_1-Main">
	<g id="Component-_x26_-Comment" transform="translate(-480.000000, -1499.000000)">
		<g id="_x31_0122016-all-icon-fourleaf-_x28_1_x29_-18" transform="translate(469.000000, 1478.000000)">
			<g id="Group">
				<g id="bg0_x25_" transform="translate(0.000000, 6.000000)" opacity="0">
					<rect id="XMLID_2319_" x="0.667" fill="none" width="99.333" height="99.333"/>
				</g>
				<g id="icon7-9" transform="translate(1.000000, 0.000000)">
					<g id="icon9fill">
						<path id="XMLID_1500_" fill="#4192B1" stroke="#FFFFFF" stroke-width="2" d="M77.833,59.607H22.5c-3.037,0-5.5-2.461-5.5-5.5
							v-5.724c0-3.038,2.463-5.5,5.5-5.5h55.333c3.038,0,5.5,2.462,5.5,5.5v5.724C83.333,57.146,80.871,59.607,77.833,59.607
							L77.833,59.607z"/>
						<circle id="XMLID_1501_" fill="#FFFFFF" cx="26.5" cy="51.246" r="3.775"/>
						<path id="XMLID_1502_" fill="#4192B1" stroke="#FFFFFF" stroke-width="2" d="M77.833,39.108H22.5c-3.037,0-5.5-2.462-5.5-5.5
							v-5.724c0-3.038,2.463-5.5,5.5-5.5h55.333c3.038,0,5.5,2.462,5.5,5.5v5.724C83.333,36.646,80.871,39.108,77.833,39.108
							L77.833,39.108z"/>
						<circle id="XMLID_1503_" fill="#FFFFFF" cx="26.5" cy="30.746" r="3.775"/>
						<g id="XMLID_1735_">
							<path id="XMLID_1740_" fill="#4192B1" stroke="#FFFFFF" stroke-width="2" d="M20.713,74.048c0.164,0,0.324,0.017,0.485,0.024
								c0.913-7.786,7.505-13.832,15.527-13.872c3.609-5.517,9.839-9.165,16.923-9.165c9.42,0,17.336,6.444,19.58,15.164
								c0.088-0.002,0.172-0.014,0.262-0.014c7.029,0,12.729,5.698,12.729,12.729c0,7.029-5.699,12.729-12.729,12.729H20.713
								c-4.859,0-8.797-3.938-8.797-8.797S15.854,74.048,20.713,74.048L20.713,74.048z"/>
							<g id="XMLID_1736_">
							</g>
						</g>
						<g id="XMLID_1539_" transform="translate(35.000000, 67.000000)">
							<path id="XMLID_1540_" fill="none" stroke="#FFFFFF" stroke-width="2" d="M15.999,7.902c2.231-3.646,3.612-7.719,7.72-7.719
								s7.721,3.284,7.721,7.719c0,4.436-3.695,7.721-7.721,7.721c-2.814,0-4.664-1.406-5.691-2.532 M13.424,2.158
								c-1.087-0.984-2.77-1.975-5.131-1.975c-4.024,0-7.72,3.285-7.72,7.721c0,4.435,3.614,7.72,7.72,7.72s5.455-3.853,7.721-7.72"
								/>
						</g>
					</g>
				</g>
			</g>
		</g>
	</g>
</g>
</svg>
