<?xml version="1.0" encoding="UTF-8" standalone="no"?>
<svg width="273px" height="373px" viewBox="0 0 273 373" version="1.1" xmlns="http://www.w3.org/2000/svg" xmlns:xlink="http://www.w3.org/1999/xlink">
    <!-- Generator: Sketch 40.3 (33839) - http://www.bohemiancoding.com/sketch -->
    <title>Group 6</title>
    <desc>Created with Sketch.</desc>
    <defs></defs>
    <g id="01-Main" stroke="none" stroke-width="1" fill="none" fill-rule="evenodd">
        <g id="Component-&amp;-Comment" transform="translate(-511.000000, -588.000000)">
            <g id="Group-6" transform="translate(511.000000, 587.000000)">
                <g id="Page-1-Copy-2" transform="translate(224.000000, 0.000000)">
                    <g id="Group-7" transform="translate(0.000000, 0.519000)"></g>
                </g>
                <path d="M79.2432,58.9858 C64.8162,58.9858 53.0802,70.7158 53.0802,85.1338 L53.0802,346.3688 C53.0802,360.7868 64.8162,372.5188 79.2432,372.5188 L198.1132,372.5188 C212.5402,372.5188 224.2782,360.7868 224.2782,346.3688 L224.2782,85.1338 C224.2782,70.7158 212.5402,58.9858 198.1132,58.9858 L79.2432,58.9858 L79.2432,58.9858 Z" id="Fill-1" fill="#FFFFFF"></path>
                <path d="M79.2432,58.9858 C64.8162,58.9858 53.0802,70.7158 53.0802,85.1338 L53.0802,346.3688 C53.0802,360.7868 64.8162,372.5188 79.2432,372.5188 L198.1132,372.5188 C212.5402,372.5188 224.2782,360.7868 224.2782,346.3688 L224.2782,85.1338 C224.2782,70.7158 212.5402,58.9858 198.1132,58.9858 L79.2432,58.9858 L79.2432,58.9858 Z" id="Stroke-3" stroke="#1E7A9C" stroke-width="2"></path>
                <path d="M249.0039,40.851 C239.7149,40.851 232.1859,33.324 232.1859,24.041 C232.1859,14.757 239.7149,7.23 249.0039,7.23 C258.2929,7.23 265.8259,14.757 265.8259,24.041 C265.8259,33.324 258.2929,40.851 249.0039,40.851 M262.2509,5.418 C251.3929,-2.256 236.3649,0.322 228.6859,11.172 C226.0919,14.837 224.6929,18.978 224.3609,23.15 L224.3339,23.126 L224.3379,23.562 C224.2669,24.68 224.2499,25.8 224.3379,26.913 L224.3479,41.056 L224.3609,58.986 L241.2829,53.031 L255.3469,48.074 C256.0459,47.863 256.7379,47.619 257.4199,47.341 L258.2069,47.067 L258.1469,47.029 C261.9749,45.325 265.4159,42.628 268.0079,38.967 C275.6899,28.115 273.1109,13.095 262.2509,5.418" id="Fill-5" fill="#1D799C"></path>
                <path d="M253.7295,19.186 C253.7295,19.186 252.8975,16.184 248.9215,16.184 C248.1575,16.184 247.2115,16.472 246.5185,16.778 C245.8075,17.093 245.1885,17.59 244.7775,18.256 C243.9865,19.537 244.0395,21.246 245.0775,22.373 C246.1385,23.524 247.4175,23.929 248.9525,23.929 C250.1225,23.929 251.5695,24.212 252.4405,25.041 C253.2645,25.825 253.7225,27.065 253.5095,28.191 C253.3965,28.79 253.0835,29.54 252.6795,30.005 C251.7105,31.124 250.4025,31.714 248.9215,31.714 C245.9925,31.714 244.2035,29.457 244.1745,28.824" id="Stroke-8" stroke="#1D799C" stroke-width="2" stroke-linecap="round"></path>
                <path d="M248.9521,14.4497 L248.9521,33.3667" id="Stroke-10" stroke="#1D799C" stroke-width="2" stroke-linecap="round"></path>
                <path d="M125.583,72.8862 L142.718,72.8862" id="Stroke-12" stroke="#1E7A9C" stroke-width="2" stroke-linecap="round"></path>
                <path d="M146.7578,72.8862 L150.7758,72.8862" id="Stroke-14" stroke="#1E7A9C" stroke-width="2" stroke-linecap="round"></path>
                <path d="M146.502,358.267 C146.502,353.947 143,350.445 138.68,350.445 C134.358,350.445 130.856,353.947 130.856,358.267 C130.856,362.588 134.358,366.091 138.68,366.091 C143,366.091 146.502,362.588 146.502,358.267 L146.502,358.267 Z" id="Stroke-16" stroke="#1E7A9C" stroke-width="2" stroke-linecap="round"></path>
                <path d="M157.6211,170.6508 C157.6211,171.5248 156.9101,172.2358 156.0371,172.2358 C155.1651,172.2358 154.4571,171.5248 154.4571,170.6508 C154.4571,169.7798 155.1651,169.0738 156.0371,169.0738 C156.9101,169.0738 157.6211,169.7798 157.6211,170.6508" id="Fill-18" fill="#1E7A9C"></path>
                <path d="M69.2627,88.5639 C60.3247,88.5639 53.0797,94.4429 53.0797,101.6929 L53.0797,329.8219 C53.0797,337.0679 60.3197,342.9409 69.2497,342.9409 L208.0947,342.9409 C217.0327,342.9409 224.2787,337.0619 224.2787,329.8099 L224.2787,101.6809 C224.2787,94.4369 217.0397,88.5639 208.1107,88.5639 L69.2627,88.5639 L69.2627,88.5639 Z" id="Stroke-20" stroke="#1E7A9C" stroke-width="2"></path>
                <path d="M188.9482,123.101 L188.9482,126.851" id="Stroke-22" stroke="#1E7A9C" stroke-width="2" stroke-linecap="round"></path>
                <path d="M192.4531,121.6499 L195.1041,124.3019" id="Stroke-24" stroke="#1E7A9C" stroke-width="2" stroke-linecap="round"></path>
                <path d="M192.4531,114.6411 L195.1041,111.9901" id="Stroke-26" stroke="#1E7A9C" stroke-width="2" stroke-linecap="round"></path>
                <path d="M188.9482,113.1889 L188.9482,109.4389" id="Stroke-28" stroke="#1E7A9C" stroke-width="2" stroke-linecap="round"></path>
                <path d="M185.4434,114.6411 L182.7924,111.9901" id="Stroke-30" stroke="#1E7A9C" stroke-width="2" stroke-linecap="round"></path>
                <path d="M183.9912,118.146 L180.2422,118.146" id="Stroke-32" stroke="#1E7A9C" stroke-width="2" stroke-linecap="round"></path>
                <path d="M185.4434,121.6499 L182.7924,124.3019" id="Stroke-34" stroke="#1E7A9C" stroke-width="2" stroke-linecap="round"></path>
                <path d="M193.9062,118.146 L197.6562,118.146" id="Stroke-36" stroke="#1E7A9C" stroke-width="2" stroke-linecap="round"></path>
                <path d="M82.3799,139.979 C82.3799,137.288 80.1979,135.106 77.5069,135.106 C74.8159,135.106 72.6329,137.288 72.6329,139.979 C72.6329,142.67 74.8159,144.853 77.5069,144.853 C80.1979,144.853 82.3799,142.67 82.3799,139.979 L82.3799,139.979 Z" id="Stroke-38" stroke="#1E7A9C" stroke-width="2"></path>
                <path d="M88.9541,147.5385 C88.9541,145.9755 87.6871,144.7075 86.1241,144.7075 C84.5601,144.7075 83.2941,145.9755 83.2941,147.5385 C83.2941,149.1015 84.5601,150.3695 86.1241,150.3695 C87.6871,150.3695 88.9541,149.1015 88.9541,147.5385 L88.9541,147.5385 Z" id="Stroke-40" stroke="#1E7A9C" stroke-width="2"></path>
                <path d="M138.3066,120.2241 L138.3066,152.2221" id="Stroke-42" stroke="#1E7A9C" stroke-width="2" stroke-linecap="round"></path>
                <path d="M138.1299,149.4848 C138.2889,149.4828 138.4439,149.4668 138.6029,149.4668 C160.8899,149.4668 180.0549,161.9198 183.2169,178.5618 C183.4029,179.1278 183.4919,179.6308 183.4919,180.1088 L183.4919,184.1488 C183.4919,186.9298 181.2299,189.1928 178.4449,189.1928 L98.7629,189.1928 C95.9789,189.1928 93.7159,186.9298 93.7159,184.1488 L93.7159,181.0658 L93.6909,180.7538 C93.6989,180.6848 93.7069,180.6088 93.7159,180.5068 L93.7159,180.1088 C93.7159,179.6228 93.8069,179.1168 94.0269,178.4198 C97.0139,162.7138 114.5139,150.7108 135.3899,149.5798" id="Stroke-44" stroke="#1E7A9C" stroke-width="2"></path>
                <path d="M162.7617,176.3833 C162.7617,177.2553 162.0507,177.9653 161.1767,177.9653 C160.3057,177.9653 159.5967,177.2553 159.5967,176.3833 C159.5967,175.5123 160.3057,174.8033 161.1767,174.8033 C162.0507,174.8033 162.7617,175.5123 162.7617,176.3833" id="Fill-46" fill="#1E7A9C"></path>
                <path d="M167.9004,170.6508 C167.9004,171.5248 167.1894,172.2358 166.3164,172.2358 C165.4444,172.2358 164.7364,171.5248 164.7364,170.6508 C164.7364,169.7798 165.4444,169.0738 166.3164,169.0738 C167.1894,169.0738 167.9004,169.7798 167.9004,170.6508" id="Fill-48" fill="#1E7A9C"></path>
                <path d="M176.958,195.9062 L169.709,201.9332 C169.323,202.2522 168.77,202.2602 168.375,201.9512 L162.095,197.0172 C161.679,196.6912 161.091,196.6982 160.685,197.0382 L154.795,201.9332 C154.417,202.2492 153.87,202.2602 153.478,201.9612 L146.937,197.0032 C146.521,196.6872 145.945,196.7012 145.544,197.0332 L139.629,201.9332 C139.435,202.0952 139.192,202.1772 138.952,202.1772 C138.728,202.1772 138.501,202.1072 138.312,201.9612 L131.772,197.0032 C131.357,196.6872 130.78,196.7012 130.379,197.0332 L124.466,201.9332 C124.082,202.2472 123.535,202.2582 123.145,201.9592 L116.641,196.9912 C116.225,196.6752 115.645,196.6852 115.243,197.0202 L109.33,201.9332 C108.953,202.2492 108.408,202.2602 108.014,201.9612 L100.095,195.9572" id="Stroke-50" stroke="#1E7A9C" stroke-width="2" stroke-linecap="round"></path>
                <path d="M178.1543,303.0952 L194.0613,303.0952" id="Stroke-52" stroke="#1E7A9C" stroke-width="2" stroke-linecap="round"></path>
                <path d="M198.6123,303.0952 L206.4253,303.0952" id="Stroke-54" stroke="#1E7A9C" stroke-width="2" stroke-linecap="round"></path>
                <path d="M184.2764,291.976 C184.2764,288.621 181.5304,285.874 178.1714,285.874 L98.4874,285.874 C95.1284,285.874 92.3814,288.621 92.3814,291.976 L92.3814,296.016 C92.3814,297.001 92.6374,297.926 93.0604,298.748 C94.5854,303.995 114.2404,308.138 138.3294,308.138 C162.4314,308.138 182.0944,303.991 183.6024,298.745 C184.0204,297.917 184.2764,297.001 184.2764,296.016 L184.2764,291.976 L184.2764,291.976 Z" id="Stroke-56" stroke="#1E7A9C" stroke-width="2" stroke-linecap="round"></path>
                <path d="M68.2412,303.0952 L80.6642,303.0952" id="Stroke-58" stroke="#1E7A9C" stroke-width="2" stroke-linecap="round"></path>
                <path d="M84.1855,303.0952 L86.9665,303.0952" id="Stroke-60" stroke="#1E7A9C" stroke-width="2" stroke-linecap="round"></path>
                <path d="M91.1309,303.0952 L98.6549,303.0952" id="Stroke-62" stroke="#1E7A9C" stroke-width="2" stroke-linecap="round"></path>
                <path d="M98.4873,285.8764 C98.4873,285.8764 115.7123,291.2944 137.1633,291.2944" id="Stroke-64" stroke="#1E7A9C" stroke-width="2" stroke-linecap="round"></path>
                <path d="M152.584,290.7255 C149.156,290.9995 143.916,291.2945 140.158,291.2945" id="Stroke-66" stroke="#1E7A9C" stroke-width="2" stroke-linecap="round"></path>
                <path d="M178.834,285.8764 C178.834,285.8764 169.34,288.8624 155.669,290.4014" id="Stroke-68" stroke="#1E7A9C" stroke-width="2" stroke-linecap="round"></path>
                <polyline id="Stroke-70" stroke="#1E7A9C" stroke-width="2" points="98.1055 262.0097 93.3175 262.0097 93.3175 257.2217"></polyline>
                <polygon id="Stroke-72" stroke="#1E7A9C" stroke-width="2" stroke-linecap="round" points="90.123 265.207 184.203 265.207 184.203 212.613 90.123 212.613"></polygon>
                <polyline id="Stroke-74" stroke="#1E7A9C" stroke-width="2" points="176.2236 216.2802 181.0116 216.2802 181.0116 221.0682"></polyline>
                <polyline id="Stroke-75" stroke="#1E7A9C" stroke-width="2" points="93.335 221.0683 93.335 216.2803 98.123 216.2803"></polyline>
                <path d="M101.5859,216.2802 L146.2989,216.2802" id="Stroke-76" stroke="#1E7A9C" stroke-width="2" stroke-linecap="round"></path>
                <polyline id="Stroke-77" stroke="#1E7A9C" stroke-width="2" points="181.0117 257.2216 181.0117 262.0096 176.2237 262.0096"></polyline>
                <path d="M172.7607,262.0097 L128.0477,262.0097" id="Stroke-78" stroke="#1E7A9C" stroke-width="2" stroke-linecap="round"></path>
                <path d="M151.7759,238.9106 C151.7759,230.8386 145.2339,224.2946 137.1619,224.2946 C129.0919,224.2946 122.5499,230.8386 122.5499,238.9106 C122.5499,246.9816 129.0919,253.5256 137.1619,253.5256 C145.2339,253.5256 151.7759,246.9816 151.7759,238.9106 L151.7759,238.9106 Z" id="Stroke-79" stroke="#1E7A9C" stroke-width="2"></path>
                <path d="M142.0742,234.0551 C142.0742,234.0551 141.2192,230.9681 137.1312,230.9681 C136.3452,230.9681 135.3722,231.2631 134.6592,231.5781 C133.9282,231.9021 133.2922,232.4131 132.8692,233.0981 C132.0552,234.4151 132.1102,236.1721 133.1772,237.3311 C134.2682,238.5151 135.5842,238.9321 137.1622,238.9321 C138.3652,238.9321 139.8532,239.2231 140.7482,240.0761 C141.5962,240.8811 142.0672,242.1571 141.8482,243.3141 C141.7312,243.9311 141.4092,244.7011 140.9952,245.1801 C139.9982,246.3301 138.6532,246.9371 137.1312,246.9371 C134.1182,246.9371 132.2792,244.6151 132.2492,243.9651" id="Stroke-80" stroke="#1D799C" stroke-width="2" stroke-linecap="round"></path>
                <path d="M137.1621,229.184 L137.1621,248.636" id="Stroke-81" stroke="#1D799C" stroke-width="2" stroke-linecap="round"></path>
                <path d="M127.501,262.0097 C127.501,256.6657 123.169,252.3327 117.825,252.3327 C112.481,252.3327 108.15,256.6657 108.15,262.0097 C108.15,267.3537 112.481,271.6867 117.825,271.6867 C123.169,271.6867 127.501,267.3537 127.501,262.0097" id="Fill-82" fill="#FFFFFF"></path>
                <path d="M127.501,262.0097 C127.501,256.6657 123.169,252.3327 117.825,252.3327 C112.481,252.3327 108.15,256.6657 108.15,262.0097 C108.15,267.3537 112.481,271.6867 117.825,271.6867 C123.169,271.6867 127.501,267.3537 127.501,262.0097 L127.501,262.0097 Z" id="Stroke-83" stroke="#1E7A9C" stroke-width="2"></path>
                <path d="M121.0776,258.7949 C121.0776,258.7949 120.5116,256.7509 117.8046,256.7509 C117.2836,256.7509 116.6406,256.9469 116.1676,257.1549 C115.6836,257.3699 115.2626,257.7079 114.9826,258.1619 C114.4436,259.0329 114.4796,260.1969 115.1866,260.9639 C115.9096,261.7479 116.7806,262.0239 117.8256,262.0239 C118.6216,262.0239 119.6066,262.2169 120.1996,262.7809 C120.7616,263.3149 121.0726,264.1589 120.9276,264.9259 C120.8506,265.3339 120.6376,265.8439 120.3626,266.1609 C119.7026,266.9219 118.8126,267.3239 117.8046,267.3239 C115.8096,267.3239 114.5916,265.7869 114.5726,265.3569" id="Stroke-84" stroke="#1D799C" stroke-width="2" stroke-linecap="round"></path>
                <path d="M117.8252,255.5698 L117.8252,268.4488" id="Stroke-85" stroke="#1D799C" stroke-width="2" stroke-linecap="round"></path>
                <path d="M166.7969,270.2065 C166.7969,264.8625 162.4649,260.5295 157.1209,260.5295 C151.7769,260.5295 147.4459,264.8625 147.4459,270.2065 C147.4459,275.5505 151.7769,279.8835 157.1209,279.8835 C162.4649,279.8835 166.7969,275.5505 166.7969,270.2065" id="Fill-86" fill="#FFFFFF"></path>
                <path d="M166.7969,270.2065 C166.7969,264.8625 162.4649,260.5295 157.1209,260.5295 C151.7769,260.5295 147.4459,264.8625 147.4459,270.2065 C147.4459,275.5505 151.7769,279.8835 157.1209,279.8835 C162.4649,279.8835 166.7969,275.5505 166.7969,270.2065 L166.7969,270.2065 Z" id="Stroke-87" stroke="#1E7A9C" stroke-width="2"></path>
                <path d="M160.3735,266.9917 C160.3735,266.9917 159.8075,264.9477 157.1005,264.9477 C156.5795,264.9477 155.9365,265.1437 155.4635,265.3517 C154.9795,265.5667 154.5585,265.9047 154.2785,266.3587 C153.7395,267.2297 153.7755,268.3937 154.4825,269.1607 C155.2055,269.9447 156.0765,270.2207 157.1215,270.2207 C157.9175,270.2207 158.9025,270.4137 159.4955,270.9777 C160.0575,271.5117 160.3685,272.3557 160.2235,273.1227 C160.1465,273.5307 159.9335,274.0407 159.6585,274.3577 C158.9985,275.1187 158.1085,275.5207 157.1005,275.5207 C155.1055,275.5207 153.8875,273.9837 153.8685,273.5537" id="Stroke-88" stroke="#1D799C" stroke-width="2" stroke-linecap="round"></path>
                <path d="M157.1211,263.7666 L157.1211,276.6456" id="Stroke-89" stroke="#1D799C" stroke-width="2" stroke-linecap="round"></path>
                <path d="M155.9482,133.8086 C155.9532,133.8196 155.9592,133.8296 155.9662,133.8416 C155.9692,133.8446 155.9702,133.8476 155.9722,133.8506 L155.9712,133.8506 C156.0812,134.0416 156.1432,134.2606 156.1432,134.4956 C156.1432,135.2136 155.5612,135.7946 154.8442,135.7946 C154.5812,135.7946 154.3382,135.7156 154.1332,135.5826 L154.1332,135.5966 L154.0832,135.5466 C153.9842,135.4756 153.8972,135.3926 153.8232,135.2966 L151.6302,133.1846 L153.8332,131.0836 C153.9042,130.9956 153.9872,130.9146 154.0802,130.8486 L154.1332,130.7976 L154.1332,130.8106 C154.3382,130.6766 154.5812,130.5996 154.8442,130.5996 C155.5612,130.5996 156.1432,131.1816 156.1432,131.8976 C156.1432,132.1926 156.0452,132.4646 155.8802,132.6806 C155.7842,132.9206 155.6812,133.3586 155.9482,133.8086 L155.9482,133.8086 Z M152.6732,137.9396 C152.3782,137.9396 152.1082,137.8416 151.8902,137.6776 C151.6502,137.5806 151.2112,137.4776 150.7612,137.7456 C150.7512,137.7496 150.7412,137.7556 150.7322,137.7626 C150.7272,137.7656 150.7232,137.7666 150.7192,137.7686 C150.5302,137.8766 150.3102,137.9396 150.0752,137.9396 C149.3572,137.9396 148.7762,137.3586 148.7762,136.6416 C148.7762,136.3776 148.8552,136.1336 148.9892,135.9286 L148.9742,135.9286 L149.0242,135.8786 C149.0952,135.7816 149.1792,135.6936 149.2742,135.6196 L151.3872,133.4266 L153.4872,135.6296 C153.5752,135.7016 153.6562,135.7846 153.7222,135.8756 L153.7732,135.9286 L153.7602,135.9286 C153.8942,136.1336 153.9712,136.3776 153.9712,136.6416 C153.9712,137.3586 153.3892,137.9396 152.6732,137.9396 L152.6732,137.9396 Z M148.6402,135.5696 L148.6402,135.5566 C148.4372,135.6906 148.1932,135.7676 147.9292,135.7676 C147.2122,135.7676 146.6322,135.1876 146.6322,134.4696 C146.6322,134.1756 146.7282,133.9046 146.8942,133.6866 C146.9902,133.4466 147.0932,133.0086 146.8272,132.5576 C146.8212,132.5476 146.8142,132.5376 146.8082,132.5266 C146.8062,132.5226 146.8042,132.5196 146.8022,132.5166 C146.6942,132.3256 146.6322,132.1066 146.6322,131.8716 C146.6322,131.1546 147.2122,130.5726 147.9292,130.5726 C148.1932,130.5726 148.4372,130.6516 148.6402,130.7866 L148.6402,130.7726 L148.6922,130.8206 C148.7902,130.8916 148.8782,130.9756 148.9512,131.0706 L151.1452,133.1836 L148.9412,135.2836 C148.8692,135.3726 148.7882,135.4526 148.6952,135.5186 L148.6402,135.5696 Z M150.1012,128.4276 C150.3952,128.4276 150.6672,128.5246 150.8852,128.6906 C151.1242,128.7866 151.5632,128.8896 152.0132,128.6226 C152.0232,128.6176 152.0332,128.6116 152.0432,128.6066 C152.0472,128.6036 152.0512,128.6006 152.0532,128.5986 C152.2442,128.4906 152.4642,128.4276 152.6982,128.4276 C153.4162,128.4276 153.9972,129.0086 153.9972,129.7256 C153.9972,129.9896 153.9192,130.2336 153.7862,130.4386 L153.7992,130.4386 L153.7502,130.4886 C153.6792,130.5866 153.5942,130.6736 153.5012,130.7486 L151.3872,132.9406 L149.2882,130.7376 C149.1992,130.6656 149.1192,130.5836 149.0512,130.4916 L149.0012,130.4386 L149.0152,130.4386 C148.8812,130.2336 148.8022,129.9896 148.8022,129.7256 C148.8022,129.0086 149.3852,128.4276 150.1012,128.4276 L150.1012,128.4276 Z M163.1372,124.9756 L139.6372,124.9756 C138.7542,124.9756 138.0382,125.6906 138.0382,126.5746 L138.0382,139.7926 C138.0382,140.6766 138.7542,141.3916 139.6372,141.3916 L163.1372,141.3916 C164.0192,141.3916 164.7362,140.6766 164.7362,139.7926 L164.7362,126.5746 C164.7362,125.6906 164.0192,124.9756 163.1372,124.9756 L163.1372,124.9756 Z" id="Fill-90" fill="#1D799C"></path>
                <path d="M158.1069,222.1997 C157.9089,222.2687 157.7149,222.2597 157.5259,222.1737 C157.3359,222.0837 157.2049,221.9387 157.1319,221.7417 C157.0629,221.5427 157.0709,221.3487 157.1579,221.1597 C157.2479,220.9707 157.3919,220.8387 157.5899,220.7657 L159.5799,220.0427 C159.8289,219.9567 160.0619,219.9887 160.2769,220.1387 C160.4919,220.2897 160.5999,220.4967 160.5999,220.7597 L160.5999,228.4637 C160.5999,228.6747 160.5259,228.8537 160.3799,228.9997 C160.2299,229.1507 160.0489,229.2257 159.8379,229.2257 C159.6269,229.2257 159.4479,229.1507 159.3019,228.9997 C159.1509,228.8537 159.0759,228.6747 159.0759,228.4637 L159.0759,221.8447 L158.1069,222.1997 Z" id="Fill-91" fill="#1E7A9C"></path>
                <path d="M168.1367,222.6772 C168.1367,222.3542 168.0227,222.0762 167.7947,221.8442 C167.5617,221.6162 167.2837,221.5022 166.9607,221.5022 C166.6377,221.5022 166.3627,221.6162 166.1347,221.8442 C165.9067,222.0762 165.7917,222.3542 165.7917,222.6772 L165.7917,226.5392 C165.7917,226.8622 165.9067,227.1382 166.1347,227.3662 C166.3627,227.5942 166.6377,227.7082 166.9607,227.7082 C167.2837,227.7082 167.5617,227.5942 167.7947,227.3662 C168.0227,227.1382 168.1367,226.8622 168.1367,226.5392 L168.1367,222.6772 Z M166.9607,219.9842 C167.7057,219.9842 168.3407,220.2472 168.8657,220.7722 C169.3917,221.2982 169.6547,221.9322 169.6547,222.6772 L169.6547,226.5392 C169.6547,227.2802 169.3917,227.9132 168.8657,228.4382 C168.3407,228.9632 167.7057,229.2262 166.9607,229.2262 C166.2207,229.2262 165.5877,228.9632 165.0627,228.4382 C164.5367,227.9132 164.2747,227.2802 164.2747,226.5392 L164.2747,222.6772 C164.2747,221.9322 164.5367,221.2982 165.0627,220.7722 C165.5877,220.2472 166.2207,219.9842 166.9607,219.9842 L166.9607,219.9842 Z" id="Fill-92" fill="#1E7A9C"></path>
                <path d="M175.7251,222.6772 C175.7251,222.3542 175.6111,222.0762 175.3831,221.8442 C175.1501,221.6162 174.8721,221.5022 174.5491,221.5022 C174.2261,221.5022 173.9511,221.6162 173.7231,221.8442 C173.4951,222.0762 173.3801,222.3542 173.3801,222.6772 L173.3801,226.5392 C173.3801,226.8622 173.4951,227.1382 173.7231,227.3662 C173.9511,227.5942 174.2261,227.7082 174.5491,227.7082 C174.8721,227.7082 175.1501,227.5942 175.3831,227.3662 C175.6111,227.1382 175.7251,226.8622 175.7251,226.5392 L175.7251,222.6772 Z M174.5491,219.9842 C175.2941,219.9842 175.9291,220.2472 176.4541,220.7722 C176.9801,221.2982 177.2431,221.9322 177.2431,222.6772 L177.2431,226.5392 C177.2431,227.2802 176.9801,227.9132 176.4541,228.4382 C175.9291,228.9632 175.2941,229.2262 174.5491,229.2262 C173.8091,229.2262 173.1761,228.9632 172.6511,228.4382 C172.1251,227.9132 171.8631,227.2802 171.8631,226.5392 L171.8631,222.6772 C171.8631,221.9322 172.1251,221.2982 172.6511,220.7722 C173.1761,220.2472 173.8091,219.9842 174.5491,219.9842 L174.5491,219.9842 Z" id="Fill-93" fill="#1E7A9C"></path>
                <polygon id="Fill-94" fill="#1D799C" points="108.88 55.44 114.929 55.44 114.929 49.391 108.88 49.391"></polygon>
                <polygon id="Fill-95" fill="#1D799C" points="54.44 31.245 60.489 31.245 60.489 25.196 54.44 25.196"></polygon>
                <polygon id="Fill-96" fill="#1D799C" points="18.1465 91.7334 12.0975 91.7334 12.0975 103.8314 24.1955 103.8314 24.1955 79.6354 18.1465 79.6354"></polygon>
                <polygon id="Fill-97" fill="#1D799C" points="0 49.3906 0 55.4396 6.049 55.4396 6.049 67.5376 0 67.5376 0 73.5866 12.098 73.5866 12.098 49.3906"></polygon>
                <polygon id="Fill-98" fill="#1D799C" points="12.098 79.636 18.147 79.636 18.147 73.587 12.098 73.587"></polygon>
                <polygon id="Fill-99" fill="#1D799C" points="36.293 55.44 42.343 55.44 42.343 49.391 36.293 49.391"></polygon>
                <polygon id="Fill-100" fill="#1D799C" points="48.392 49.391 54.44 49.391 54.44 37.294 48.392 37.294"></polygon>
                <polygon id="Fill-101" fill="#1D799C" points="48.392 7.049 54.44 7.049 54.44 1 48.392 1"></polygon>
                <polygon id="Fill-102" fill="#1D799C" points="102.831 58.986 108.88 58.986 108.88 55.44 102.831 55.44"></polygon>
                <polygon id="Fill-103" fill="#1D799C" points="84.6846 19.1464 90.7336 19.1464 90.7336 25.1954 96.7826 25.1954 96.7826 43.3424 102.8306 43.3424 102.8306 19.1464 96.7826 19.1464 96.7826 13.0974 84.6846 13.0974 84.6846 7.0484 90.7336 7.0484 90.7336 1.0004 66.5376 1.0004 66.5376 7.0484 78.6356 7.0484 78.6356 13.0974 72.5866 13.0974 72.5866 25.1954 84.6846 25.1954"></polygon>
                <polygon id="Fill-104" fill="#1D799C" points="36.293 67.538 30.244 67.538 30.244 61.489 36.293 61.489 36.293 55.44 30.244 55.44 30.244 49.391 18.147 49.391 18.147 55.44 24.196 55.44 24.196 79.636 42.343 79.636 42.343 73.586 36.293 73.586"></polygon>
                <polygon id="Fill-105" fill="#1D799C" points="66.538 31.245 72.587 31.245 72.587 25.196 66.538 25.196"></polygon>
                <polygon id="Fill-106" fill="#1D799C" points="54.4399 13.0976 60.4889 13.0976 60.4889 19.1466 66.5379 19.1466 66.5379 7.0486 54.4399 7.0486"></polygon>
                <polygon id="Fill-107" fill="#1D799C" points="90.7334 49.3906 84.6844 49.3906 84.6844 58.9856 96.7824 58.9856 96.7824 43.3426 90.7334 43.3426"></polygon>
                <path d="M54.4399,67.538 L54.4399,61.489 L60.4889,61.489 L60.4889,55.44 L72.5869,55.44 L72.5869,43.342 L66.5379,43.342 L66.5379,31.245 L60.4889,31.245 L60.4889,49.391 L54.4399,49.391 L54.4399,55.44 L48.3919,55.44 L48.3919,61.489 L36.2929,61.489 L36.2929,67.538 L42.3429,67.538 L42.3429,73.586 L48.3919,73.586 L48.3919,79.636 L53.6669,79.636 C54.6549,75.042 56.8499,70.892 59.9069,67.538 L54.4399,67.538 Z" id="Fill-108" fill="#1D799C"></path>
                <path d="M60.4893,66.9282 C62.6643,64.6912 65.2333,62.8392 68.0863,61.4892 L60.4893,61.4892 L60.4893,66.9282 Z" id="Fill-109" fill="#1D799C"></path>
                <path d="M6.049,37.293 L36.293,37.293 L36.293,7.048 L6.049,7.048 L6.049,37.293 Z M0,43.342 L42.343,43.342 L42.343,1 L0,1 L0,43.342 Z" id="Fill-110" fill="#1D799C"></path>
                <polygon id="Fill-111" fill="#1D799C" points="48.392 109.88 53.08 109.88 53.08 97.782 48.392 97.782"></polygon>
                <polygon id="Fill-112" fill="#1D799C" points="48.392 134.076 53.08 134.076 53.08 121.978 48.392 121.978"></polygon>
                <polygon id="Fill-113" fill="#1D799C" points="114.929 58.986 145.173 58.986 145.173 55.44 114.929 55.44"></polygon>
                <polygon id="Fill-114" fill="#1D799C" points="145.173 55.44 151.222 55.44 151.222 49.391 145.173 49.391"></polygon>
                <polygon id="Fill-115" fill="#1D799C" points="6.0488 85.684 6.0488 79.636 -0.0002 79.636 -0.0002 103.831 6.0488 103.831 6.0488 91.733 12.0978 91.733 12.0978 85.684"></polygon>
                <path d="M114.929,37.293 L145.173,37.293 L145.173,7.048 L114.929,7.048 L114.929,37.293 Z M108.88,43.342 L151.222,43.342 L151.222,1 L108.88,1 L108.88,43.342 Z" id="Fill-116" fill="#1D799C"></path>
                <polygon id="Fill-117" fill="#1D799C" points="12.098 31.245 30.244 31.245 30.244 13.098 12.098 13.098"></polygon>
                <polygon id="Fill-118" fill="#1D799C" points="120.978 31.245 139.124 31.245 139.124 13.098 120.978 13.098"></polygon>
                <polygon id="Fill-119" fill="#1D799C" points="72.587 43.343 78.636 43.343 78.636 31.245 72.587 31.245"></polygon>
                <polygon id="Fill-120" fill="#1D799C" points="78.636 49.39 84.685 49.39 84.685 43.342 78.636 43.342"></polygon>
                <path d="M72.5869,55.4399 L72.5869,59.8459 C74.5249,59.3359 76.5509,59.0489 78.6359,59.0019 L78.6359,55.4399 L72.5869,55.4399 Z" id="Fill-121" fill="#1D799C"></path>
                <polygon id="Fill-122" fill="#1D799C" points="84.685 31.245 90.734 31.245 90.734 25.196 84.685 25.196"></polygon>
                <polygon id="Fill-123" fill="#1D799C" points="84.684 43.342 90.733 43.342 90.733 37.293 84.684 37.293"></polygon>
                <polygon id="Fill-124" fill="#1D799C" points="30.244 91.733 42.343 91.733 42.343 85.684 30.244 85.684"></polygon>
                <polygon id="Fill-125" fill="#1D799C" points="30.244 103.831 42.343 103.831 42.343 97.782 30.244 97.782"></polygon>
                <path d="M6.049,146.173 L36.293,146.173 L36.293,115.929 L6.049,115.929 L6.049,146.173 Z M0,152.222 L42.343,152.222 L42.343,109.88 L0,109.88 L0,152.222 Z" id="Fill-126" fill="#1D799C"></path>
                <polygon id="Fill-127" fill="#1D799C" points="12.098 140.124 30.244 140.124 30.244 121.978 12.098 121.978"></polygon>
                <polygon id="Fill-128" fill="#1D799C" points="48.392 152.222 53.08 152.222 53.08 140.124 48.392 140.124"></polygon>
            </g>
        </g>
    </g>
</svg>