<?xml version="1.0" encoding="UTF-8" standalone="no"?>
<svg width="296px" height="397px" viewBox="0 0 296 397" version="1.1" xmlns="http://www.w3.org/2000/svg" xmlns:xlink="http://www.w3.org/1999/xlink">
    <!-- Generator: Sketch 40.3 (33839) - http://www.bohemiancoding.com/sketch -->
    <title>Group 16</title>
    <desc>Created with Sketch.</desc>
    <defs></defs>
    <g id="01-Main" stroke="none" stroke-width="1" fill="none" fill-rule="evenodd">
        <g id="01-Main-Desktop-HD-(-≥-1200px-)" transform="translate(-297.000000, -2019.000000)">
            <g id="Group-16" transform="translate(246.000000, 2008.000000)">
                <rect id="Rectangle-8" x="0" y="0" width="362" height="445"></rect>
                <g id="Group-14" transform="translate(52.000000, 11.000000)">
                    <path d="M182.707,373 L15.199,373 C6.805,373 0,366.194 0,357.8 L0,73.199 C0,64.805 6.805,58 15.199,58 L230.801,58 C239.195,58 246,64.805 246,73.199 L246,304.607" id="Stroke-9" stroke="#FFAB3B" stroke-width="2"></path>
                    <path d="M156.5,340.923 L10.822,340.923 C4.845,340.923 0,336.078 0,330.101 L0,100.822 C0,94.846 4.845,90 10.822,90 L235.178,90 C241.155,90 246,94.846 246,100.822 L246,304.57" id="Stroke-11" stroke="#FFAB3B" stroke-width="1.785"></path>
                    <g id="Group-17">
                        <path d="M156.1665,114.9643 L156.1665,117.6023" id="Stroke-1" stroke="#FFAB3B" stroke-width="2" stroke-linecap="round"></path>
                        <path d="M158.6323,113.9428 L160.4973,115.8078" id="Stroke-2" stroke="#FFAB3B" stroke-width="2" stroke-linecap="round"></path>
                        <path d="M158.6323,109.0121 L160.4973,107.1471" id="Stroke-3" stroke="#FFAB3B" stroke-width="2" stroke-linecap="round"></path>
                        <path d="M156.1665,107.9906 L156.1665,105.3526" id="Stroke-4" stroke="#FFAB3B" stroke-width="2" stroke-linecap="round"></path>
                        <path d="M153.7012,109.0121 L151.8362,107.1471" id="Stroke-5" stroke="#FFAB3B" stroke-width="2" stroke-linecap="round"></path>
                        <path d="M152.6797,111.4769 L150.0417,111.4769" id="Stroke-6" stroke="#FFAB3B" stroke-width="2" stroke-linecap="round"></path>
                        <path d="M153.7012,113.9428 L151.8362,115.8078" id="Stroke-7" stroke="#FFAB3B" stroke-width="2" stroke-linecap="round"></path>
                        <path d="M159.6548,111.4769 L162.2928,111.4769" id="Stroke-8" stroke="#FFAB3B" stroke-width="2" stroke-linecap="round"></path>
                        <path d="M115.9902,74.7562 L130.0102,74.7562" id="Stroke-13" stroke="#FFAB3B" stroke-width="1.809" stroke-linecap="round"></path>
                        <path d="M130.8232,358.1176 C130.8232,353.7966 127.3202,350.2946 123.0002,350.2946 C118.6792,350.2946 115.1772,353.7966 115.1772,358.1176 C115.1772,362.4376 118.6792,365.9406 123.0002,365.9406 C127.3202,365.9406 130.8232,362.4376 130.8232,358.1176 L130.8232,358.1176 Z" id="Stroke-15" stroke="#FFAB3B" stroke-width="2" stroke-linecap="round"></path>
                        <path d="M0,162.3158 L246,162.3158" id="Stroke-17" stroke="#FFAB3B" stroke-width="2" stroke-linecap="round"></path>
                        <path d="M138.3345,90.0248 L138.3345,162.3158" id="Stroke-19" stroke="#FFAB3B" stroke-width="2" stroke-linecap="round"></path>
                        <path d="M66.335,162.3158 L66.335,339.6968" id="Stroke-21" stroke="#FFAB3B" stroke-width="2" stroke-linecap="round"></path>
                        <path d="M124.123,143.5238 C124.123,147.8498 120.617,151.3568 116.291,151.3568 L21.388,151.3568 C17.062,151.3568 13.555,147.8498 13.555,143.5238 C13.555,139.1988 17.062,135.6918 21.388,135.6918 L116.291,135.6918 C120.617,135.6918 124.123,139.1988 124.123,143.5238 L124.123,143.5238 Z" id="Stroke-23" stroke="#FFAB3B" stroke-width="2" stroke-linecap="round"></path>
                        <path d="M50.4106,135.6918 L50.4106,151.3568" id="Stroke-25" stroke="#FFAB3B" stroke-width="2" stroke-linecap="round"></path>
                        <path d="M87.2671,135.6918 L87.2671,151.3568" id="Stroke-27" stroke="#FFAB3B" stroke-width="2" stroke-linecap="round"></path>
                        <path d="M16.2769,118.4603 L18.8059,118.4603 C19.2619,118.4603 19.6519,118.3193 19.9729,118.0393 C20.2949,117.7653 20.4559,117.4303 20.4559,117.0363 C20.4559,116.6513 20.2979,116.3273 19.9809,116.0643 C19.6649,115.7933 19.2779,115.6583 18.8209,115.6583 L18.7519,115.6583 L18.6269,115.6583 L16.2769,115.6583 L16.2769,118.4603 Z M16.2769,113.8223 L18.6269,113.8223 C19.0679,113.8223 19.4519,113.6803 19.7779,113.3953 C20.0999,113.1043 20.2609,112.7623 20.2609,112.3673 C20.2609,111.9783 20.1029,111.6513 19.7859,111.3873 C19.4699,111.1173 19.0839,110.9823 18.6269,110.9823 L16.2769,110.9983 L16.2769,113.8223 Z M15.3589,120.2963 C15.1049,120.2963 14.8889,120.2053 14.7129,120.0233 C14.5309,119.8483 14.4409,119.6323 14.4409,119.3783 L14.4409,110.0793 C14.4409,109.8303 14.5289,109.6153 14.7049,109.4343 C14.8869,109.2573 15.1019,109.1663 15.3509,109.1613 L18.6189,109.1463 C19.5939,109.1463 20.4189,109.4573 21.0939,110.0793 C21.7629,110.7023 22.0969,111.4653 22.0969,112.3673 C22.0969,113.2383 21.7779,113.9933 21.1399,114.6313 C21.9079,115.2653 22.2919,116.0653 22.2919,117.0363 C22.2919,117.9343 21.9489,118.7013 21.2649,119.3393 C20.5849,119.9773 19.7659,120.2963 18.8059,120.2963 L15.3589,120.2963 Z" id="Fill-29" fill="#FFAB3B"></path>
                        <path d="M30.0571,116.0941 L28.5561,112.4841 L27.0611,116.0941 L30.0571,116.0941 Z M24.3621,120.2261 C24.1281,120.1271 23.9621,119.9611 23.8641,119.7281 C23.7701,119.4941 23.7701,119.2611 23.8641,119.0281 L24.8521,116.6551 L24.8521,116.6471 L27.7151,109.7381 C27.7251,109.7111 27.7391,109.6861 27.7541,109.6591 L27.7691,109.6201 C27.7851,109.6001 27.7951,109.5871 27.8011,109.5811 C27.8011,109.5761 27.8081,109.5641 27.8241,109.5431 C27.8401,109.5281 27.8501,109.5171 27.8551,109.5121 C27.8551,109.5061 27.8631,109.4961 27.8781,109.4811 C27.8991,109.4601 27.9101,109.4471 27.9101,109.4421 C27.9151,109.4371 27.9251,109.4291 27.9411,109.4181 C27.9611,109.3981 27.9741,109.3871 27.9801,109.3871 C27.9741,109.3871 27.9851,109.3791 28.0111,109.3641 C28.0321,109.3481 28.0441,109.3381 28.0501,109.3321 L28.0811,109.3101 C28.1071,109.2941 28.1221,109.2861 28.1271,109.2861 C28.1381,109.2811 28.1561,109.2731 28.1821,109.2631 C28.2081,109.2471 28.2161,109.2421 28.2051,109.2471 C28.1951,109.2521 28.2051,109.2471 28.2371,109.2321 C28.2631,109.2271 28.2811,109.2211 28.2911,109.2161 C28.2961,109.2161 28.3141,109.2111 28.3461,109.2001 L28.3761,109.1931 C28.3871,109.1931 28.4051,109.1901 28.4311,109.1851 L28.4701,109.1771 L28.5161,109.1771 L28.5561,109.1771 L28.6021,109.1771 L28.6491,109.1771 L28.6961,109.1851 L28.7341,109.1931 C28.7451,109.1931 28.7631,109.1981 28.7891,109.2081 C28.8201,109.2131 28.8301,109.2161 28.8201,109.2161 C28.8821,109.2321 28.9391,109.2551 28.9911,109.2861 C28.9861,109.2811 28.9961,109.2861 29.0221,109.3021 C29.0481,109.3171 29.0641,109.3271 29.0691,109.3321 L29.1001,109.3561 C29.1211,109.3711 29.1341,109.3821 29.1391,109.3871 C29.1441,109.3871 29.1551,109.3951 29.1701,109.4101 C29.1861,109.4261 29.1991,109.4371 29.2091,109.4421 C29.2091,109.4471 29.2171,109.4571 29.2321,109.4731 C29.2531,109.4931 29.2641,109.5061 29.2641,109.5121 L29.2871,109.5431 C29.3071,109.5641 29.3181,109.5761 29.3181,109.5811 C29.3181,109.5871 29.3261,109.6001 29.3411,109.6201 C29.3571,109.6421 29.3651,109.6551 29.3651,109.6591 C29.3801,109.6861 29.3931,109.7111 29.4041,109.7381 L32.2671,116.6471 L32.2671,116.6551 L33.2551,119.0281 C33.3491,119.2611 33.3491,119.4941 33.2551,119.7281 C33.1571,119.9611 32.9911,120.1271 32.7571,120.2261 C32.6431,120.2731 32.5261,120.2961 32.4071,120.2961 C31.9971,120.2961 31.7151,120.1071 31.5591,119.7281 L30.8121,117.9231 L26.3071,117.9231 L25.5601,119.7281 C25.4041,120.1071 25.1211,120.2961 24.7121,120.2961 L24.5331,120.2961 C24.5331,120.2961 24.4751,120.2731 24.3621,120.2261 L24.3621,120.2261 Z" id="Fill-31" fill="#FFAB3B"></path>
                        <path d="M39.1377,113.7758 C39.5737,113.7598 39.9467,113.6178 40.2587,113.3478 C40.5647,113.0728 40.7177,112.7468 40.7177,112.3678 C40.7177,111.9728 40.5567,111.6388 40.2347,111.3638 C39.9127,111.0888 39.5267,110.9518 39.0757,110.9518 L36.7727,110.9518 L36.7727,113.7758 L39.1377,113.7758 Z M42.5457,112.3678 C42.5457,113.0518 42.3327,113.6718 41.9077,114.2268 C41.4977,114.7768 40.9587,115.1688 40.2897,115.4018 L42.0557,118.9808 C42.1647,119.2048 42.1777,119.4348 42.0947,119.6738 C42.0167,119.9128 41.8637,120.0888 41.6357,120.2028 C41.5057,120.2648 41.3707,120.2968 41.2307,120.2968 C40.8517,120.2968 40.5797,120.1258 40.4137,119.7828 L38.3517,115.6038 L36.7727,115.6038 L36.7727,119.3158 C36.7727,119.5648 36.6817,119.7808 36.4997,119.9618 C36.3237,120.1378 36.1087,120.2258 35.8537,120.2258 C35.6047,120.2258 35.3897,120.1378 35.2087,119.9618 C35.0317,119.7808 34.9437,119.5648 34.9437,119.3158 L34.9437,110.0408 C34.9437,109.7868 35.0317,109.5718 35.2087,109.3948 C35.3897,109.2138 35.6047,109.1228 35.8537,109.1228 L39.0757,109.1228 C40.0347,109.1228 40.8517,109.4388 41.5267,110.0718 C42.2057,110.7048 42.5457,111.4698 42.5457,112.3678 L42.5457,112.3678 Z" id="Fill-33" fill="#FFAB3B"></path>
                        <path d="M52.918,109.6518 C53.084,109.9948 53.05,110.3158 52.817,110.6168 L46.67,118.4608 L51.898,118.4608 C52.153,118.4608 52.368,118.5478 52.544,118.7248 C52.726,118.9068 52.817,119.1248 52.817,119.3788 C52.817,119.6318 52.726,119.8478 52.544,120.0238 C52.368,120.2058 52.153,120.2968 51.898,120.2968 L44.787,120.2968 C44.403,120.2968 44.126,120.1258 43.954,119.7828 C43.788,119.4348 43.825,119.1108 44.063,118.8098 L50.203,110.9668 L44.981,110.9668 C44.727,110.9668 44.509,110.8788 44.328,110.7028 C44.146,110.5208 44.055,110.3028 44.055,110.0478 C44.055,109.7948 44.146,109.5798 44.328,109.4028 C44.509,109.2208 44.727,109.1308 44.981,109.1308 L52.093,109.1308 C52.472,109.1308 52.747,109.3038 52.918,109.6518" id="Fill-35" fill="#FFAB3B"></path>
                        <path d="M59.6797,110.9594 C58.6477,110.9594 57.7657,111.3244 57.0337,112.0564 C56.2977,112.7924 55.9297,113.6774 55.9297,114.7094 C55.9297,115.7414 56.2977,116.6234 57.0337,117.3554 C57.7657,118.0924 58.6477,118.4604 59.6797,118.4604 C60.7117,118.4604 61.5967,118.0924 62.3327,117.3554 C63.0647,116.6234 63.4297,115.7414 63.4297,114.7094 C63.4297,113.6774 63.0647,112.7924 62.3327,112.0564 C61.5967,111.3244 60.7117,110.9594 59.6797,110.9594 M59.6797,120.2964 C58.1387,120.2964 56.8237,119.7494 55.7347,118.6544 C54.6397,117.5644 54.0927,116.2504 54.0927,114.7094 C54.0927,113.1694 54.6397,111.8514 55.7347,110.7574 C56.8237,109.6674 58.1387,109.1224 59.6797,109.1224 C61.2207,109.1224 62.5377,109.6674 63.6327,110.7574 C64.7217,111.8514 65.2657,113.1694 65.2657,114.7094 C65.2657,116.2504 64.7217,117.5644 63.6327,118.6544 C62.5377,119.7494 61.2207,120.2964 59.6797,120.2964" id="Fill-37" fill="#FFAB3B"></path>
                        <path d="M74.9692,119.9457 L74.9612,119.9457 L74.9612,119.9377 L69.3662,112.7407 L69.3662,119.3787 C69.3662,119.6327 69.2762,119.8477 69.0942,120.0237 C68.9182,120.2057 68.7022,120.2967 68.4482,120.2967 C68.1942,120.2967 67.9792,120.2057 67.8022,120.0237 C67.6212,119.8477 67.5312,119.6327 67.5312,119.3787 L67.5312,110.0557 C67.5312,109.8597 67.5872,109.6827 67.7012,109.5277 C67.8162,109.3667 67.9662,109.2557 68.1532,109.1927 C68.3342,109.1257 68.5212,109.1207 68.7132,109.1767 C68.9002,109.2347 69.0532,109.3407 69.1722,109.4967 L74.7672,116.7017 L74.7672,110.0557 C74.7672,109.8017 74.8552,109.5877 75.0312,109.4107 C75.2132,109.2287 75.4302,109.1377 75.6852,109.1377 C75.9392,109.1377 76.1542,109.2287 76.3312,109.4107 C76.5122,109.5877 76.6032,109.8017 76.6032,110.0557 L76.6032,119.3937 C76.6032,119.4037 76.6002,119.4197 76.5952,119.4407 L76.5952,119.4787 C76.5952,119.4897 76.5932,119.5057 76.5882,119.5257 C76.5882,119.5467 76.5852,119.5617 76.5802,119.5727 L76.5722,119.6117 C76.5672,119.6367 76.5612,119.6527 76.5562,119.6587 C76.5562,119.6637 76.5512,119.6757 76.5412,119.6967 C76.5352,119.7177 76.5312,119.7337 76.5252,119.7437 L76.5102,119.7827 L76.4862,119.8217 C76.4812,119.8327 76.4732,119.8477 76.4632,119.8687 L76.4402,119.8917 C76.4342,119.9017 76.4242,119.9177 76.4082,119.9377 L76.3852,119.9687 C76.3802,119.9747 76.3692,119.9847 76.3542,120.0007 C76.3392,120.0217 76.3282,120.0317 76.3232,120.0317 C76.3232,120.0367 76.3122,120.0477 76.2922,120.0627 C76.2762,120.0787 76.2632,120.0897 76.2532,120.0937 C76.2682,120.0837 76.2662,120.0867 76.2452,120.1017 L76.2372,120.1097 C76.1962,120.1407 76.1572,120.1667 76.1202,120.1867 L76.1132,120.1867 C76.0712,120.2087 76.0302,120.2257 75.9892,120.2417 C75.9682,120.2527 75.9622,120.2557 75.9732,120.2497 C75.9312,120.2647 75.8872,120.2757 75.8412,120.2807 L75.8172,120.2887 C75.7702,120.2937 75.7262,120.2967 75.6852,120.2967 C75.6542,120.2967 75.6202,120.2937 75.5842,120.2887 C75.5942,120.2937 75.5892,120.2937 75.5682,120.2887 C75.5372,120.2837 75.5112,120.2777 75.4902,120.2727 C75.4952,120.2777 75.4852,120.2757 75.4592,120.2647 C75.4332,120.2597 75.4122,120.2557 75.3972,120.2497 C75.3922,120.2497 75.3822,120.2447 75.3662,120.2337 C75.3402,120.2287 75.3192,120.2207 75.3032,120.2107 C75.2932,120.2107 75.2832,120.2057 75.2722,120.1947 C75.2522,120.1847 75.2342,120.1767 75.2182,120.1727 C75.2022,120.1617 75.1922,120.1537 75.1872,120.1487 C75.1712,120.1377 75.1532,120.1257 75.1332,120.1097 C75.1172,120.0987 75.1062,120.0917 75.1012,120.0867 C75.0752,120.0657 75.0522,120.0447 75.0312,120.0237 L75.0242,120.0157 L75.0242,120.0077 C75.0032,119.9877 74.9922,119.9767 74.9922,119.9767 C74.9922,119.9767 74.9852,119.9667 74.9692,119.9457" id="Fill-39" fill="#FFAB3B"></path>
                        <path d="M85.7534,118.4525 C86.0074,118.4525 86.2234,118.5435 86.3994,118.7245 C86.5814,118.9065 86.6714,119.1245 86.6714,119.3785 C86.6714,119.6325 86.5814,119.8485 86.3994,120.0235 C86.2234,120.2055 86.0074,120.2965 85.7534,120.2965 L80.1204,120.2965 C79.8654,120.2965 79.6504,120.2055 79.4744,120.0235 C79.2924,119.8485 79.2024,119.6325 79.2024,119.3785 L79.2024,110.0485 C79.2024,109.7895 79.2924,109.5715 79.4744,109.3945 C79.6504,109.2135 79.8654,109.1225 80.1204,109.1225 L80.1284,109.1225 L85.7534,109.1385 C86.0074,109.1385 86.2254,109.2285 86.4074,109.4105 C86.5834,109.5925 86.6714,109.8095 86.6714,110.0635 C86.6714,110.3185 86.5814,110.5335 86.3994,110.7105 C86.2234,110.8915 86.0074,110.9825 85.7534,110.9825 L85.7454,110.9825 L81.0454,110.9675 L81.0454,113.7915 L84.4384,113.7915 C84.6924,113.7915 84.9104,113.8795 85.0924,114.0565 C85.2744,114.2375 85.3644,114.4555 85.3644,114.7095 C85.3644,114.9635 85.2744,115.1815 85.0924,115.3625 C84.9104,115.5395 84.6924,115.6275 84.4384,115.6275 L81.0454,115.6275 L81.0454,118.4525 L85.7534,118.4525 Z" id="Fill-41" fill="#FFAB3B"></path>
                        <path d="M177.6177,135.0404 C177.6177,135.4854 177.4587,135.8614 177.1417,136.1704 C176.8327,136.4874 176.4567,136.6454 176.0127,136.6454 L167.8107,136.6454 C167.1667,136.6454 166.6957,136.3604 166.3957,135.7894 C166.0967,135.2184 166.1287,134.6644 166.4917,134.1294 L173.7417,123.5884 C173.8497,123.3154 173.9047,123.0304 173.9047,122.7314 C173.9047,122.0694 173.6687,121.5024 173.1967,121.0314 C172.7257,120.5684 172.1587,120.3374 171.4967,120.3374 C170.8437,120.3374 170.2817,120.5684 169.8097,121.0314 C169.3387,121.5024 169.1027,122.0694 169.1027,122.7314 C169.1027,122.7854 169.1077,122.8404 169.1167,122.8944 C169.1437,123.3394 169.0077,123.7244 168.7087,124.0514 C168.4177,124.3864 168.0507,124.5674 167.6067,124.5954 C167.1617,124.6224 166.7767,124.4904 166.4507,124.2004 C166.1157,123.9104 165.9337,123.5434 165.9067,123.0994 C165.8977,122.9724 165.8927,122.8494 165.8927,122.7314 C165.8927,121.1814 166.4417,119.8564 167.5387,118.7604 C168.6357,117.6624 169.9547,117.1134 171.4967,117.1134 C173.0477,117.1134 174.3707,117.6624 175.4687,118.7604 C176.5657,119.8564 177.1147,121.1814 177.1147,122.7314 C177.1147,123.5294 176.9507,124.2914 176.6247,125.0164 C176.5887,125.1064 176.5427,125.1934 176.4887,125.2744 L170.8707,133.4364 L176.0127,133.4364 C176.4567,133.4364 176.8327,133.5904 177.1417,133.8984 C177.4587,134.2164 177.6177,134.5974 177.6177,135.0404" id="Fill-43" fill="#FFAB3B"></path>
                        <path d="M184.9487,121.8471 C184.5317,121.9931 184.1237,121.9741 183.7247,121.7931 C183.3257,121.6031 183.0487,121.2991 182.8947,120.8811 C182.7497,120.4641 182.7677,120.0571 182.9487,119.6581 C183.1397,119.2581 183.4437,118.9821 183.8607,118.8271 L188.0497,117.3041 C188.5757,117.1231 189.0657,117.1911 189.5187,117.5081 C189.9717,117.8261 190.1987,118.2611 190.1987,118.8141 L190.1987,135.0401 C190.1987,135.4861 190.0447,135.8621 189.7367,136.1701 C189.4187,136.4881 189.0377,136.6461 188.5947,136.6461 C188.1497,136.6461 187.7737,136.4881 187.4657,136.1701 C187.1477,135.8621 186.9897,135.4861 186.9897,135.0401 L186.9897,121.0991 L184.9487,121.8471 Z" id="Fill-45" fill="#FFAB3B"></path>
                        <path d="M209.4863,130.9603 C209.4863,132.5293 208.9283,133.8663 207.8133,134.9733 C206.7063,136.0883 205.3693,136.6463 203.8003,136.6463 C202.2323,136.6463 200.8943,136.0883 199.7883,134.9733 C198.6733,133.8663 198.1153,132.5293 198.1153,130.9603 C198.1153,130.5163 198.2743,130.1403 198.5913,129.8313 C198.8993,129.5143 199.2763,129.3563 199.7203,129.3563 C200.1643,129.3563 200.5403,129.5143 200.8493,129.8313 C201.1663,130.1403 201.3253,130.5163 201.3253,130.9603 C201.3253,131.6403 201.5653,132.2253 202.0463,132.7153 C202.5353,133.1953 203.1203,133.4363 203.8003,133.4363 C204.4813,133.4363 205.0653,133.1953 205.5553,132.7153 C206.0353,132.2253 206.2763,131.6403 206.2763,130.9603 C206.2763,130.2803 206.0353,129.6953 205.5553,129.2053 C205.0653,128.7253 204.4813,128.4843 203.8003,128.4843 L200.2103,128.4843 C199.7653,128.4843 199.3893,128.3263 199.0813,128.0093 C198.7633,127.7003 198.6053,127.3243 198.6053,126.8803 L198.6053,118.7863 C198.6053,118.3433 198.7633,117.9663 199.0813,117.6573 C199.3893,117.3403 199.7653,117.1823 200.2103,117.1823 L207.8543,117.1823 C208.2983,117.1823 208.6743,117.3403 208.9833,117.6573 C209.3003,117.9663 209.4593,118.3433 209.4593,118.7863 C209.4593,119.2313 209.3003,119.6113 208.9833,119.9293 C208.6743,120.2373 208.2983,120.3923 207.8543,120.3923 L201.8153,120.3923 L201.8153,125.2743 L203.8003,125.2743 C205.3693,125.2743 206.7063,125.8323 207.8133,126.9473 C208.9283,128.0543 209.4863,129.3923 209.4863,130.9603" id="Fill-47" fill="#FFAB3B"></path>
                        <path d="M220.811,124.2601 C220.724,124.1731 220.615,124.0951 220.484,124.0261 L220.484,125.8381 C220.833,125.5761 221.017,125.2381 221.036,124.8201 C221.041,124.6141 220.967,124.4281 220.811,124.2601 L220.811,124.2601 Z M218.279,119.5601 C217.917,119.8221 217.728,120.1661 217.708,120.5971 C217.703,120.8021 217.777,120.9891 217.933,121.1561 C218.02,121.2441 218.135,121.3221 218.279,121.3911 L218.279,119.5601 Z M221.063,120.1391 C220.995,119.8771 220.802,119.6651 220.484,119.5031 L220.484,121.7181 C221.288,121.8861 221.929,122.2291 222.409,122.7451 C222.995,123.3631 223.269,124.0851 223.231,124.9141 C223.2,125.7051 222.926,126.4081 222.409,127.0261 C221.904,127.6241 221.263,128.0261 220.484,128.2311 L220.484,128.2961 C220.484,128.6021 220.375,128.8611 220.157,129.0721 C219.945,129.2901 219.686,129.3991 219.381,129.3991 C219.076,129.3991 218.817,129.2901 218.606,129.0721 C218.388,128.8611 218.279,128.6021 218.279,128.2961 L218.279,128.2401 C217.575,128.0781 216.983,127.7891 216.503,127.3711 C216.017,126.9481 215.696,126.4341 215.54,125.8291 C215.466,125.5311 215.503,125.2501 215.653,124.9891 C215.808,124.7271 216.033,124.5591 216.326,124.4841 C216.624,124.4031 216.905,124.4411 217.166,124.5961 C217.428,124.7511 217.597,124.9761 217.671,125.2691 C217.746,125.5361 217.948,125.7511 218.279,125.9131 L218.279,123.6981 C217.469,123.5311 216.821,123.1851 216.335,122.6611 C215.749,122.0451 215.475,121.3221 215.513,120.4941 C215.543,119.7021 215.821,118.9981 216.344,118.3821 C216.855,117.7781 217.499,117.3731 218.279,117.1671 L218.279,117.1021 C218.279,116.7971 218.388,116.5351 218.606,116.3171 C218.817,116.1051 219.076,115.9991 219.381,115.9991 C219.686,115.9991 219.945,116.1051 220.157,116.3171 C220.375,116.5351 220.484,116.7971 220.484,117.1021 L220.484,117.1761 C221.182,117.3391 221.768,117.6281 222.241,118.0451 C222.727,118.4691 223.047,118.9841 223.203,119.5871 C223.278,119.8801 223.237,120.1571 223.082,120.4191 C222.932,120.6811 222.708,120.8531 222.409,120.9331 C222.116,121.0081 221.839,120.9671 221.577,120.8121 C221.315,120.6611 221.144,120.4381 221.063,120.1391 L221.063,120.1391 Z" id="Fill-49" fill="#FFAB3B"></path>
                        <path d="M85.3438,186.5248 C83.8138,186.5248 82.5038,185.9828 81.4138,184.8988 C80.3298,183.8088 79.7878,182.4998 79.7878,180.9688 C79.7878,179.4338 80.3298,178.1248 81.4138,177.0398 C82.5038,175.9508 83.8138,175.4058 85.3438,175.4058 C86.6038,175.4058 87.7348,175.7898 88.7358,176.5568 C88.9328,176.7128 89.0498,176.9158 89.0868,177.1648 C89.1168,177.4188 89.0548,177.6468 88.8998,177.8488 C88.7438,178.0508 88.5418,178.1688 88.2928,178.1988 C88.0378,178.2298 87.8098,178.1708 87.6078,178.0198 C86.9438,177.5058 86.1888,177.2498 85.3438,177.2498 C84.3218,177.2498 83.4478,177.6128 82.7208,178.3388 C81.9948,179.0658 81.6318,179.9418 81.6318,180.9688 C81.6318,181.9918 81.9948,182.8658 82.7208,183.5908 C83.4478,184.3178 84.3218,184.6808 85.3438,184.6808 C86.3088,184.6808 87.1438,184.3588 87.8488,183.7158 C88.0358,183.5448 88.2568,183.4638 88.5108,183.4748 C88.7648,183.4848 88.9768,183.5868 89.1488,183.7778 C89.3198,183.9648 89.3998,184.1848 89.3898,184.4398 C89.3798,184.6938 89.2808,184.9068 89.0938,185.0778 C88.0308,186.0428 86.7808,186.5248 85.3438,186.5248" id="Fill-51" fill="#FFAB3B"></path>
                        <path d="M96.7427,182.3226 L95.2417,178.7126 L93.7467,182.3226 L96.7427,182.3226 Z M91.0477,186.4546 C90.8137,186.3556 90.6477,186.1896 90.5497,185.9566 C90.4557,185.7226 90.4557,185.4896 90.5497,185.2566 L91.5377,182.8836 L91.5377,182.8756 L94.4007,175.9666 C94.4107,175.9396 94.4247,175.9146 94.4397,175.8876 L94.4547,175.8486 C94.4707,175.8286 94.4807,175.8156 94.4867,175.8096 C94.4867,175.8046 94.4937,175.7926 94.5097,175.7716 C94.5257,175.7566 94.5357,175.7456 94.5407,175.7406 C94.5407,175.7346 94.5487,175.7246 94.5637,175.7096 C94.5847,175.6886 94.5957,175.6756 94.5957,175.6706 C94.6007,175.6656 94.6107,175.6576 94.6267,175.6466 C94.6467,175.6266 94.6597,175.6156 94.6657,175.6156 C94.6597,175.6156 94.6707,175.6076 94.6967,175.5926 C94.7177,175.5766 94.7297,175.5666 94.7357,175.5606 L94.7667,175.5386 C94.7927,175.5226 94.8077,175.5146 94.8127,175.5146 C94.8237,175.5096 94.8417,175.5016 94.8677,175.4916 C94.8937,175.4756 94.9017,175.4706 94.8907,175.4756 C94.8807,175.4806 94.8907,175.4756 94.9227,175.4606 C94.9487,175.4556 94.9667,175.4496 94.9767,175.4446 C94.9817,175.4446 94.9997,175.4396 95.0317,175.4286 L95.0617,175.4216 C95.0727,175.4216 95.0907,175.4186 95.1167,175.4136 L95.1557,175.4056 L95.2017,175.4056 L95.2417,175.4056 L95.2877,175.4056 L95.3347,175.4056 L95.3817,175.4136 L95.4197,175.4216 C95.4307,175.4216 95.4487,175.4266 95.4747,175.4366 C95.5057,175.4416 95.5157,175.4446 95.5057,175.4446 C95.5677,175.4606 95.6247,175.4836 95.6767,175.5146 C95.6717,175.5096 95.6817,175.5146 95.7077,175.5306 C95.7337,175.5456 95.7497,175.5556 95.7547,175.5606 L95.7857,175.5846 C95.8067,175.5996 95.8197,175.6106 95.8247,175.6156 C95.8297,175.6156 95.8407,175.6236 95.8557,175.6386 C95.8717,175.6546 95.8847,175.6656 95.8947,175.6706 C95.8947,175.6756 95.9027,175.6856 95.9177,175.7016 C95.9387,175.7216 95.9497,175.7346 95.9497,175.7406 L95.9727,175.7716 C95.9927,175.7926 96.0037,175.8046 96.0037,175.8096 C96.0037,175.8156 96.0117,175.8286 96.0267,175.8486 C96.0427,175.8706 96.0507,175.8836 96.0507,175.8876 C96.0657,175.9146 96.0787,175.9396 96.0897,175.9666 L98.9527,182.8756 L98.9527,182.8836 L99.9407,185.2566 C100.0347,185.4896 100.0347,185.7226 99.9407,185.9566 C99.8427,186.1896 99.6767,186.3556 99.4427,186.4546 C99.3287,186.5016 99.2117,186.5246 99.0927,186.5246 C98.6827,186.5246 98.4007,186.3356 98.2447,185.9566 L97.4977,184.1516 L92.9927,184.1516 L92.2457,185.9566 C92.0897,186.3356 91.8067,186.5246 91.3977,186.5246 L91.2187,186.5246 C91.2187,186.5246 91.1607,186.5016 91.0477,186.4546 L91.0477,186.4546 Z" id="Fill-53" fill="#FFAB3B"></path>
                        <path d="M108.7178,183.2025 C108.6758,184.1315 108.3058,184.9165 107.6048,185.5595 C106.8998,186.2035 106.0588,186.5245 105.0838,186.5245 C104.2388,186.5245 103.4818,186.3435 102.8118,185.9795 C102.0078,185.5445 101.4968,184.9115 101.2798,184.0815 C101.2168,183.8385 101.2478,183.6065 101.3728,183.3895 C101.5018,183.1715 101.6888,183.0305 101.9328,182.9695 C102.1768,182.9065 102.4068,182.9375 102.6258,183.0615 C102.8428,183.1915 102.9838,183.3785 103.0458,183.6225 C103.1388,183.9705 103.3928,184.2425 103.8078,184.4395 C104.1818,184.6105 104.6068,184.6965 105.0838,184.6965 C105.5718,184.6965 105.9888,184.5435 106.3368,184.2365 C106.6898,183.9355 106.8768,183.5625 106.8968,183.1165 C106.9068,182.8475 106.8118,182.6055 106.6098,182.3925 C106.2878,182.0515 105.7478,181.8745 104.9908,181.8635 L104.9828,181.8635 L104.9678,181.8635 L104.9518,181.8635 C103.6808,181.8435 102.7078,181.4775 102.0338,180.7665 C101.4788,180.1755 101.2198,179.4885 101.2558,178.7045 C101.2978,177.7705 101.6688,176.9825 102.3688,176.3395 C103.0688,175.6965 103.9088,175.3745 104.8898,175.3745 C105.7348,175.3745 106.4928,175.5565 107.1618,175.9195 C107.9658,176.3545 108.4768,176.9875 108.6948,177.8175 C108.7568,178.0615 108.7228,178.2925 108.5928,178.5105 C108.4688,178.7275 108.2848,178.8685 108.0408,178.9305 C107.7968,178.9925 107.5668,178.9615 107.3488,178.8375 C107.1308,178.7075 106.9898,178.5205 106.9278,178.2765 C106.8348,177.9295 106.5778,177.6565 106.1578,177.4605 C105.7898,177.2885 105.3668,177.2035 104.8898,177.2035 C104.4018,177.2035 103.9818,177.3555 103.6288,177.6625 C103.2808,177.9685 103.0968,178.3425 103.0768,178.7825 C103.0658,179.0525 103.1618,179.2965 103.3648,179.5145 C103.6858,179.8505 104.2258,180.0245 104.9828,180.0355 L105.0218,180.0355 C106.2928,180.0565 107.2648,180.4245 107.9398,181.1395 C108.4948,181.7265 108.7538,182.4135 108.7178,183.2025" id="Fill-55" fill="#FFAB3B"></path>
                        <path d="M118.3584,186.5248 C118.1044,186.5248 117.8864,186.4338 117.7044,186.2528 C117.5234,186.0708 117.4324,185.8528 117.4324,185.5988 L117.4324,181.8718 L112.6394,181.8718 L112.6394,185.5988 C112.6394,185.8528 112.5514,186.0708 112.3754,186.2528 C112.1934,186.4338 111.9754,186.5248 111.7214,186.5248 C111.4664,186.5248 111.2494,186.4338 111.0674,186.2528 C110.8854,186.0708 110.7954,185.8528 110.7954,185.5988 L110.7954,176.2998 C110.7954,176.0458 110.8854,175.8288 111.0674,175.6468 C111.2494,175.4648 111.4664,175.3748 111.7214,175.3748 C111.9754,175.3748 112.1934,175.4648 112.3754,175.6468 C112.5514,175.8288 112.6394,176.0458 112.6394,176.2998 L112.6394,180.0278 L117.4324,180.0278 L117.4324,176.2998 C117.4324,176.0458 117.5234,175.8288 117.7044,175.6468 C117.8864,175.4648 118.1044,175.3748 118.3584,175.3748 C118.6124,175.3748 118.8304,175.4648 119.0124,175.6468 C119.1934,175.8288 119.2844,176.0458 119.2844,176.2998 L119.2844,185.5988 C119.2844,185.8528 119.1934,186.0708 119.0124,186.2528 C118.8304,186.4338 118.6124,186.5248 118.3584,186.5248" id="Fill-57" fill="#FFAB3B"></path>
                        <path d="M212.7642,183.2719 C212.7642,184.1699 212.4452,184.9349 211.8072,185.5679 C211.1742,186.2059 210.4092,186.5249 209.5122,186.5249 C208.6142,186.5249 207.8492,186.2059 207.2162,185.5679 C206.5782,184.9349 206.2592,184.1699 206.2592,183.2719 C206.2592,183.0179 206.3502,182.8029 206.5322,182.6259 C206.7082,182.4449 206.9232,182.3539 207.1782,182.3539 C207.4312,182.3539 207.6472,182.4449 207.8232,182.6259 C208.0052,182.8029 208.0962,183.0179 208.0962,183.2719 C208.0962,183.6619 208.2332,183.9959 208.5082,184.2759 C208.7882,184.5509 209.1232,184.6889 209.5122,184.6889 C209.9012,184.6889 210.2352,184.5509 210.5152,184.2759 C210.7902,183.9959 210.9282,183.6619 210.9282,183.2719 C210.9282,182.8829 210.7902,182.5479 210.5152,182.2689 C210.2352,181.9939 209.9012,181.8559 209.5122,181.8559 C209.1752,181.8559 208.9182,181.7159 208.7422,181.4359 C208.5602,181.1509 208.5392,180.8579 208.6792,180.5569 L210.2202,177.2109 L207.1782,177.2109 C206.9232,177.2109 206.7082,177.1209 206.5322,176.9389 C206.3502,176.7619 206.2592,176.5469 206.2592,176.2929 C206.2592,176.0389 206.3502,175.8209 206.5322,175.6389 C206.7082,175.4629 206.9232,175.3749 207.1782,175.3749 L211.6522,175.3749 C211.9832,175.3749 212.2402,175.5149 212.4222,175.7939 C212.6032,176.0749 212.6242,176.3679 212.4842,176.6739 L210.8192,180.2929 C211.4002,180.5519 211.8672,180.9459 212.2202,181.4749 C212.5822,182.0199 212.7642,182.6189 212.7642,183.2719" id="Fill-59" fill="#FFAB3B"></path>
                        <path d="M220.063,178.6351 C220.063,178.2451 219.925,177.9111 219.65,177.6311 C219.37,177.3561 219.036,177.2191 218.646,177.2191 C218.258,177.2191 217.926,177.3561 217.651,177.6311 C217.375,177.9111 217.238,178.2451 217.238,178.6351 L217.238,183.2871 C217.238,183.6771 217.375,184.0091 217.651,184.2831 C217.926,184.5591 218.258,184.6971 218.646,184.6971 C219.036,184.6971 219.37,184.5591 219.65,184.2831 C219.925,184.0091 220.063,183.6771 220.063,183.2871 L220.063,178.6351 Z M218.646,175.3901 C219.544,175.3901 220.309,175.7061 220.942,176.3391 C221.575,176.9721 221.892,177.7381 221.892,178.6351 L221.892,183.2871 C221.892,184.1801 221.575,184.9431 220.942,185.5751 C220.309,186.2081 219.544,186.5251 218.646,186.5251 C217.754,186.5251 216.992,186.2081 216.359,185.5751 C215.726,184.9431 215.41,184.1801 215.41,183.2871 L215.41,178.6351 C215.41,177.7381 215.726,176.9721 216.359,176.3391 C216.992,175.7061 217.754,175.3901 218.646,175.3901 L218.646,175.3901 Z" id="Fill-61" fill="#FFAB3B"></path>
                        <path d="M229.2056,178.6351 C229.2056,178.2451 229.0676,177.9111 228.7926,177.6311 C228.5126,177.3561 228.1786,177.2191 227.7886,177.2191 C227.4006,177.2191 227.0686,177.3561 226.7936,177.6311 C226.5176,177.9111 226.3806,178.2451 226.3806,178.6351 L226.3806,183.2871 C226.3806,183.6771 226.5176,184.0091 226.7936,184.2831 C227.0686,184.5591 227.4006,184.6971 227.7886,184.6971 C228.1786,184.6971 228.5126,184.5591 228.7926,184.2831 C229.0676,184.0091 229.2056,183.6771 229.2056,183.2871 L229.2056,178.6351 Z M227.7886,175.3901 C228.6866,175.3901 229.4516,175.7061 230.0846,176.3391 C230.7176,176.9721 231.0346,177.7381 231.0346,178.6351 L231.0346,183.2871 C231.0346,184.1801 230.7176,184.9431 230.0846,185.5751 C229.4516,186.2081 228.6866,186.5251 227.7886,186.5251 C226.8966,186.5251 226.1346,186.2081 225.5016,185.5751 C224.8686,184.9431 224.5526,184.1801 224.5526,183.2871 L224.5526,178.6351 C224.5526,177.7381 224.8686,176.9721 225.5016,176.3391 C226.1346,175.7061 226.8966,175.3901 227.7886,175.3901 L227.7886,175.3901 Z" id="Fill-63" fill="#FFAB3B"></path>
                        <path d="M220.0791,205.8285 C220.0791,205.4345 219.9411,205.0995 219.6661,204.8255 C219.3861,204.5505 219.0521,204.4125 218.6621,204.4125 C218.2741,204.4125 217.9421,204.5505 217.6671,204.8255 C217.3911,205.0995 217.2541,205.4345 217.2541,205.8285 C217.2541,206.2185 217.3911,206.5505 217.6671,206.8245 C217.9421,207.0995 218.2741,207.2375 218.6621,207.2375 C219.0521,207.2375 219.3861,207.0995 219.6661,206.8245 C219.9411,206.5505 220.0791,206.2185 220.0791,205.8285 M217.2541,201.1765 C217.2541,201.5645 217.3911,201.8965 217.6671,202.1725 C217.9421,202.4465 218.2741,202.5845 218.6621,202.5845 C219.0521,202.5845 219.3861,202.4465 219.6661,202.1725 C219.9411,201.8965 220.0791,201.5645 220.0791,201.1765 C220.0791,200.7865 219.9411,200.4525 219.6661,200.1725 C219.3861,199.8965 219.0521,199.7605 218.6621,199.7605 C218.2741,199.7605 217.9421,199.8965 217.6671,200.1725 C217.3911,200.4525 217.2541,200.7865 217.2541,201.1765 M221.9071,201.1765 C221.9071,202.0895 221.5781,202.8645 220.9191,203.5025 C221.5781,204.1405 221.9071,204.9165 221.9071,205.8285 C221.9071,206.7215 221.5911,207.4835 220.9581,208.1165 C220.3251,208.7495 219.5601,209.0655 218.6621,209.0655 C217.7701,209.0655 217.0081,208.7495 216.3751,208.1165 C215.7421,207.4835 215.4261,206.7215 215.4261,205.8285 C215.4261,204.9165 215.7551,204.1405 216.4141,203.5025 C215.7551,202.8645 215.4261,202.0895 215.4261,201.1765 C215.4261,200.2785 215.7421,199.5135 216.3751,198.8805 C217.0081,198.2475 217.7701,197.9315 218.6621,197.9315 C219.5601,197.9315 220.3251,198.2475 220.9581,198.8805 C221.5911,199.5135 221.9071,200.2785 221.9071,201.1765" id="Fill-65" fill="#FFAB3B"></path>
                        <path d="M231.1592,205.8129 C231.1592,206.7109 230.8402,207.4759 230.2012,208.1089 C229.5692,208.7469 228.8042,209.0659 227.9062,209.0659 C227.0092,209.0659 226.2432,208.7469 225.6112,208.1089 C224.9732,207.4759 224.6542,206.7109 224.6542,205.8129 C224.6542,205.5589 224.7442,205.3439 224.9262,205.1669 C225.1022,204.9859 225.3182,204.8949 225.5722,204.8949 C225.8262,204.8949 226.0412,204.9859 226.2182,205.1669 C226.3992,205.3439 226.4902,205.5589 226.4902,205.8129 C226.4902,206.2029 226.6282,206.5369 226.9032,206.8169 C227.1822,207.0919 227.5172,207.2299 227.9062,207.2299 C228.2952,207.2299 228.6302,207.0919 228.9102,206.8169 C229.1852,206.5369 229.3232,206.2029 229.3232,205.8129 C229.3232,205.4239 229.1852,205.0889 228.9102,204.8099 C228.6302,204.5349 228.2952,204.3969 227.9062,204.3969 L225.8522,204.3969 C225.5982,204.3969 225.3832,204.3059 225.2062,204.1249 C225.0252,203.9489 224.9342,203.7329 224.9342,203.4789 L224.9342,198.8489 C224.9342,198.5949 225.0252,198.3799 225.2062,198.2039 C225.3832,198.0219 225.5982,197.9309 225.8522,197.9309 L230.2252,197.9309 C230.4792,197.9309 230.6952,198.0219 230.8712,198.2039 C231.0532,198.3799 231.1432,198.5949 231.1432,198.8489 C231.1432,199.1039 231.0532,199.3219 230.8712,199.5029 C230.6952,199.6789 230.4792,199.7679 230.2252,199.7679 L226.7702,199.7679 L226.7702,202.5609 L227.9062,202.5609 C228.8042,202.5609 229.5692,202.8799 230.2012,203.5179 C230.8402,204.1509 231.1592,204.9169 231.1592,205.8129" id="Fill-67" fill="#FFAB3B"></path>
                        <path d="M85.3438,209.0658 C83.8138,209.0658 82.5038,208.5238 81.4138,207.4398 C80.3298,206.3498 79.7878,205.0408 79.7878,203.5098 C79.7878,201.9748 80.3298,200.6658 81.4138,199.5808 C82.5038,198.4918 83.8138,197.9468 85.3438,197.9468 C86.6038,197.9468 87.7348,198.3308 88.7358,199.0978 C88.9328,199.2538 89.0498,199.4568 89.0868,199.7058 C89.1168,199.9598 89.0548,200.1878 88.8998,200.3898 C88.7438,200.5918 88.5418,200.7098 88.2928,200.7398 C88.0378,200.7708 87.8098,200.7118 87.6078,200.5608 C86.9438,200.0468 86.1888,199.7908 85.3438,199.7908 C84.3218,199.7908 83.4478,200.1538 82.7208,200.8798 C81.9948,201.6068 81.6318,202.4828 81.6318,203.5098 C81.6318,204.5328 81.9948,205.4068 82.7208,206.1318 C83.4478,206.8588 84.3218,207.2218 85.3438,207.2218 C86.3088,207.2218 87.1438,206.8998 87.8488,206.2568 C88.0358,206.0858 88.2568,206.0048 88.5108,206.0158 C88.7648,206.0258 88.9768,206.1278 89.1488,206.3188 C89.3198,206.5058 89.3998,206.7258 89.3898,206.9808 C89.3798,207.2348 89.2808,207.4478 89.0938,207.6188 C88.0308,208.5838 86.7808,209.0658 85.3438,209.0658" id="Fill-69" fill="#FFAB3B"></path>
                        <path d="M98.7271,209.0658 C98.4731,209.0658 98.2551,208.9748 98.0731,208.7938 C97.8921,208.6118 97.8011,208.3938 97.8011,208.1398 L97.8011,204.4128 L93.0081,204.4128 L93.0081,208.1398 C93.0081,208.3938 92.9201,208.6118 92.7441,208.7938 C92.5621,208.9748 92.3441,209.0658 92.0901,209.0658 C91.8351,209.0658 91.6181,208.9748 91.4361,208.7938 C91.2541,208.6118 91.1641,208.3938 91.1641,208.1398 L91.1641,198.8408 C91.1641,198.5868 91.2541,198.3698 91.4361,198.1878 C91.6181,198.0058 91.8351,197.9158 92.0901,197.9158 C92.3441,197.9158 92.5621,198.0058 92.7441,198.1878 C92.9201,198.3698 93.0081,198.5868 93.0081,198.8408 L93.0081,202.5688 L97.8011,202.5688 L97.8011,198.8408 C97.8011,198.5868 97.8921,198.3698 98.0731,198.1878 C98.2551,198.0058 98.4731,197.9158 98.7271,197.9158 C98.9811,197.9158 99.1991,198.0058 99.3811,198.1878 C99.5621,198.3698 99.6531,198.5868 99.6531,198.8408 L99.6531,208.1398 C99.6531,208.3938 99.5621,208.6118 99.3811,208.7938 C99.1991,208.9748 98.9811,209.0658 98.7271,209.0658" id="Fill-71" fill="#FFAB3B"></path>
                        <path d="M107.8384,204.8637 L106.3374,201.2537 L104.8424,204.8637 L107.8384,204.8637 Z M102.1434,208.9957 C101.9094,208.8967 101.7434,208.7307 101.6454,208.4977 C101.5514,208.2637 101.5514,208.0307 101.6454,207.7977 L102.6334,205.4247 L102.6334,205.4167 L105.4964,198.5077 C105.5064,198.4807 105.5204,198.4557 105.5354,198.4287 L105.5504,198.3897 C105.5664,198.3697 105.5764,198.3567 105.5824,198.3507 C105.5824,198.3457 105.5894,198.3337 105.6054,198.3127 C105.6214,198.2977 105.6314,198.2867 105.6364,198.2817 C105.6364,198.2757 105.6444,198.2657 105.6594,198.2507 C105.6804,198.2297 105.6914,198.2167 105.6914,198.2117 C105.6964,198.2067 105.7064,198.1987 105.7224,198.1877 C105.7424,198.1677 105.7554,198.1567 105.7614,198.1567 C105.7554,198.1567 105.7664,198.1487 105.7924,198.1337 C105.8134,198.1177 105.8254,198.1077 105.8314,198.1017 L105.8624,198.0797 C105.8884,198.0637 105.9034,198.0557 105.9084,198.0557 C105.9194,198.0507 105.9374,198.0427 105.9634,198.0327 C105.9894,198.0167 105.9974,198.0117 105.9864,198.0167 C105.9764,198.0217 105.9864,198.0167 106.0184,198.0017 C106.0444,197.9967 106.0624,197.9907 106.0724,197.9857 C106.0774,197.9857 106.0954,197.9807 106.1274,197.9697 L106.1574,197.9627 C106.1684,197.9627 106.1864,197.9597 106.2124,197.9547 L106.2514,197.9467 L106.2974,197.9467 L106.3374,197.9467 L106.3834,197.9467 L106.4304,197.9467 L106.4774,197.9547 L106.5154,197.9627 C106.5264,197.9627 106.5444,197.9677 106.5704,197.9777 C106.6014,197.9827 106.6114,197.9857 106.6014,197.9857 C106.6634,198.0017 106.7204,198.0247 106.7724,198.0557 C106.7674,198.0507 106.7774,198.0557 106.8034,198.0717 C106.8294,198.0867 106.8454,198.0967 106.8504,198.1017 L106.8814,198.1257 C106.9024,198.1407 106.9154,198.1517 106.9204,198.1567 C106.9254,198.1567 106.9364,198.1647 106.9514,198.1797 C106.9674,198.1957 106.9804,198.2067 106.9904,198.2117 C106.9904,198.2167 106.9984,198.2267 107.0134,198.2427 C107.0344,198.2627 107.0454,198.2757 107.0454,198.2817 L107.0684,198.3127 C107.0884,198.3337 107.0994,198.3457 107.0994,198.3507 C107.0994,198.3567 107.1074,198.3697 107.1224,198.3897 C107.1384,198.4117 107.1464,198.4247 107.1464,198.4287 C107.1614,198.4557 107.1744,198.4807 107.1854,198.5077 L110.0484,205.4167 L110.0484,205.4247 L111.0364,207.7977 C111.1304,208.0307 111.1304,208.2637 111.0364,208.4977 C110.9384,208.7307 110.7724,208.8967 110.5384,208.9957 C110.4244,209.0427 110.3074,209.0657 110.1884,209.0657 C109.7784,209.0657 109.4964,208.8767 109.3404,208.4977 L108.5934,206.6927 L104.0884,206.6927 L103.3414,208.4977 C103.1854,208.8767 102.9024,209.0657 102.4934,209.0657 L102.3144,209.0657 C102.3144,209.0657 102.2564,209.0427 102.1434,208.9957 L102.1434,208.9957 Z" id="Fill-73" fill="#FFAB3B"></path>
                        <path d="M120.1948,208.7152 L120.1868,208.7152 L120.1868,208.7072 L114.5918,201.5102 L114.5918,208.1482 C114.5918,208.4022 114.5018,208.6172 114.3198,208.7932 C114.1438,208.9752 113.9278,209.0662 113.6738,209.0662 C113.4198,209.0662 113.2048,208.9752 113.0278,208.7932 C112.8468,208.6172 112.7568,208.4022 112.7568,208.1482 L112.7568,198.8252 C112.7568,198.6292 112.8128,198.4522 112.9268,198.2972 C113.0418,198.1362 113.1918,198.0252 113.3788,197.9622 C113.5598,197.8952 113.7468,197.8902 113.9388,197.9462 C114.1258,198.0042 114.2788,198.1102 114.3978,198.2662 L119.9928,205.4712 L119.9928,198.8252 C119.9928,198.5712 120.0808,198.3572 120.2568,198.1802 C120.4388,197.9982 120.6558,197.9072 120.9108,197.9072 C121.1648,197.9072 121.3798,197.9982 121.5568,198.1802 C121.7378,198.3572 121.8288,198.5712 121.8288,198.8252 L121.8288,208.1632 C121.8288,208.1732 121.8258,208.1892 121.8208,208.2102 L121.8208,208.2482 C121.8208,208.2592 121.8188,208.2752 121.8138,208.2952 C121.8138,208.3162 121.8108,208.3312 121.8058,208.3422 L121.7978,208.3812 C121.7928,208.4062 121.7868,208.4222 121.7818,208.4282 C121.7818,208.4332 121.7768,208.4452 121.7668,208.4662 C121.7608,208.4872 121.7568,208.5032 121.7508,208.5132 L121.7358,208.5522 L121.7118,208.5912 C121.7068,208.6022 121.6988,208.6172 121.6888,208.6382 L121.6658,208.6612 C121.6598,208.6712 121.6498,208.6872 121.6338,208.7072 L121.6108,208.7382 C121.6058,208.7442 121.5948,208.7542 121.5798,208.7702 C121.5648,208.7912 121.5538,208.8012 121.5488,208.8012 C121.5488,208.8062 121.5378,208.8172 121.5178,208.8322 C121.5018,208.8482 121.4888,208.8592 121.4788,208.8632 C121.4938,208.8532 121.4918,208.8562 121.4708,208.8712 L121.4628,208.8792 C121.4218,208.9102 121.3828,208.9362 121.3458,208.9562 L121.3388,208.9562 C121.2968,208.9782 121.2558,208.9952 121.2148,209.0112 C121.1938,209.0222 121.1878,209.0252 121.1988,209.0192 C121.1568,209.0342 121.1128,209.0452 121.0668,209.0502 L121.0428,209.0582 C120.9958,209.0632 120.9518,209.0662 120.9108,209.0662 C120.8798,209.0662 120.8458,209.0632 120.8098,209.0582 C120.8198,209.0632 120.8148,209.0632 120.7938,209.0582 C120.7628,209.0532 120.7368,209.0472 120.7158,209.0422 C120.7208,209.0472 120.7108,209.0452 120.6848,209.0342 C120.6588,209.0292 120.6378,209.0252 120.6228,209.0192 C120.6178,209.0192 120.6078,209.0142 120.5918,209.0032 C120.5658,208.9982 120.5448,208.9902 120.5288,208.9802 C120.5188,208.9802 120.5088,208.9752 120.4978,208.9642 C120.4778,208.9542 120.4598,208.9462 120.4438,208.9422 C120.4278,208.9312 120.4178,208.9232 120.4128,208.9182 C120.3968,208.9072 120.3788,208.8952 120.3588,208.8792 C120.3428,208.8682 120.3318,208.8612 120.3268,208.8562 C120.3008,208.8352 120.2778,208.8142 120.2568,208.7932 L120.2498,208.7852 L120.2498,208.7772 C120.2288,208.7572 120.2178,208.7462 120.2178,208.7462 C120.2178,208.7462 120.2108,208.7362 120.1948,208.7152" id="Fill-75" fill="#FFAB3B"></path>
                        <path d="M129.3452,209.0346 C127.8092,209.0346 126.4972,208.4896 125.4082,207.4006 C124.3192,206.3106 123.7742,204.9996 123.7742,203.4636 C123.7742,201.9286 124.3192,200.6186 125.4082,199.5336 C126.4972,198.4446 127.8092,197.8996 129.3452,197.8996 C130.6052,197.8996 131.7342,198.2836 132.7302,199.0516 C132.9322,199.2076 133.0512,199.4126 133.0882,199.6666 C133.1192,199.9156 133.0562,200.1406 132.9012,200.3436 C132.7452,200.5456 132.5432,200.6626 132.2942,200.6936 C132.0402,200.7296 131.8112,200.6706 131.6092,200.5136 C130.9402,200.0016 130.1852,199.7446 129.3452,199.7446 C128.3182,199.7446 127.4392,200.1066 126.7072,200.8336 C125.9812,201.5646 125.6182,202.4416 125.6182,203.4636 C125.6182,204.4906 125.9812,205.3696 126.7072,206.1006 C127.4392,206.8276 128.3182,207.1906 129.3452,207.1906 C130.3042,207.1906 131.1402,206.8666 131.8502,206.2186 C131.8612,206.2076 131.8792,206.1916 131.9052,206.1716 L131.9132,204.1326 L128.8702,204.1326 C128.6112,204.1326 128.3932,204.0446 128.2172,203.8686 C128.0352,203.6866 127.9452,203.4696 127.9452,203.2146 C127.9452,202.9606 128.0352,202.7426 128.2172,202.5606 C128.3932,202.3796 128.6112,202.2886 128.8702,202.2886 L132.8392,202.2886 C133.0932,202.2886 133.3112,202.3796 133.4922,202.5606 C133.6742,202.7426 133.7642,202.9606 133.7642,203.2146 L133.7412,208.1476 C133.7412,208.4016 133.6502,208.6176 133.4692,208.7936 C133.2922,208.9746 133.0772,209.0656 132.8232,209.0656 L132.8152,209.0656 C132.6082,209.0656 132.4212,209.0016 132.2552,208.8716 C132.0942,208.7466 131.9882,208.5886 131.9362,208.3966 C131.1212,208.8216 130.2582,209.0346 129.3452,209.0346" id="Fill-77" fill="#FFAB3B"></path>
                        <path d="M142.5728,207.2221 C142.8268,207.2221 143.0428,207.3131 143.2188,207.4941 C143.4008,207.6761 143.4908,207.8941 143.4908,208.1481 C143.4908,208.4021 143.4008,208.6181 143.2188,208.7931 C143.0428,208.9751 142.8268,209.0661 142.5728,209.0661 L136.9398,209.0661 C136.6848,209.0661 136.4698,208.9751 136.2938,208.7931 C136.1118,208.6181 136.0218,208.4021 136.0218,208.1481 L136.0218,198.8181 C136.0218,198.5591 136.1118,198.3411 136.2938,198.1641 C136.4698,197.9831 136.6848,197.8921 136.9398,197.8921 L136.9478,197.8921 L142.5728,197.9081 C142.8268,197.9081 143.0448,197.9981 143.2268,198.1801 C143.4028,198.3621 143.4908,198.5791 143.4908,198.8331 C143.4908,199.0881 143.4008,199.3031 143.2188,199.4801 C143.0428,199.6611 142.8268,199.7521 142.5728,199.7521 L142.5648,199.7521 L137.8648,199.7371 L137.8648,202.5611 L141.2578,202.5611 C141.5118,202.5611 141.7298,202.6491 141.9118,202.8261 C142.0938,203.0071 142.1838,203.2251 142.1838,203.4791 C142.1838,203.7331 142.0938,203.9511 141.9118,204.1321 C141.7298,204.3091 141.5118,204.3971 141.2578,204.3971 L137.8648,204.3971 L137.8648,207.2221 L142.5728,207.2221 Z" id="Fill-79" fill="#FFAB3B"></path>
                        <path d="M66.335,220.8978 L246,220.8978" id="Stroke-81" stroke="#FFAB3B" stroke-width="2" stroke-linecap="round"></path>
                        <path d="M228.0679,363.392 L228.1949,363.525 C228.3649,363.758 228.5649,363.967 228.7929,364.146 L234.1029,369.703 L239.4409,364.172 C239.6819,363.988 239.8939,363.762 240.0699,363.52 L240.1979,363.392 L240.1629,363.392 C240.5029,362.876 240.7019,362.259 240.7019,361.595 C240.7019,359.791 239.2289,358.323 237.4159,358.323 C236.8219,358.323 236.2689,358.481 235.7839,358.754 C235.7739,358.76 235.7679,358.764 235.7579,358.775 C235.7349,358.788 235.7099,358.801 235.6829,358.814 C234.5449,359.488 233.4359,359.229 232.8289,358.986 C232.2759,358.568 231.5939,358.323 230.8489,358.323 C229.0359,358.323 227.5669,359.791 227.5669,361.595 C227.5669,362.259 227.7629,362.876 228.1029,363.392 L228.0679,363.392 Z" id="Fill-83" fill="#FFAB3B"></path>
                        <path d="M240.1299,377.2396 L240.0019,377.1036 C239.8309,376.8716 239.6329,376.6626 239.4049,376.4766 L234.0979,370.9246 L228.7569,376.4576 C228.5189,376.6416 228.3009,376.8606 228.1279,377.1096 L228.0029,377.2396 L228.0349,377.2396 C227.6979,377.7536 227.4989,378.3706 227.4989,379.0326 C227.4989,380.8426 228.9689,382.3066 230.7849,382.3066 C231.3749,382.3066 231.9299,382.1486 232.4139,381.8726 L232.4429,381.8546 C232.4649,381.8426 232.4909,381.8286 232.5139,381.8156 C233.6529,381.1406 234.7629,381.4006 235.3719,381.6436 C235.9209,382.0606 236.6039,382.3066 237.3479,382.3066 C239.1599,382.3066 240.6339,380.8426 240.6339,379.0326 C240.6339,378.3706 240.4349,377.7536 240.0949,377.2396 L240.1299,377.2396 Z" id="Fill-85" fill="#FFAB3B"></path>
                        <path d="M245.6914,371.9984 C245.6844,371.9894 245.6814,371.9784 245.6714,371.9724 C245.6564,371.9404 245.6434,371.9174 245.6244,371.8914 C244.9564,370.7524 245.2164,369.6514 245.4614,369.0454 C245.8744,368.4964 246.1214,367.8124 246.1214,367.0714 C246.1214,365.2644 244.6514,363.7954 242.8384,363.7954 C242.1744,363.7954 241.5594,363.9964 241.0434,364.3334 L241.0434,364.2964 L240.9084,364.4244 C240.6734,364.5964 240.4624,364.7944 240.2794,365.0174 L234.7124,370.3174 L240.2594,375.6454 C240.4454,375.8814 240.6674,376.0934 240.9154,376.2714 L241.0434,376.3964 L241.0434,376.3624 C241.5594,376.6994 242.1744,376.8954 242.8384,376.8954 C244.6514,376.8954 246.1214,375.4304 246.1214,373.6214 C246.1214,373.0284 245.9644,372.4734 245.6914,371.9984" id="Fill-87" fill="#FFAB3B"></path>
                        <path d="M227.2935,376.2016 C227.5245,376.0336 227.7355,375.8356 227.9165,375.6086 L233.4855,370.3116 L227.9415,364.9836 C227.7555,364.7486 227.5305,364.5366 227.2845,364.3576 L227.1565,364.2326 L227.1565,364.2656 C226.6415,363.9306 226.0225,363.7336 225.3565,363.7336 C223.5455,363.7336 222.0765,365.1996 222.0765,367.0086 C222.0765,367.5996 222.2335,368.1526 222.5095,368.6316 C222.5165,368.6396 222.5195,368.6466 222.5265,368.6576 C222.5425,368.6846 222.5545,368.7086 222.5715,368.7396 C223.2415,369.8706 222.9815,370.9776 222.7415,371.5816 C222.3245,372.1336 222.0765,372.8136 222.0765,373.5576 C222.0765,375.3656 223.5455,376.8316 225.3565,376.8316 C226.0225,376.8316 226.6415,376.6326 227.1565,376.2966 L227.1565,376.3296 L227.2935,376.2016 Z" id="Fill-89" fill="#FFAB3B"></path>
                        <path d="M176.1553,304.5941 L248.7263,304.5941 C252.3453,304.5941 255.2783,307.5281 255.2783,311.1461 L255.2783,395.3081 L182.7073,395.3081 L182.7073,311.1461 C182.7073,307.5281 179.7743,304.5941 176.1553,304.5941 C172.5363,304.5941 169.6033,307.5281 169.6033,311.1461 L169.6033,348.6711 C169.6033,352.2891 166.6703,355.2231 163.0513,355.2231 C159.4333,355.2231 156.5003,352.2891 156.5003,348.6711 L156.5003,244.8961 C156.5003,241.2781 153.5673,238.3441 149.9483,238.3441 L222.5193,238.3441 C226.1383,238.3441 229.0713,241.2781 229.0713,244.8961 L229.0713,304.5941" id="Stroke-91" stroke="#FFAB3B" stroke-width="2"></path>
                        <path d="M163.0518,355.223 L182.7068,355.223" id="Stroke-93" stroke="#FFAB3B" stroke-width="2"></path>
                        <path d="M185.1509,253.0629 C185.1509,254.4519 184.0249,255.5789 182.6359,255.5789 C181.2479,255.5789 180.1219,254.4519 180.1219,253.0629 C180.1219,251.6739 181.2479,250.5489 182.6359,250.5489 C184.0249,250.5489 185.1509,251.6739 185.1509,253.0629" id="Fill-95" fill="#FFAB3B"></path>
                        <path d="M191.6216,253.0629 L219.3716,253.0629" id="Stroke-97" stroke="#FFAB3B" stroke-width="2" stroke-linecap="round" stroke-linejoin="round"></path>
                        <path d="M185.1509,264.4447 C185.1509,265.8337 184.0249,266.9607 182.6359,266.9607 C181.2479,266.9607 180.1219,265.8337 180.1219,264.4447 C180.1219,263.0557 181.2479,261.9307 182.6359,261.9307 C184.0249,261.9307 185.1509,263.0557 185.1509,264.4447" id="Fill-99" fill="#FFAB3B"></path>
                        <path d="M191.6216,264.4447 L219.3716,264.4447" id="Stroke-101" stroke="#FFAB3B" stroke-width="2" stroke-linecap="round" stroke-linejoin="round"></path>
                        <path d="M185.1509,275.8256 C185.1509,277.2146 184.0249,278.3416 182.6359,278.3416 C181.2479,278.3416 180.1219,277.2146 180.1219,275.8256 C180.1219,274.4366 181.2479,273.3116 182.6359,273.3116 C184.0249,273.3116 185.1509,274.4366 185.1509,275.8256" id="Fill-103" fill="#FFAB3B"></path>
                        <path d="M191.6216,275.8256 L219.3716,275.8256" id="Stroke-105" stroke="#FFAB3B" stroke-width="2" stroke-linecap="round" stroke-linejoin="round"></path>
                        <path d="M212.029,318.514 C212.029,319.903 210.903,321.03 209.514,321.03 C208.126,321.03 207,319.903 207,318.514 C207,317.125 208.126,316 209.514,316 C210.903,316 212.029,317.125 212.029,318.514" id="Fill-107" fill="#FFAB3B"></path>
                        <path d="M218.3716,318.9965 L246.1216,318.9965" id="Stroke-109" stroke="#FFAB3B" stroke-width="2" stroke-linecap="round" stroke-linejoin="round"></path>
                        <path d="M212.029,329.514 C212.029,330.903 210.903,332.03 209.514,332.03 C208.126,332.03 207,330.903 207,329.514 C207,328.125 208.126,327 209.514,327 C210.903,327 212.029,328.125 212.029,329.514" id="Fill-111" fill="#FFAB3B"></path>
                        <path d="M218.3716,330.3559 L246.1216,330.3559" id="Stroke-113" stroke="#FFAB3B" stroke-width="2" stroke-linecap="round" stroke-linejoin="round"></path>
                        <path d="M212.029,340.514 C212.029,341.903 210.903,343.03 209.514,343.03 C208.126,343.03 207,341.903 207,340.514 C207,339.125 208.126,338 209.514,338 C210.903,338 212.029,339.125 212.029,340.514" id="Fill-115" fill="#FFAB3B"></path>
                        <path d="M218.3716,341.7152 L246.1216,341.7152" id="Stroke-117" stroke="#FFAB3B" stroke-width="2" stroke-linecap="round" stroke-linejoin="round"></path>
                        <path d="M136.8335,230.7221 L136.8335,245.9661 L156.3755,245.9661 L156.3755,244.7651 C156.3755,241.1471 153.4425,238.2131 149.8245,238.2131 L222.3955,238.2131 C226.0145,238.2131 228.9475,241.1471 228.9475,244.7651 L228.9475,245.9661 L232.8335,245.9661 L232.8335,230.7221 L136.8335,230.7221 Z" id="Fill-119" fill="#FFAB3B"></path>
                        <path d="M66.335,257.1234 L156.5,257.1234" id="Stroke-121" stroke="#FFAB3B" stroke-width="1.785"></path>
                        <path d="M228.5,257.1234 L246,257.1234" id="Stroke-123" stroke="#FFAB3B" stroke-width="1.785"></path>
                        <path d="M228.5,285.0648 L246,285.0648" id="Stroke-125" stroke="#FFAB3B" stroke-width="1.785"></path>
                        <path d="M66.335,285.0648 L156.5,285.0648" id="Stroke-127" stroke="#FFAB3B" stroke-width="1.785"></path>
                        <path d="M66.335,313.0062 L156.5,313.0062" id="Stroke-129" stroke="#FFAB3B" stroke-width="1.785"></path>
                        <path d="M115.1768,257.1234 L115.1768,340.9474" id="Stroke-131" stroke="#FFAB3B" stroke-width="1.785"></path>
                        <polyline id="Stroke-133" stroke="#FFAB3B" stroke-width="2" stroke-linecap="round" stroke-linejoin="round" points="263.1118 23.0443 268.1488 28.9933 278.9638 16.3773"></polyline>
                        <path d="M270.7261,39.8519 C261.4361,39.8519 253.9071,32.3249 253.9071,23.0419 C253.9071,13.7579 261.4361,6.2309 270.7261,6.2309 C280.0151,6.2309 287.5481,13.7579 287.5481,23.0419 C287.5481,32.3249 280.0151,39.8519 270.7261,39.8519 M283.9731,4.4189 C273.1141,-3.2551 258.0871,-0.6771 250.4071,10.1729 C247.8141,13.8379 246.4151,17.9789 246.0831,22.1509 L246.0561,22.1269 L246.0601,22.5629 C245.9891,23.6809 245.9721,24.8009 246.0601,25.9139 L246.0701,40.0569 L246.0831,57.9869 L263.0051,52.0319 L277.0681,47.0749 C277.7681,46.8639 278.4601,46.6199 279.1421,46.3419 L279.9291,46.0679 L279.8691,46.0299 C283.6971,44.3259 287.1381,41.6289 289.7291,37.9679 C297.4111,27.1159 294.8331,12.0959 283.9731,4.4189" id="Fill-135" fill="#FFAB3B"></path>
                    </g>
                </g>
            </g>
        </g>
    </g>
</svg>