<?xml version="1.0" encoding="UTF-8" standalone="no"?>
<svg width="331px" height="391px" viewBox="0 0 331 391" version="1.1" xmlns="http://www.w3.org/2000/svg" xmlns:xlink="http://www.w3.org/1999/xlink">
    <!-- Generator: Sketch 40.3 (33839) - http://www.bohemiancoding.com/sketch -->
    <title>Group 15</title>
    <desc>Created with Sketch.</desc>
    <defs>
        <polygon id="path-1" points="0 391 330.391 391 330.391 0.98 0 0.98"></polygon>
    </defs>
    <g id="01-Main" stroke="none" stroke-width="1" fill="none" fill-rule="evenodd">
        <g id="01-Main-Desktop-HD-(-≥-1200px-)" transform="translate(-260.000000, -3037.000000)">
            <g id="Group-15" transform="translate(246.000000, 3020.000000)">
                <rect id="Rectangle-8" x="0" y="0" width="362" height="445"></rect>
                <g id="Group-27" transform="translate(14.000000, 16.000000)">
                    <g id="Page-1">
                        <path d="M182.0537,227.0317 L182.0537,231.3917" id="Stroke-1" stroke="#FFFFFF" stroke-width="2" stroke-linecap="round"></path>
                        <path d="M186.1299,225.3432 L189.2129,228.4262" id="Stroke-2" stroke="#FFFFFF" stroke-width="2" stroke-linecap="round"></path>
                        <path d="M186.1299,217.1919 L189.2129,214.1089" id="Stroke-3" stroke="#FFFFFF" stroke-width="2" stroke-linecap="round"></path>
                        <path d="M182.0537,215.5034 L182.0537,211.1434" id="Stroke-4" stroke="#FFFFFF" stroke-width="2" stroke-linecap="round"></path>
                        <path d="M177.9785,217.1919 L174.8945,214.1089" id="Stroke-5" stroke="#FFFFFF" stroke-width="2" stroke-linecap="round"></path>
                        <path d="M176.2896,221.2671 L171.9296,221.2671" id="Stroke-6" stroke="#FFFFFF" stroke-width="2" stroke-linecap="round"></path>
                        <path d="M177.9785,225.3432 L174.8945,228.4262" id="Stroke-7" stroke="#FFFFFF" stroke-width="2" stroke-linecap="round"></path>
                        <path d="M187.8203,221.2671 L192.1803,221.2671" id="Stroke-8" stroke="#FFFFFF" stroke-width="2" stroke-linecap="round"></path>
                        <g id="Group-66" transform="translate(0.000000, 0.020000)">
                            <path d="M257.459,178.7646 L257.459,118.3896 L290.418,95.6516 C294.588,92.7726 299.464,91.2496 304.517,91.2496 C312.697,91.2496 320.355,95.2626 324.999,101.9856 C332.783,113.2546 329.943,128.7566 318.662,136.5406 L257.459,178.7646 L257.459,178.7646 Z" id="Stroke-9" stroke="#FFFFFF" stroke-width="2"></path>
                            <path d="M166.2026,123.8623 L166.3236,123.9903 C166.4856,124.2113 166.6776,124.4103 166.8896,124.5833 L171.9306,129.8693 L177.0006,124.6063 C177.2286,124.4273 177.4306,124.2183 177.5996,123.9823 L177.7186,123.8623 L177.6846,123.8623 C178.0066,123.3713 178.1936,122.7853 178.1936,122.1543 C178.1936,120.4323 176.7996,119.0373 175.0776,119.0373 C174.5146,119.0373 173.9856,119.1873 173.5306,119.4483 L173.5306,119.4473 C173.5216,119.4533 173.5136,119.4583 173.5046,119.4653 C173.4786,119.4783 173.4566,119.4923 173.4316,119.5073 C172.3506,120.1463 171.2966,119.8983 170.7236,119.6683 C170.2006,119.2713 169.5496,119.0373 168.8436,119.0373 C167.1226,119.0373 165.7266,120.4323 165.7266,122.1543 C165.7266,122.7853 165.9136,123.3713 166.2346,123.8623 L166.2026,123.8623 Z" id="Fill-11" fill="#FFFFFF"></path>
                            <path d="M177.6558,137.041 L177.5348,136.914 C177.3728,136.693 177.1808,136.494 176.9688,136.32 L171.9288,131.035 L166.8578,136.297 C166.6308,136.475 166.4288,136.686 166.2588,136.92 L166.1398,137.041 L166.1738,137.041 C165.8518,137.532 165.6648,138.119 165.6648,138.749 C165.6648,140.471 167.0588,141.865 168.7818,141.865 C169.3438,141.865 169.8728,141.717 170.3278,141.455 L170.3278,141.457 C170.3368,141.449 170.3458,141.445 170.3558,141.439 C170.3808,141.424 170.4018,141.411 170.4258,141.398 C171.5078,140.757 172.5618,141.006 173.1358,141.236 C173.6578,141.631 174.3088,141.865 175.0148,141.865 C176.7358,141.865 178.1318,140.471 178.1318,138.749 C178.1318,138.119 177.9458,137.532 177.6238,137.041 L177.6558,137.041 Z" id="Fill-13" fill="#FFFFFF"></path>
                            <path d="M182.9331,132.0527 C182.9291,132.0447 182.9231,132.0357 182.9181,132.0297 C182.9031,132.0017 182.8881,131.9787 182.8731,131.9527 C182.2351,130.8707 182.4831,129.8207 182.7131,129.2447 C183.1091,128.7237 183.3431,128.0727 183.3431,127.3657 C183.3431,125.6447 181.9481,124.2487 180.2261,124.2487 C179.5961,124.2487 179.0091,124.4367 178.5191,124.7577 L178.5191,124.7247 L178.3911,124.8457 C178.1701,125.0077 177.9711,125.1987 177.7981,125.4117 L172.5121,130.4527 L177.7751,135.5237 C177.9541,135.7517 178.1631,135.9527 178.3971,136.1227 L178.5191,136.2397 L178.5191,136.2067 C179.0091,136.5297 179.5961,136.7167 180.2261,136.7167 C181.9481,136.7167 183.3431,135.3227 183.3431,133.5997 C183.3431,133.0357 183.1941,132.5097 182.9321,132.0527 L182.9331,132.0527 Z" id="Fill-15" fill="#FFFFFF"></path>
                            <path d="M171.3462,130.4512 L166.0832,125.3812 C165.9062,125.1522 165.6962,124.9512 165.4602,124.7812 L165.3392,124.6642 L165.3392,124.6972 C164.8492,124.3752 164.2632,124.1862 163.6332,124.1862 C161.9102,124.1862 160.5152,125.5822 160.5152,127.3042 C160.5152,127.8662 160.6642,128.3942 160.9262,128.8512 L160.9252,128.8512 C160.9302,128.8592 160.9352,128.8662 160.9402,128.8752 C160.9552,128.9002 160.9712,128.9262 160.9862,128.9492 C161.6232,130.0312 161.3762,131.0842 161.1462,131.6582 C160.7492,132.1802 160.5152,132.8322 160.5152,133.5392 C160.5152,135.2602 161.9102,136.6542 163.6332,136.6542 C164.2632,136.6542 164.8492,136.4672 165.3392,136.1442 L165.3392,136.1792 L165.4672,136.0562 C165.6892,135.8942 165.8882,135.7052 166.0602,135.4912 L171.3462,130.4512 Z" id="Fill-17" fill="#FFFFFF"></path>
                            <path d="M257.4585,324.2578 L257.4585,352.8468 C257.4585,363.8928 248.5045,372.8468 237.4585,372.8468 L106.3995,372.8468 C95.3545,372.8468 86.3995,363.8928 86.3995,352.8468 L86.3995,203.1208 L124.5355,176.7368 L125.2775,176.1498 L125.2735,176.1438 C131.7145,171.4668 135.5335,164.0248 135.5335,156.0398 C135.5335,142.3388 124.3815,131.1958 110.6735,131.1958 C105.1055,131.1958 99.8275,133.0158 95.4535,136.4268 L53.6665,165.2548 L53.1945,165.6518 L53.1945,165.6588 C20.5015,188.8268 1.0005,226.4718 1.0005,266.4748 C1.0005,334.5878 56.4495,389.9998 124.6075,389.9998 C147.0025,389.9998 168.9535,383.9378 188.0895,372.4698" id="Stroke-19" stroke="#FFFFFF" stroke-width="2"></path>
                            <path d="M86.3999,142.9209 L86.3999,78.9739 C86.3999,67.9279 95.3539,58.9739 106.3999,58.9739 L237.4589,58.9739 C248.5039,58.9739 257.4589,67.9279 257.4589,78.9739 L257.4589,180.4679" id="Stroke-21" stroke="#FFFFFF" stroke-width="2"></path>
                            <path d="M86.3999,105.4102 C86.3999,97.1262 93.1159,90.4102 101.3999,90.4102 L242.4589,90.4102 C250.7429,90.4102 257.4589,97.1262 257.4589,105.4102" id="Stroke-23" stroke="#FFFFFF" stroke-width="2" stroke-linecap="round"></path>
                            <path d="M257.4585,326.4102 C257.4585,334.6942 250.7425,341.4102 242.4585,341.4102 L101.3995,341.4102 C93.1155,341.4102 86.3995,334.6942 86.3995,326.4102" id="Stroke-25" stroke="#FFFFFF" stroke-width="2" stroke-linecap="round"></path>
                            <path d="M86.0581,203.1211 C64.6821,216.2511 50.4221,239.8401 50.4221,266.7651 C50.4221,293.8351 64.8321,317.5391 86.4001,330.6261 L86.4001,203.1211 L86.0581,203.1211 Z" id="Fill-27" fill="#FFFFFF"></path>
                            <path d="M86.0581,203.1211 C64.6821,216.2511 50.4221,239.8401 50.4221,266.7651 C50.4221,293.8351 64.8321,317.5391 86.4001,330.6261 L86.4001,203.1211 L86.0581,203.1211 L86.0581,203.1211 Z" id="Stroke-29" stroke="#FFFFFF" stroke-width="2"></path>
                            <path d="M281.2886,204.5947 C281.2886,217.7547 270.6196,228.4237 257.4586,228.4237 C244.2976,228.4237 233.6286,217.7547 233.6286,204.5947 C233.6286,191.4337 244.2976,180.7647 257.4586,180.7647 C270.6196,180.7647 281.2886,191.4337 281.2886,204.5947 L281.2886,204.5947 Z" id="Stroke-31" stroke="#FFFFFF" stroke-width="2"></path>
                            <path d="M281.2886,252.4404 C281.2886,265.6004 270.6196,276.2694 257.4586,276.2694 C244.2976,276.2694 233.6286,265.6004 233.6286,252.4404 C233.6286,239.2794 244.2976,228.6104 257.4586,228.6104 C270.6196,228.6104 281.2886,239.2794 281.2886,252.4404 L281.2886,252.4404 Z" id="Stroke-33" stroke="#FFFFFF" stroke-width="2"></path>
                            <path d="M281.2886,300.2861 C281.2886,313.4461 270.6196,324.1151 257.4586,324.1151 C244.2976,324.1151 233.6286,313.4461 233.6286,300.2861 C233.6286,287.1251 244.2976,276.4561 257.4586,276.4561 C270.6196,276.4561 281.2886,287.1251 281.2886,300.2861 L281.2886,300.2861 Z" id="Stroke-35" stroke="#FFFFFF" stroke-width="2"></path>
                            <path d="M257.4585,324.1152 C245.9775,324.1152 236.3945,315.9942 234.1355,305.1832 C233.8045,306.7642 233.6285,308.4022 233.6285,310.0812 C233.6285,323.2412 244.2975,333.9102 257.4585,333.9102 L257.4585,324.1152 Z" id="Fill-37" fill="#FFFFFF"></path>
                            <path d="M257.4585,276.4482 C245.9775,276.4482 236.3945,268.3272 234.1355,257.5162 C233.8045,259.0972 233.6285,260.7352 233.6285,262.4142 C233.6285,270.1362 237.3045,276.9952 242.9985,281.3492 C247.0085,278.2822 252.0195,276.4562 257.4585,276.4562 L257.4585,276.4482 Z" id="Fill-39" fill="#FFFFFF"></path>
                            <path d="M257.4585,228.4482 C245.9775,228.4482 236.3945,220.3272 234.1355,209.5162 C233.8045,211.0972 233.6285,212.7352 233.6285,214.4142 C233.6285,222.1792 237.3465,229.0762 243.0965,233.4272 C247.0905,230.4052 252.0635,228.6102 257.4585,228.6102 L257.4585,228.4482 Z" id="Fill-41" fill="#FFFFFF"></path>
                            <path d="M195.1416,143.4355 C195.1416,148.9575 190.6646,153.4355 185.1416,153.4355 L158.7166,153.4355 C153.1936,153.4355 148.7166,148.9575 148.7166,143.4355 L148.7166,117.0395 C148.7166,111.5175 153.1936,107.0395 158.7166,107.0395 L185.1416,107.0395 C190.6646,107.0395 195.1416,111.5175 195.1416,117.0395 L195.1416,143.4355 L195.1416,143.4355 Z" id="Stroke-43" stroke="#FFFFFF" stroke-width="2"></path>
                            <path d="M194.1313,112.6816 C194.7723,114.0006 195.1413,115.4756 195.1413,117.0396 L195.1413,143.4356 C195.1413,148.9576 190.6643,153.4356 185.1413,153.4356 L158.7163,153.4356 C156.3783,153.4356 154.2333,152.6266 152.5293,151.2826 C154.1503,154.6186 157.5613,156.9236 161.5193,156.9236 L187.9443,156.9236 C193.4673,156.9236 197.9443,152.4466 197.9443,146.9236 L197.9443,120.5286 C197.9443,117.3436 196.4503,114.5136 194.1313,112.6816" id="Fill-45" fill="#FFFFFF"></path>
                            <path d="M180.0977,357.7764 C180.0977,362.2874 176.4397,365.9454 171.9297,365.9454 C167.4177,365.9454 163.7607,362.2874 163.7607,357.7764 C163.7607,353.2644 167.4177,349.6074 171.9297,349.6074 C176.4397,349.6074 180.0977,353.2644 180.0977,357.7764 L180.0977,357.7764 Z" id="Stroke-47" stroke="#FFFFFF" stroke-width="2"></path>
                            <mask id="mask-2" fill="white">
                                <use xlink:href="#path-1"></use>
                            </mask>
                            <g id="Clip-50"></g>
                            <polygon id="Stroke-49" stroke="#FFFFFF" stroke-width="2" mask="url(#mask-2)" points="118.081 307.404 225.777 307.404 225.777 199.708 118.081 199.708"></polygon>
                            <path d="M225.7773,221.248 L220.3183,221.248" id="Stroke-51" stroke="#FFFFFF" stroke-width="2" stroke-linecap="round" mask="url(#mask-2)"></path>
                            <path d="M225.7773,242.7861 L220.3183,242.7861" id="Stroke-52" stroke="#FFFFFF" stroke-width="2" stroke-linecap="round" mask="url(#mask-2)"></path>
                            <path d="M225.7773,264.3262 L220.3183,264.3262" id="Stroke-53" stroke="#FFFFFF" stroke-width="2" stroke-linecap="round" mask="url(#mask-2)"></path>
                            <path d="M225.7773,285.8643 L220.3183,285.8643" id="Stroke-54" stroke="#FFFFFF" stroke-width="2" stroke-linecap="round" mask="url(#mask-2)"></path>
                            <path d="M206.4346,283.0586 C205.6636,282.2426 204.5146,281.7266 202.9876,281.5086 L202.9876,290.3886 C204.2226,290.1706 205.2566,289.6196 206.0856,288.7306 C206.9296,287.8296 207.3726,286.7816 207.4156,285.5896 C207.4596,284.6416 207.1326,283.7996 206.4346,283.0586 M196.8756,277.1856 C197.6466,278.0176 198.8096,278.5246 200.3676,278.7146 L200.3676,269.8316 C199.1176,270.0506 198.0766,270.6046 197.2466,271.4916 C196.3886,272.3936 195.9386,273.4396 195.8936,274.6316 C195.8496,275.5936 196.1776,276.4436 196.8756,277.1856 M207.4596,273.1716 C207.0096,271.3966 205.5176,270.2986 202.9876,269.8756 L202.9876,278.8886 C205.2856,279.1366 207.0676,279.9296 208.3326,281.2676 C209.5406,282.5326 210.1076,284.0176 210.0366,285.7186 C209.9476,287.5956 209.2356,289.2266 207.8966,290.6086 C206.5586,291.9766 204.9216,292.7836 202.9876,293.0326 L202.9876,294.4276 C202.9876,294.7896 202.8556,295.1046 202.5936,295.3676 C202.3466,295.6126 202.0406,295.7366 201.6776,295.7366 C201.3126,295.7366 201.0076,295.6126 200.7606,295.3676 C200.4976,295.1046 200.3676,294.7896 200.3676,294.4276 L200.3676,293.0086 C198.6946,292.7906 197.2616,292.2806 196.0686,291.4796 C194.6426,290.5486 193.7256,289.2996 193.3186,287.7286 C193.2316,287.3776 193.2756,287.0516 193.4496,286.7466 C193.6396,286.4246 193.9076,286.2216 194.2566,286.1346 C194.6056,286.0476 194.9336,286.0906 195.2396,286.2646 C195.5436,286.4546 195.7486,286.7236 195.8496,287.0726 C196.3166,288.8486 197.8216,289.9456 200.3676,290.3676 L200.3676,281.3536 C198.0396,281.1226 196.2436,280.3296 194.9776,278.9776 C193.7696,277.6966 193.2026,276.2116 193.2756,274.5246 C193.3626,272.6336 194.0826,270.9966 195.4366,269.6156 C196.7746,268.2466 198.4186,267.4376 200.3676,267.1906 L200.3676,265.7736 C200.3676,265.4106 200.4976,265.0976 200.7606,264.8346 C201.0076,264.5876 201.3126,264.4626 201.6776,264.4626 C202.0406,264.4626 202.3466,264.5876 202.5936,264.8346 C202.8556,265.0976 202.9876,265.4106 202.9876,265.7736 L202.9876,267.2346 C204.6446,267.4536 206.0716,267.9626 207.2646,268.7636 C208.6746,269.7076 209.5846,270.9596 209.9916,272.5156 C210.0786,272.8666 210.0366,273.1946 209.8606,273.4976 C209.6716,273.8036 209.4026,274.0086 209.0536,274.1116 C208.7046,274.1976 208.3766,274.1466 208.0716,273.9566 C207.7656,273.7836 207.5626,273.5206 207.4596,273.1716" id="Fill-55" fill="#FFFFFF" mask="url(#mask-2)"></path>
                            <path d="M169.7515,272.1855 C169.7515,275.1795 167.3235,277.6075 164.3305,277.6075 C161.3365,277.6075 158.9095,275.1795 158.9095,272.1855 C158.9095,269.1915 161.3365,266.7645 164.3305,266.7645 C167.3235,266.7645 169.7515,269.1915 169.7515,272.1855 L169.7515,272.1855 Z" id="Stroke-56" stroke="#FFFFFF" stroke-width="2" stroke-linecap="round" mask="url(#mask-2)"></path>
                            <path d="M152.8188,255.252 C152.8188,258.246 150.3908,260.674 147.3968,260.674 C144.4028,260.674 141.9758,258.246 141.9758,255.252 C141.9758,252.258 144.4028,249.831 147.3968,249.831 C150.3908,249.831 152.8188,252.258 152.8188,255.252 L152.8188,255.252 Z" id="Stroke-57" stroke="#FFFFFF" stroke-width="2" stroke-linecap="round" mask="url(#mask-2)"></path>
                            <path d="M210.894,231.4453 C210.894,234.4393 208.466,236.8673 205.472,236.8673 C202.478,236.8673 200.051,234.4393 200.051,231.4453 C200.051,228.4513 202.478,226.0243 205.472,226.0243 C208.466,226.0243 210.894,228.4513 210.894,231.4453 L210.894,231.4453 Z" id="Stroke-58" stroke="#FFFFFF" stroke-width="2" stroke-linecap="round" mask="url(#mask-2)"></path>
                            <path d="M168.3555,268.5625 L201.6555,235.2615" id="Stroke-59" stroke="#FFFFFF" stroke-width="2" stroke-linecap="round" mask="url(#mask-2)"></path>
                            <path d="M150.9517,259.3379 L160.2457,268.6309" id="Stroke-60" stroke="#FFFFFF" stroke-width="2" stroke-linecap="round" mask="url(#mask-2)"></path>
                            <path d="M118.0811,284.2412 L143.4081,258.9142" id="Stroke-61" stroke="#FFFFFF" stroke-width="2" stroke-linecap="round" mask="url(#mask-2)"></path>
                            <path d="M281.9385,40.832 C272.6485,40.832 265.1195,33.305 265.1195,24.022 C265.1195,14.738 272.6485,7.211 281.9385,7.211 C291.2275,7.211 298.7605,14.738 298.7605,24.022 C298.7605,33.305 291.2275,40.832 281.9385,40.832 M295.1855,5.399 C284.3265,-2.275 269.2995,0.303 261.6195,11.153 C259.0265,14.818 257.6275,18.959 257.2955,23.131 L257.2685,23.107 L257.2725,23.543 C257.2015,24.661 257.1845,25.781 257.2725,26.894 L257.2825,41.037 L257.2955,58.967 L274.2175,53.012 L288.2805,48.055 C288.9805,47.844 289.6725,47.6 290.3545,47.322 L291.1415,47.048 L291.0815,47.01 C294.9095,45.306 298.3505,42.609 300.9415,38.948 C308.6235,28.096 306.0455,13.076 295.1855,5.399" id="Fill-62" fill="#FFFFFF" mask="url(#mask-2)"></path>
                            <path d="M284.5039,24.0146 L291.1149,24.0156" id="Stroke-63" stroke="#FFFFFF" stroke-width="2" stroke-linecap="round" mask="url(#mask-2)"></path>
                            <path d="M282.0063,21.5176 L282.0063,11.4536" id="Stroke-64" stroke="#FFFFFF" stroke-width="2" stroke-linecap="round" mask="url(#mask-2)"></path>
                            <path d="M283.772,22.25 C284.748,23.226 284.748,24.807 283.772,25.782 C282.797,26.757 281.215,26.757 280.24,25.782 C279.266,24.807 279.265,23.226 280.24,22.25 C281.215,21.274 282.797,21.274 283.772,22.25 L283.772,22.25 Z" id="Stroke-65" stroke="#FFFFFF" stroke-width="2" mask="url(#mask-2)"></path>
                        </g>
                    </g>
                </g>
            </g>
        </g>
    </g>
</svg>